<svg xmlns="http://www.w3.org/2000/svg" width="22.985" height="23.093" viewBox="0 0 22.985 23.093">
  <g id="Group_153" data-name="Group 153" transform="translate(-7.57 -6.4)">
    <path id="Path_3676" data-name="Path 3676" d="M8.014,29.393h22.1a.344.344,0,0,0,.344-.344V27.675a1.106,1.106,0,0,0-1.107-1.107H28.263V19.593a.344.344,0,0,0-.344-.344h-2.26a.344.344,0,0,0-.344.344v1.118H20.981v-.128a.344.344,0,1,0-.688,0v.128h-.647l-.47-3.422,4.176,3.222a.344.344,0,0,0,.508-.1l1.379-2.389a.344.344,0,0,0-.167-.49l-5.558-2.285a2.314,2.314,0,0,0-1.385-2.4l.8-5.957a.344.344,0,0,0-.341-.39H15.829a.344.344,0,0,0-.341.39l.8,5.957a2.314,2.314,0,0,0-1.385,2.4L9.345,17.53a.344.344,0,0,0-.167.49l1.38,2.389a.344.344,0,0,0,.508.1l4.222-3.257-1.32,9.316H8.777A1.106,1.106,0,0,0,7.67,27.675v1.373A.344.344,0,0,0,8.014,29.393Zm10.3-6.531h9.262v3.708H18.312ZM26,19.937h1.572v2.236H26ZM20.293,21.4v.128a.344.344,0,1,0,.688,0V21.4h4.333v.774H19.884V21.4Zm-.961-5.484,5.115,2.1-.986,1.708-4.379-3.379a2.475,2.475,0,0,0,.25-.432ZM16.959,12.67l-.736-5.481h1.972l-.736,5.481a2.365,2.365,0,0,0-.5,0Zm.358.679a1.634,1.634,0,1,1-1.223.437,1.632,1.632,0,0,1,1.223-.437Zm-6.361,6.377L9.97,18.017l5.115-2.1a2.488,2.488,0,0,0,.25.432Zm5.066-2.755a2.317,2.317,0,0,0,2.412-.023l.718,5.226H17.968a.344.344,0,0,0-.344.344v4.052H14.662ZM8.358,27.675a.416.416,0,0,1,.122-.3.423.423,0,0,1,.3-.123H29.349a.423.423,0,0,1,.3.122.416.416,0,0,1,.123.3V28.7H8.358Z" transform="translate(0 0)" fill="#20214e" stroke="#20214e" stroke-width="0.2"/>
    <path id="Path_3677" data-name="Path 3677" d="M211.409,189.283h-.649a.344.344,0,1,0,0,.688h.649a.344.344,0,1,0,0-.688Zm0,1.228h-.649a.344.344,0,0,0,0,.688h.649a.344.344,0,0,0,0-.688Zm6.142-1.228h-2.78a.344.344,0,0,0-.344.344v1.228a.344.344,0,0,0,.344.344h2.78a.344.344,0,0,0,.344-.344v-1.228A.344.344,0,0,0,217.552,189.283Zm-.344,1.228h-2.091v-.54h2.091Zm-8.778-6.564a.344.344,0,0,0-.344.344v2.29a.344.344,0,1,0,.688,0v-2.29A.344.344,0,0,0,208.429,183.947Zm0-2.926a.344.344,0,0,0,.344-.344v-.348a.344.344,0,1,0-.688,0v.348A.344.344,0,0,0,208.429,181.021Z" transform="translate(-191.221 -165.526)" fill="#20214e" stroke="#20214e" stroke-width="0.2"/>
  </g>
</svg>
