<svg xmlns="http://www.w3.org/2000/svg" width="21.1" height="21.1" viewBox="0 0 21.1 21.1">
  <g id="Group_144" data-name="Group 144" transform="translate(0.55 0.55)">
    <circle id="Ellipse_483" data-name="Ellipse 483" cx="10" cy="10" r="10" fill="none" stroke="#20214e" stroke-linecap="round" stroke-linejoin="round" stroke-width="1.1"/>
    <path id="Path_3675" data-name="Path 3675" d="M19.108,5.368a.485.485,0,0,1-.23.038,1.7,1.7,0,0,1-1.225-.153c-.115-.077-.23-.153-.344-.115a.3.3,0,0,0-.153.153,1.478,1.478,0,0,1-1.876.383A.5.5,0,0,0,14.9,5.56a.6.6,0,0,0-.268.268,3.651,3.651,0,0,0-.536,1.34,1.552,1.552,0,0,0,.421,1.34,1.665,1.665,0,0,1,.268.23,1.552,1.552,0,0,1,.191.344,1.323,1.323,0,0,0,1.8.536c.077-.038.153-.115.23-.153a.772.772,0,0,1,.344-.268c.268-.077.459.153.651.383a1.246,1.246,0,0,1,.383.88c-.038.306-.23.612-.077.842a1.665,1.665,0,0,0,.268.23c.421.306.344.957.344,1.455a4.009,4.009,0,0,0,.191,1.148,1.907,1.907,0,0,0,.957,1.148c.038.038.077.038.153.038M12.563,2a.751.751,0,0,1-.344.766,1.606,1.606,0,0,1-.919.268,1.9,1.9,0,0,0-.8.038c-.421.191-.459.88-.919,1.11a1.458,1.458,0,0,0-.383.115c-.421.191-.383.8-.727,1.148A1.219,1.219,0,0,1,7.4,5.713a2.9,2.9,0,0,0-1.148-.038c-.383.115-.689.536-.536.88s.612.383.957.344A1.368,1.368,0,0,1,7.7,7.053c.268.23.23.88.574,1.148a.869.869,0,0,0,.957,0,2.166,2.166,0,0,1,.957-.306c.88.038,1.225,1.225,2.067,1.493.344.115.727.038,1.033.153a1.282,1.282,0,0,1,.574,1.684,5.423,5.423,0,0,0-.306.689c-.077.306.038.612-.038.919-.153.574-.957.842-.957,1.455a1.093,1.093,0,0,1,0,.5,1.165,1.165,0,0,1-.306.306A3.861,3.861,0,0,0,10.8,16.851a.9.9,0,0,0-.077.306.729.729,0,0,0,.191.383,1.1,1.1,0,0,1,.268.689.475.475,0,0,1-.459.5.7.7,0,0,1-.383-.268,2.272,2.272,0,0,1-.5-.689,3.859,3.859,0,0,0-.191-.957c-.153-.153-.268-.344-.421-.5-.5-.651.115-1.646-.191-2.373-.268-.612-1.072-.919-1.187-1.569a2.237,2.237,0,0,1,.077-.727,3.8,3.8,0,0,0-.5-1.952,1.376,1.376,0,0,0-.306-.459c-.23-.153-.574-.115-.8-.268a1.7,1.7,0,0,1-.459-.574A1.5,1.5,0,0,0,5.176,7.7a.974.974,0,0,0-.919.038c-.153.115-.23.268-.383.344a1,1,0,0,1-.574.153" transform="translate(-1.989 -1.186)" fill="none" stroke="#20214e" stroke-linecap="round" stroke-linejoin="round" stroke-width="1.1"/>
  </g>
</svg>
