<svg xmlns:xlink="http://www.w3.org/1999/xlink" id="Component_101_1" data-name="Component 101 – 1" xmlns="http://www.w3.org/2000/svg" width="287.998" height="278.241" viewBox="0 0 287.998 278.241">
  <defs>
    <filter id="Polygon_3" x="20.573" y="28.132" width="240.418" height="233.089" filterUnits="userSpaceOnUse">
      <feOffset dx="-3" dy="7" input="SourceAlpha"/>
      <feGaussianBlur stdDeviation="4.5" result="blur"/>
      <feFlood flood-opacity="0.549"/>
      <feComposite operator="in" in2="blur"/>
      <feComposite in="SourceGraphic"/>
    </filter>
  </defs>
  <g id="Group_159" data-name="Group 159" transform="translate(11.338 112.496) rotate(-30)">
    <g id="Polygon_1" data-name="Polygon 1" transform="translate(-8.718 -7.576)" fill="none" opacity="0.42">
      <path d="M165.44,0l55.147,96.965L165.44,193.929H55.147L0,96.965,55.147,0Z" stroke="none"/>
      <path d="M 56.30999755859375 1.999984741210938 L 2.300811767578125 96.9647216796875 L 56.30996704101562 191.9294281005859 L 164.2764739990234 191.9294281005859 L 218.2855987548828 96.9647216796875 L 164.2764739990234 1.999984741210938 L 56.30999755859375 1.999984741210938 M 55.14663696289062 -1.52587890625e-05 L 165.4398345947266 -1.52587890625e-05 L 220.58642578125 96.9647216796875 L 165.4398345947266 193.9294281005859 L 55.1466064453125 193.9294281005859 L -1.52587890625e-05 96.9647216796875 L 55.14663696289062 -1.52587890625e-05 Z" stroke="none" fill="#ed3b24"/>
    </g>
    <path id="Polygon_2" data-name="Polygon 2" d="M144.962,0l48.321,83.555L144.962,167.11H48.321L0,83.555,48.321,0Z" transform="translate(5.464 4.676)" fill="#fff"/>
    <g transform="matrix(0.87, 0.5, -0.5, 0.87, 46.43, -103.09)" filter="url(#Polygon_3)">
      <g id="Polygon_3-2" data-name="Polygon 3" transform="translate(37.07 116.41) rotate(-30)" fill="#fff">
        <path d="M122.671,0l40.89,71.769-40.89,71.769H40.89L0,71.769,40.89,0Z" stroke="none"/>
        <path d="M 42.05276489257812 2 L 2.30181884765625 71.7694091796875 L 42.05274200439453 141.538818359375 L 121.508903503418 141.538818359375 L 161.2598266601562 71.7694091796875 L 121.508903503418 2 L 42.05276489257812 2 M 40.89043426513672 0 L 122.6712341308594 0 L 163.5616455078125 71.7694091796875 L 122.6712341308594 143.538818359375 L 40.89041137695312 143.538818359375 L 0 71.7694091796875 L 40.89043426513672 0 Z" stroke="none" fill="rgba(32,33,78,0.45)"/>
      </g>
    </g>
    <g id="Group_180" data-name="Group 180" transform="translate(-552.377 -690.154) rotate(30)">
      <g id="Group_169" data-name="Group 169" transform="translate(931 302.366)">
        <path id="Path_1" data-name="Path 1" d="M1424.756,140.633a6.5,6.5,0,0,0-1.366-7.171l-10.5-10.5a35.813,35.813,0,0,0,8.649,14.456Z" transform="translate(-1408.152 -96.443)" fill="none"/>
        <path id="Path_2" data-name="Path 2" d="M1513.613,53.46l10.5,10.5A35.824,35.824,0,0,0,1515.46,49.5l-3.212-3.212A6.5,6.5,0,0,0,1513.613,53.46Z" transform="translate(-1479.489 -41.091)" fill="none"/>
        <path id="Path_3" data-name="Path 3" d="M1421.525,55.152l10.5-10.5a35.821,35.821,0,0,0-14.456,8.65l-3.214,3.214a6.5,6.5,0,0,0,7.173-1.368Z" transform="translate(-1409.204 -39.912)" fill="none"/>
        <path id="Path_4" data-name="Path 4" d="M1501.783,145.448l-10.5,10.5a35.8,35.8,0,0,0,14.456-8.65l3.214-3.214a6.5,6.5,0,0,0-7.173,1.368Z" transform="translate(-1464.74 -111.3)" fill="none"/>
        <path id="Path_5" data-name="Path 5" d="M1413.634,44.526,1430.559,27.6l-6.726,1.841a38.854,38.854,0,0,0-17.53,9.866l-5.218,5.219a8.875,8.875,0,0,0,12.55,0Zm-5.646-3.533a35.814,35.814,0,0,1,14.455-8.65l-10.5,10.5a6.5,6.5,0,0,1-7.173,1.368Z" transform="translate(-1399.625 -27.6)" fill="#ed3b24"/>
        <path id="Path_6" data-name="Path 6" d="M1407.547,118.044l5.218,5.218a8.875,8.875,0,0,0,0-12.549l-16.925-16.925,1.84,6.727A38.852,38.852,0,0,0,1407.547,118.044Zm3.532-5.645a6.5,6.5,0,0,1,1.365,7.171l-3.212-3.212a35.81,35.81,0,0,1-8.649-14.456Z" transform="translate(-1395.839 -75.38)" fill="#262e3a"/>
        <path id="Path_7" data-name="Path 7" d="M1485.309,134.975a8.847,8.847,0,0,0-6.275,2.6L1462.109,154.5l6.727-1.84a38.855,38.855,0,0,0,17.53-9.867l5.218-5.218a8.85,8.85,0,0,0-6.275-2.6Zm-.63,6.131a35.8,35.8,0,0,1-14.456,8.65l10.5-10.5a6.5,6.5,0,0,1,7.173-1.368Z" transform="translate(-1443.679 -105.112)" fill="#ed3b24"/>
        <path id="Path_8" data-name="Path 8" d="M1505.73,45.561l16.925,16.925-1.84-6.727a38.86,38.86,0,0,0-9.868-17.53l-5.218-5.218A8.874,8.874,0,0,0,1505.73,45.561Zm.321-8.857,3.212,3.212a35.829,35.829,0,0,1,8.649,14.456l-10.5-10.5A6.5,6.5,0,0,1,1506.05,36.7Z" transform="translate(-1473.291 -31.507)" fill="#262e3a"/>
      </g>
      <text id="GEO" transform="translate(957.364 385.666)" fill="#20214e" font-size="24" font-family="Roboto-Medium, Roboto" font-weight="500"><tspan x="-23" y="0">GEO</tspan></text>
    </g>
  </g>
</svg>
