<svg xmlns="http://www.w3.org/2000/svg" width="712.709" height="627.871" viewBox="0 0 712.709 627.871">
  <g id="Group_19262" data-name="Group 19262" transform="translate(-716 -148.501)">
    <g id="Group_19103" data-name="Group 19103" transform="translate(999.543 636.109) rotate(-30)" opacity="0.04">
      <g id="Polygon_1" data-name="Polygon 1" fill="none" opacity="0.42">
        <path d="M94.008,0l31.336,54.362L94.008,108.724H31.336L0,54.362,31.336,0Z" stroke="none"/>
        <path d="M 32.49168395996094 2 L 2.308494567871094 54.36198425292969 L 32.49166107177734 106.7239685058594 L 92.85253143310547 106.7239685058594 L 123.0356979370117 54.36198425292969 L 92.85253143310547 2 L 32.49168395996094 2 M 31.3360595703125 0 L 94.00814819335938 0 L 125.3441848754883 54.36198425292969 L 94.00814819335938 108.7239685058594 L 31.33604431152344 108.7239685058594 L 7.62939453125e-06 54.36198425292969 L 31.3360595703125 0 Z" stroke="none" fill="#ed3b24"/>
      </g>
      <path id="Polygon_2" data-name="Polygon 2" d="M78.427,0l26.142,45.359L78.427,90.719H26.142L0,45.359,26.142,0Z" transform="translate(10.491 8.76)" fill="#fff"/>
      <g id="Polygon_3" data-name="Polygon 3" transform="translate(17.416 14.3)" fill="none" opacity="0.64">
        <path d="M68.039,0l22.68,39.819L68.039,79.639H22.68L0,39.819,22.68,0Z" stroke="none"/>
        <path d="M 23.84221649169922 1.999992370605469 L 2.301651000976562 39.81928634643555 L 23.84220123291016 77.63856506347656 L 66.87651824951172 77.63856506347656 L 88.41706848144531 39.81928634643555 L 66.87651824951172 1.999992370605469 L 23.84221649169922 1.999992370605469 M 22.6796875 -7.62939453125e-06 L 68.03904724121094 -7.62939453125e-06 L 90.71872711181641 39.81928634643555 L 68.03904724121094 79.63856506347656 L 22.67967224121094 79.63856506347656 L -7.62939453125e-06 39.81928634643555 L 22.6796875 -7.62939453125e-06 Z" stroke="none" fill="#ed3b24"/>
      </g>
    </g>
    <g id="Group_167" data-name="Group 167" transform="translate(898.936 690.604) rotate(-30)" opacity="0.04">
      <g id="Polygon_1-2" data-name="Polygon 1" fill="none" opacity="0.42">
        <path d="M85.632,0l28.544,49.518L85.632,99.036H28.544L0,49.518,28.544,0Z" stroke="none"/>
        <path d="M 29.69953918457031 2.000007629394531 L 2.3084716796875 49.5181884765625 L 29.69952392578125 97.03636932373047 L 84.47617340087891 97.03636932373047 L 111.8672256469727 49.5181884765625 L 84.47617340087891 2.000007629394531 L 29.69953918457031 2.000007629394531 M 28.54393005371094 7.62939453125e-06 L 85.63178253173828 7.62939453125e-06 L 114.1756973266602 49.5181884765625 L 85.63178253173828 99.03636932373047 L 28.54391479492188 99.03636932373047 L 0 49.5181884765625 L 28.54393005371094 7.62939453125e-06 Z" stroke="none" fill="#ed3b24"/>
      </g>
      <path id="Polygon_2-2" data-name="Polygon 2" d="M71.439,0,95.252,41.318,71.439,82.635H23.813L0,41.318,23.813,0Z" transform="translate(9.556 7.979)" fill="#fff"/>
      <g id="Polygon_3-2" data-name="Polygon 3" transform="translate(15.864 13.026)" fill="none" opacity="0.64">
        <path d="M61.977,0,82.635,36.271,61.977,72.543H20.659L0,36.271,20.659,0Z" stroke="none"/>
        <path d="M 21.82138442993164 2 L 2.301651000976562 36.27128601074219 L 21.82138442993164 70.54257202148438 L 60.81406784057617 70.54257202148438 L 80.33380126953125 36.27128601074219 L 60.81406784057617 2 L 21.82138442993164 2 M 20.65886306762695 0 L 61.97658920288086 0 L 82.63545227050781 36.27128601074219 L 61.97658920288086 72.54257202148438 L 20.65886306762695 72.54257202148438 L 0 36.27128601074219 L 20.65886306762695 0 Z" stroke="none" fill="#ed3b24"/>
      </g>
    </g>
    <g id="Group_19102" data-name="Group 19102" transform="translate(1118.727 684.441) rotate(-30)" opacity="0.04">
      <g id="Polygon_1-3" data-name="Polygon 1" fill="none" opacity="0.42">
        <path d="M85.6,0,114.13,49.5,85.6,99H28.532L0,49.5,28.532,0Z" stroke="none"/>
        <path d="M 29.68804931640625 1.999992370605469 L 2.3084716796875 49.49826049804688 L 29.68803405761719 96.99652862548828 L 84.44170379638672 96.99652862548828 L 111.8212661743164 49.49826049804688 L 84.44170379638672 1.999992370605469 L 29.68804931640625 1.999992370605469 M 28.53244018554688 -7.62939453125e-06 L 85.59730529785156 -7.62939453125e-06 L 114.1297454833984 49.49826049804688 L 85.59730529785156 98.99652862548828 L 28.53242492675781 98.99652862548828 L -7.62939453125e-06 49.49826049804688 L 28.53244018554688 -7.62939453125e-06 Z" stroke="none" fill="#ed3b24"/>
      </g>
      <path id="Polygon_2-3" data-name="Polygon 2" d="M71.41,0l23.8,41.3L71.41,82.6H23.8L0,41.3,23.8,0Z" transform="translate(9.552 7.976)" fill="#fff"/>
      <g id="Polygon_3-3" data-name="Polygon 3" transform="translate(15.858 13.02)" fill="none" opacity="0.64">
        <path d="M61.952,0,82.6,36.257,61.952,72.513h-41.3L0,36.257,20.651,0Z" stroke="none"/>
        <path d="M 21.81307220458984 2 L 2.301651000976562 36.25668716430664 L 21.81307220458984 70.51337432861328 L 60.78913116455078 70.51337432861328 L 80.30055236816406 36.25668716430664 L 60.78913116455078 2 L 21.81307220458984 2 M 20.65055084228516 0 L 61.95165252685547 0 L 82.60220336914062 36.25668716430664 L 61.95165252685547 72.51337432861328 L 20.65055084228516 72.51337432861328 L 0 36.25668716430664 L 20.65055084228516 0 Z" stroke="none" fill="#ed3b24"/>
      </g>
    </g>
    <g id="Group_18818" data-name="Group 18818" transform="translate(1286.748 559.953) rotate(-30)" opacity="0.04">
      <g id="Polygon_1-4" data-name="Polygon 1" fill="none" opacity="0.42">
        <path d="M81.918,0l27.306,47.37L81.918,94.741H27.306L0,47.37,27.306,0Z" stroke="none"/>
        <path d="M 28.46148681640625 1.999992370605469 L 2.308486938476562 47.37037658691406 L 28.46147155761719 92.74074554443359 L 80.76193237304688 92.74074554443359 L 106.9149322509766 47.37037658691406 L 80.76193237304688 1.999992370605469 L 28.46148681640625 1.999992370605469 M 27.30586242675781 -7.62939453125e-06 L 81.91755676269531 -7.62939453125e-06 L 109.2234191894531 47.37037658691406 L 81.91755676269531 94.74074554443359 L 27.30584716796875 94.74074554443359 L 0 47.37037658691406 L 27.30586242675781 -7.62939453125e-06 Z" stroke="none" fill="#ed3b24"/>
      </g>
      <path id="Polygon_2-4" data-name="Polygon 2" d="M68.34,0,91.12,39.526,68.34,79.051H22.78L0,39.526,22.78,0Z" transform="translate(9.142 7.633)" fill="#fff"/>
      <g id="Polygon_3-4" data-name="Polygon 3" transform="translate(15.176 12.461)" fill="none" opacity="0.64">
        <path d="M59.288,0,79.051,34.7,59.288,69.4H19.763L0,34.7,19.763,0Z" stroke="none"/>
        <path d="M 20.92533111572266 2 L 2.301658630371094 34.69804763793945 L 20.92533111572266 67.39609527587891 L 58.12587738037109 67.39609527587891 L 76.74954223632812 34.69804763793945 L 58.12587738037109 2 L 20.92533111572266 2 M 19.7628059387207 0 L 59.28840637207031 0 L 79.05120086669922 34.69804763793945 L 59.28840637207031 69.39609527587891 L 19.7628059387207 69.39609527587891 L 7.62939453125e-06 34.69804763793945 L 19.7628059387207 0 Z" stroke="none" fill="#ed3b24"/>
      </g>
    </g>
    <g id="Group_19172" data-name="Group 19172" transform="translate(785 671.613) rotate(-30)" opacity="0.04">
      <g id="Polygon_1-5" data-name="Polygon 1" fill="none" opacity="0.42">
        <path d="M81.918,0l27.306,47.37L81.918,94.741H27.306L0,47.37,27.306,0Z" stroke="none"/>
        <path d="M 28.46148681640625 1.999992370605469 L 2.308486938476562 47.37037658691406 L 28.46147155761719 92.74074554443359 L 80.76193237304688 92.74074554443359 L 106.9149322509766 47.37037658691406 L 80.76193237304688 1.999992370605469 L 28.46148681640625 1.999992370605469 M 27.30586242675781 -7.62939453125e-06 L 81.91755676269531 -7.62939453125e-06 L 109.2234191894531 47.37037658691406 L 81.91755676269531 94.74074554443359 L 27.30584716796875 94.74074554443359 L 0 47.37037658691406 L 27.30586242675781 -7.62939453125e-06 Z" stroke="none" fill="#ed3b24"/>
      </g>
      <path id="Polygon_2-5" data-name="Polygon 2" d="M68.34,0,91.12,39.526,68.34,79.051H22.78L0,39.526,22.78,0Z" transform="translate(9.142 7.633)" fill="#fff"/>
      <g id="Polygon_3-5" data-name="Polygon 3" transform="translate(15.176 12.461)" fill="none" opacity="0.64">
        <path d="M59.288,0,79.051,34.7,59.288,69.4H19.763L0,34.7,19.763,0Z" stroke="none"/>
        <path d="M 20.92533111572266 2 L 2.301658630371094 34.69804763793945 L 20.92533111572266 67.39609527587891 L 58.12587738037109 67.39609527587891 L 76.74954223632812 34.69804763793945 L 58.12587738037109 2 L 20.92533111572266 2 M 19.7628059387207 0 L 59.28840637207031 0 L 79.05120086669922 34.69804763793945 L 59.28840637207031 69.39609527587891 L 19.7628059387207 69.39609527587891 L 7.62939453125e-06 34.69804763793945 L 19.7628059387207 0 Z" stroke="none" fill="#ed3b24"/>
      </g>
    </g>
    <g id="Group_19174" data-name="Group 19174" transform="translate(1243.039 671.613) rotate(-30)" opacity="0.04">
      <g id="Polygon_1-6" data-name="Polygon 1" fill="none" opacity="0.42">
        <path d="M81.918,0l27.306,47.37L81.918,94.741H27.306L0,47.37,27.306,0Z" stroke="none"/>
        <path d="M 28.46148681640625 1.999992370605469 L 2.308486938476562 47.37037658691406 L 28.46147155761719 92.74074554443359 L 80.76193237304688 92.74074554443359 L 106.9149322509766 47.37037658691406 L 80.76193237304688 1.999992370605469 L 28.46148681640625 1.999992370605469 M 27.30586242675781 -7.62939453125e-06 L 81.91755676269531 -7.62939453125e-06 L 109.2234191894531 47.37037658691406 L 81.91755676269531 94.74074554443359 L 27.30584716796875 94.74074554443359 L 0 47.37037658691406 L 27.30586242675781 -7.62939453125e-06 Z" stroke="none" fill="#ed3b24"/>
      </g>
      <path id="Polygon_2-6" data-name="Polygon 2" d="M68.34,0,91.12,39.526,68.34,79.051H22.78L0,39.526,22.78,0Z" transform="translate(9.142 7.633)" fill="#fff"/>
      <g id="Polygon_3-6" data-name="Polygon 3" transform="translate(15.176 12.461)" fill="none" opacity="0.64">
        <path d="M59.288,0,79.051,34.7,59.288,69.4H19.763L0,34.7,19.763,0Z" stroke="none"/>
        <path d="M 20.92533111572266 2 L 2.301658630371094 34.69804763793945 L 20.92533111572266 67.39609527587891 L 58.12587738037109 67.39609527587891 L 76.74954223632812 34.69804763793945 L 58.12587738037109 2 L 20.92533111572266 2 M 19.7628059387207 0 L 59.28840637207031 0 L 79.05120086669922 34.69804763793945 L 59.28840637207031 69.39609527587891 L 19.7628059387207 69.39609527587891 L 7.62939453125e-06 34.69804763793945 L 19.7628059387207 0 Z" stroke="none" fill="#ed3b24"/>
      </g>
    </g>
    <g id="Group_164" data-name="Group 164" transform="translate(716 553.75) rotate(-30)" opacity="0.04">
      <g id="Polygon_1-7" data-name="Polygon 1" fill="none" opacity="0.42">
        <path d="M88.112,0l29.371,50.953L88.112,101.905H29.371L0,50.953,29.371,0Z" stroke="none"/>
        <path d="M 30.52643585205078 2 L 2.3084716796875 50.95270156860352 L 30.52642059326172 99.90540313720703 L 86.95687103271484 99.90540313720703 L 115.1748199462891 50.95270156860352 L 86.95687103271484 2 L 30.52643585205078 2 M 29.37082672119141 0 L 88.11248016357422 0 L 117.4832992553711 50.95270156860352 L 88.11248016357422 101.905403137207 L 29.37081146240234 101.905403137207 L -7.62939453125e-06 50.95270156860352 L 29.37082672119141 0 Z" stroke="none" fill="#ed3b24"/>
      </g>
      <path id="Polygon_2-7" data-name="Polygon 2" d="M73.508,0l24.5,42.515-24.5,42.515H24.5L0,42.515,24.5,0Z" transform="translate(9.833 8.21)" fill="#fff"/>
      <g id="Polygon_3-7" data-name="Polygon 3" transform="translate(16.324 13.403)" fill="none" opacity="0.64">
        <path d="M63.772,0,85.029,37.322,63.772,74.644H21.257L0,37.322,21.257,0Z" stroke="none"/>
        <path d="M 22.41986083984375 2 L 2.301651000976562 37.32204055786133 L 22.41986083984375 72.64408111572266 L 62.60948944091797 72.64408111572266 L 82.72769927978516 37.32204055786133 L 62.60948944091797 2 L 22.41986083984375 2 M 21.25733947753906 0 L 63.77201080322266 0 L 85.02935028076172 37.32204055786133 L 63.77201080322266 74.64408111572266 L 21.25733947753906 74.64408111572266 L 0 37.32204055786133 L 21.25733947753906 0 Z" stroke="none" fill="#ed3b24"/>
      </g>
    </g>
    <g id="Group_165" data-name="Group 165" transform="matrix(0.899, -0.438, 0.438, 0.899, 1270.225, 413.865)" opacity="0.04">
      <g id="Polygon_1-8" data-name="Polygon 1" fill="none" opacity="0.42">
        <path d="M84.108,0l28.036,48.637L84.108,97.274H28.036L0,48.637,28.036,0Z" stroke="none"/>
        <path d="M 29.19171905517578 2.000007629394531 L 2.308464050292969 48.63722229003906 L 29.19171905517578 95.27443695068359 L 82.95269775390625 95.27443695068359 L 109.8359375 48.63722229003906 L 82.95269775390625 2.000007629394531 L 29.19171905517578 2.000007629394531 M 28.03610992431641 7.62939453125e-06 L 84.10830688476562 7.62939453125e-06 L 112.1444091796875 48.63722229003906 L 84.10830688476562 97.27443695068359 L 28.03610992431641 97.27443695068359 L -7.62939453125e-06 48.63722229003906 L 28.03610992431641 7.62939453125e-06 Z" stroke="none" fill="#ed3b24"/>
      </g>
      <path id="Polygon_2-8" data-name="Polygon 2" d="M70.168,0,93.557,40.583,70.168,81.165H23.389L0,40.583,23.389,0Z" transform="translate(9.386 7.837)" fill="#fff"/>
      <g id="Polygon_3-8" data-name="Polygon 3" transform="translate(15.582 12.794)" fill="none" opacity="0.64">
        <path d="M60.874,0,81.165,35.626,60.874,71.252H20.291L0,35.626,20.291,0Z" stroke="none"/>
        <path d="M 21.45386123657227 2 L 2.301651000976562 35.62599182128906 L 21.45384979248047 69.25198364257812 L 59.71145629882812 69.25198364257812 L 78.86363983154297 35.62599182128906 L 59.71145629882812 2 L 21.45386123657227 2 M 20.29133605957031 0 L 60.87398529052734 0 L 81.16529846191406 35.62599182128906 L 60.87398529052734 71.25198364257812 L 20.29132461547852 71.25198364257812 L -7.62939453125e-06 35.62599182128906 L 20.29133605957031 0 Z" stroke="none" fill="#ed3b24"/>
      </g>
    </g>
    <g id="Group_19173" data-name="Group 19173" transform="matrix(0.899, -0.438, 0.438, 0.899, 741, 417.912)" opacity="0.04">
      <g id="Polygon_1-9" data-name="Polygon 1" fill="none" opacity="0.42">
        <path d="M84.108,0l28.036,48.637L84.108,97.274H28.036L0,48.637,28.036,0Z" stroke="none"/>
        <path d="M 29.19171905517578 2.000007629394531 L 2.308464050292969 48.63722229003906 L 29.19171905517578 95.27443695068359 L 82.95269775390625 95.27443695068359 L 109.8359375 48.63722229003906 L 82.95269775390625 2.000007629394531 L 29.19171905517578 2.000007629394531 M 28.03610992431641 7.62939453125e-06 L 84.10830688476562 7.62939453125e-06 L 112.1444091796875 48.63722229003906 L 84.10830688476562 97.27443695068359 L 28.03610992431641 97.27443695068359 L -7.62939453125e-06 48.63722229003906 L 28.03610992431641 7.62939453125e-06 Z" stroke="none" fill="#ed3b24"/>
      </g>
      <path id="Polygon_2-9" data-name="Polygon 2" d="M70.168,0,93.557,40.583,70.168,81.165H23.389L0,40.583,23.389,0Z" transform="translate(9.386 7.837)" fill="#fff"/>
      <g id="Polygon_3-9" data-name="Polygon 3" transform="translate(15.582 12.794)" fill="none" opacity="0.64">
        <path d="M60.874,0,81.165,35.626,60.874,71.252H20.291L0,35.626,20.291,0Z" stroke="none"/>
        <path d="M 21.45386123657227 2 L 2.301651000976562 35.62599182128906 L 21.45384979248047 69.25198364257812 L 59.71145629882812 69.25198364257812 L 78.86363983154297 35.62599182128906 L 59.71145629882812 2 L 21.45386123657227 2 M 20.29133605957031 0 L 60.87398529052734 0 L 81.16529846191406 35.62599182128906 L 60.87398529052734 71.25198364257812 L 20.29132461547852 71.25198364257812 L -7.62939453125e-06 35.62599182128906 L 20.29133605957031 0 Z" stroke="none" fill="#ed3b24"/>
      </g>
    </g>
    <g id="Group_166" data-name="Group 166" transform="translate(917.646 209.369) rotate(-30)" opacity="0.04">
      <g id="Polygon_1-10" data-name="Polygon 1" fill="none" opacity="0.42">
        <path d="M83.5,0l27.833,48.284L83.5,96.569H27.833L0,48.284,27.833,0Z" stroke="none"/>
        <path d="M 28.98827362060547 1.999992370605469 L 2.308479309082031 48.28425216674805 L 28.98825836181641 94.56849670410156 L 82.34231567382812 94.56849670410156 L 109.0220794677734 48.28425216674805 L 82.34231567382812 1.999992370605469 L 28.98827362060547 1.999992370605469 M 27.83264923095703 -7.62939453125e-06 L 83.4979248046875 -7.62939453125e-06 L 111.3305587768555 48.28425216674805 L 83.4979248046875 96.56849670410156 L 27.83263397216797 96.56849670410156 L -7.62939453125e-06 48.28425216674805 L 27.83264923095703 -7.62939453125e-06 Z" stroke="none" fill="#ed3b24"/>
      </g>
      <path id="Polygon_2-10" data-name="Polygon 2" d="M69.658,0,92.878,40.288,69.658,80.576H23.219L0,40.288,23.22,0Z" transform="translate(9.318 7.78)" fill="#fff"/>
      <g id="Polygon_3-10" data-name="Polygon 3" transform="translate(15.469 12.701)" fill="none" opacity="0.64">
        <path d="M60.432,0,80.576,35.367,60.432,70.735H20.144L0,35.367,20.144,0Z" stroke="none"/>
        <path d="M 21.30660247802734 1.999992370605469 L 2.301651000976562 35.3674430847168 L 21.30659103393555 68.73489379882812 L 59.26967620849609 68.73489379882812 L 78.27460479736328 35.3674430847168 L 59.26967620849609 1.999992370605469 L 21.30660247802734 1.999992370605469 M 20.14407730102539 -7.62939453125e-06 L 60.43220520019531 -7.62939453125e-06 L 80.57626342773438 35.3674430847168 L 60.43220520019531 70.73489379882812 L 20.14406585693359 70.73489379882812 L -7.62939453125e-06 35.3674430847168 L 20.14407730102539 -7.62939453125e-06 Z" stroke="none" fill="#ed3b24"/>
      </g>
    </g>
    <g id="Group_19104" data-name="Group 19104" transform="translate(1091 204.166) rotate(-30)" opacity="0.04">
      <g id="Polygon_1-11" data-name="Polygon 1" fill="none" opacity="0.42">
        <path d="M83.5,0l27.833,48.284L83.5,96.569H27.833L0,48.284,27.833,0Z" stroke="none"/>
        <path d="M 28.98827362060547 1.999992370605469 L 2.308479309082031 48.28425216674805 L 28.98825836181641 94.56849670410156 L 82.34231567382812 94.56849670410156 L 109.0220794677734 48.28425216674805 L 82.34231567382812 1.999992370605469 L 28.98827362060547 1.999992370605469 M 27.83264923095703 -7.62939453125e-06 L 83.4979248046875 -7.62939453125e-06 L 111.3305587768555 48.28425216674805 L 83.4979248046875 96.56849670410156 L 27.83263397216797 96.56849670410156 L -7.62939453125e-06 48.28425216674805 L 27.83264923095703 -7.62939453125e-06 Z" stroke="none" fill="#ed3b24"/>
      </g>
      <path id="Polygon_2-11" data-name="Polygon 2" d="M69.658,0,92.878,40.288,69.658,80.576H23.219L0,40.288,23.22,0Z" transform="translate(9.318 7.78)" fill="#fff"/>
      <g id="Polygon_3-11" data-name="Polygon 3" transform="translate(15.469 12.701)" fill="none" opacity="0.64">
        <path d="M60.432,0,80.576,35.367,60.432,70.735H20.144L0,35.367,20.144,0Z" stroke="none"/>
        <path d="M 21.30660247802734 1.999992370605469 L 2.301651000976562 35.3674430847168 L 21.30659103393555 68.73489379882812 L 59.26967620849609 68.73489379882812 L 78.27460479736328 35.3674430847168 L 59.26967620849609 1.999992370605469 L 21.30660247802734 1.999992370605469 M 20.14407730102539 -7.62939453125e-06 L 60.43220520019531 -7.62939453125e-06 L 80.57626342773438 35.3674430847168 L 60.43220520019531 70.73489379882812 L 20.14406585693359 70.73489379882812 L -7.62939453125e-06 35.3674430847168 L 20.14407730102539 -7.62939453125e-06 Z" stroke="none" fill="#ed3b24"/>
      </g>
    </g>
    <g id="Group_19101" data-name="Group 19101" transform="translate(836.164 343.152) rotate(-30)" opacity="0.04">
      <g id="Polygon_1-12" data-name="Polygon 1" fill="none" opacity="0.42">
        <path d="M79.038,0l26.346,45.705L79.038,91.411H26.346L0,45.705,26.346,0Z" stroke="none"/>
        <path d="M 27.50177764892578 2.000007629394531 L 2.308486938476562 45.70546722412109 L 27.50176239013672 89.41092681884766 L 77.88280487060547 89.41092681884766 L 103.0760955810547 45.70546722412109 L 77.88280487060547 2.000007629394531 L 27.50177764892578 2.000007629394531 M 26.34615325927734 7.62939453125e-06 L 79.03842926025391 7.62939453125e-06 L 105.3845825195312 45.70546722412109 L 79.03842926025391 91.41092681884766 L 26.34613800048828 91.41092681884766 L 0 45.70546722412109 L 26.34615325927734 7.62939453125e-06 Z" stroke="none" fill="#ed3b24"/>
      </g>
      <path id="Polygon_2-12" data-name="Polygon 2" d="M65.938,0,87.918,38.136,65.938,76.273H21.979L0,38.136,21.979,0Z" transform="translate(8.821 7.365)" fill="#fff"/>
      <g id="Polygon_3-12" data-name="Polygon 3" transform="translate(14.643 12.023)" fill="none" opacity="0.64">
        <path d="M57.2,0,76.273,33.479,57.2,66.957H19.068L0,33.479,19.068,0Z" stroke="none"/>
        <path d="M 20.23073577880859 1.999992370605469 L 2.301658630371094 33.47852325439453 L 20.2307243347168 64.95703887939453 L 56.04208374023438 64.95703887939453 L 73.97116088867188 33.47852325439453 L 56.04208374023438 1.999992370605469 L 20.23073577880859 1.999992370605469 M 19.06821060180664 -7.62939453125e-06 L 57.20460891723633 -7.62939453125e-06 L 76.27281951904297 33.47852325439453 L 57.20460891723633 66.95703887939453 L 19.06819915771484 66.95703887939453 L 0 33.47852325439453 L 19.06821060180664 -7.62939453125e-06 Z" stroke="none" fill="#ed3b24"/>
      </g>
    </g>
    <g id="Group_168" data-name="Group 168" transform="translate(1180.559 344.26) rotate(-30)" opacity="0.04">
      <g id="Polygon_1-13" data-name="Polygon 1" fill="none" opacity="0.42">
        <path d="M79.19,0l26.4,45.793L79.19,91.586H26.4L0,45.793,26.4,0Z" stroke="none"/>
        <path d="M 27.55229949951172 1.999992370605469 L 2.308486938476562 45.79312515258789 L 27.55227661132812 89.58624267578125 L 78.03440093994141 89.58624267578125 L 103.2781982421875 45.79311752319336 L 78.03440093994141 1.999992370605469 L 27.55229949951172 1.999992370605469 M 26.39667510986328 -7.62939453125e-06 L 79.19001770019531 -7.62939453125e-06 L 105.5866775512695 45.79311752319336 L 79.19001770019531 91.58624267578125 L 26.39665985107422 91.58624267578125 L 0 45.79311752319336 L 26.39667510986328 -7.62939453125e-06 Z" stroke="none" fill="#ed3b24"/>
      </g>
      <path id="Polygon_2-13" data-name="Polygon 2" d="M66.065,0,88.086,38.21,66.065,76.419H22.022L0,38.21,22.022,0Z" transform="translate(8.837 7.379)" fill="#fff"/>
      <g id="Polygon_3-13" data-name="Polygon 3" transform="translate(14.671 12.046)" fill="none" opacity="0.64">
        <path d="M57.314,0l19.1,33.543-19.1,33.543H19.1L0,33.543,19.1,0Z" stroke="none"/>
        <path d="M 20.26729965209961 2 L 2.301651000976562 33.54272842407227 L 20.26729965209961 65.08545684814453 L 56.15179824829102 65.08545684814453 L 74.11744689941406 33.54272842407227 L 56.15179824829102 2 L 20.26729965209961 2 M 19.10477066040039 0 L 57.31432342529297 0 L 76.41910552978516 33.54272842407227 L 57.31432342529297 67.08545684814453 L 19.10477066040039 67.08545684814453 L -7.62939453125e-06 33.54272842407227 L 19.10477066040039 0 Z" stroke="none" fill="#ed3b24"/>
      </g>
    </g>
  </g>
</svg>
