<svg xmlns="http://www.w3.org/2000/svg" width="1640.841" height="1607.033" viewBox="0 0 1640.841 1607.033">
  <path id="Path_3673" data-name="Path 3673" d="M39.6,592.836c0,3.269,0,6.538.246,9.842A688.312,688.312,0,0,0,52.218,709.39C72.358,814.132,114.431,918.875,164.2,1018.7c.808,1.582,1.617,3.163,2.39,4.745,1.2,2.355,2.355,4.71,3.515,7.03q3.515,7.241,7.311,14.341l5.518,10.545h0c1.3,2.531,2.671,5.061,4.007,7.627.808,1.547,1.652,3.128,2.531,4.71a877.185,877.185,0,0,0,45.166,76.484l1.863,2.741a474.894,474.894,0,0,0,71.563,84.357c47.591,43.76,108.047,75.394,172.615,93.461,2.179.633,4.358,1.2,6.573,1.793,4.218,1.09,8.506,2.144,12.794,3.163,2.952.7,5.9,1.371,8.893,1.968a466.691,466.691,0,0,0,62.459,9.033c11.388.879,22.812,1.3,34.164,1.3h4.921a416.423,416.423,0,0,0,42-2.46l2-.246a364.205,364.205,0,0,0,109.523-29.49q8.33-3.726,16.344-7.909l2.742-1.406,1.336-.738h0a443.48,443.48,0,0,0,51.528-32.231c19.156-13.743,37.222-28.646,54.691-43.971a841.517,841.517,0,0,0,73.812-72.687l1.054-1.16q14.868-16.766,28.365-34.446v-.211q9.385-12.337,18-25.131c.281-.352.527-.738.808-1.16,8.4-12.548,16.2-25.412,23.3-38.664l1.617-3.058q7.7-14.552,14.059-29.6c24.323-56.519,35.149-117.713,41.089-179.047,12.126-123.934,5.062-251.629-27.732-375.6q-6.643-25.166-14.727-50.087c-.738-2.214-1.441-4.464-2.214-6.678-1.16-3.515-2.39-7.03-3.515-10.72-.492-1.476-1.019-2.988-1.547-4.464q-7.03-20.246-15.219-40.245l-2.847-7.03c-2.988-7.03-6.046-14.376-9.244-21.511-2.917-6.573-5.94-13.181-9.1-19.718-.527-1.054-1.019-2.074-1.511-3.128-27.065-55.57-62.565-109.594-113.038-150.331q-5.272-4.165-10.545-8.119-7.908-5.905-16.344-11.318l-3.972-2.531-1.476-.914-1.054-.633-.6-.351c-2.847-1.722-5.764-3.515-8.682-4.991s-5.975-3.163-9-4.675h-.422l-1.2-.562c-2.355-1.2-4.745-2.32-7.03-3.515l-2.46-1.09-.949-.422-3.972-1.652a277.675,277.675,0,0,0-56.027-16.766,258.8,258.8,0,0,0-32.2-3.937,213.178,213.178,0,0,0-48.962,2.636c-2.46.422-4.886.879-7.311,1.406a149.277,149.277,0,0,0-56.765,24.6c-22.109,16.028-37.715,37.5-51.88,59.753l-1.441,2.25c-2.39,3.761-4.71,7.522-7.03,11.283-8.119,13.146-16.239,26.362-24.815,39.331-7.944,12.021-16.274,23.831-25.272,35.149a299.427,299.427,0,0,1-29.525,32.126c-1.582,1.476-3.2,2.952-4.851,4.394A219.572,219.572,0,0,1,411.824,341c-22.073,8.26-45.693,11.986-68.645,7.206h0a91.7,91.7,0,0,1-18.91-6.046c-11.459-5.061-22.671-10.017-33.708-14.411a249.555,249.555,0,0,0-61.616-17.574h0a137.08,137.08,0,0,0-64.99,7.03c-3.515,1.23-6.854,2.636-10.334,4.183a146.781,146.781,0,0,0-41.546,27.8c-1.441,1.371-2.847,2.777-4.253,4.183-30.755,31.423-47.7,74.9-56.8,117.432A534.258,534.258,0,0,0,39.6,592.836Z" transform="matrix(0.616, 0.788, -0.788, 0.616, 1033.204, -84.666)" fill="#ed3b24" opacity="0.05"/>
</svg>
