<svg xmlns="http://www.w3.org/2000/svg" width="19.6" height="13.9" viewBox="0 0 19.6 13.9">
  <g id="Group_68" data-name="Group 68" transform="translate(33.8 6.8)">
    <path id="Path_306" data-name="Path 306" d="M17.4,0H1.8A1.8,1.8,0,0,0,0,1.8v9.9a1.8,1.8,0,0,0,1.8,1.8H17.4a1.8,1.8,0,0,0,1.8-1.8V1.8A1.8,1.8,0,0,0,17.4,0ZM15.683,1.8,9.6,5.543,3.517,1.8ZM1.8,11.7V2.857l7.328,4.51a.9.9,0,0,0,.943,0L17.4,2.857V11.7Z" transform="translate(-33.6 -6.6)" fill="#20214e" stroke="#fff" stroke-width="0.4"/>
  </g>
</svg>
