<svg xmlns="http://www.w3.org/2000/svg" width="24.111" height="24.111" viewBox="0 0 24.111 24.111">
  <path id="facebook-square-brands" d="M21.528,32H2.583A2.583,2.583,0,0,0,0,34.583V53.528a2.583,2.583,0,0,0,2.583,2.583H9.97v-8.2H6.579V44.056H9.97V41.115c0-3.345,1.991-5.193,5.041-5.193a20.541,20.541,0,0,1,2.988.26v3.283H16.317a1.929,1.929,0,0,0-2.175,2.084v2.505h3.7l-.592,3.858h-3.11v8.2h7.387a2.583,2.583,0,0,0,2.583-2.583V34.583A2.583,2.583,0,0,0,21.528,32Z" transform="translate(0 -32)" fill="#20214e"/>
</svg>
