<svg xmlns="http://www.w3.org/2000/svg" width="21.946" height="21.552" viewBox="0 0 21.946 21.552">
  <path id="Path_23" data-name="Path 23" d="M26.058,22.186l-1.912-2.821a.527.527,0,0,0-.382-.215.511.511,0,0,0-.406.191l-1.028,1.387a.5.5,0,0,1-.382.191h-.1V14.058A4.157,4.157,0,0,0,25.2,9.8a4.1,4.1,0,0,0-3.825-4.3,4.1,4.1,0,0,0-3.825,4.3,4.139,4.139,0,0,0,3.347,4.255v5.713l-.813-1.147a.478.478,0,0,0-.765,0L18.5,19.676a.911.911,0,0,1-.861.359.923.923,0,0,1-.765-.55l-.813-1.745a.452.452,0,0,0-.43-.263h0a.452.452,0,0,0-.43.263l-.789,1.626a.951.951,0,0,1-1.649.1l-.526-.813a.453.453,0,0,0-.382-.215.476.476,0,0,0-.382.167l-.574.717V15.4a2.921,2.921,0,0,0,1.434.382,2.877,2.877,0,0,0,2.869-2.869,2.847,2.847,0,0,0-1.912-2.7v-.167a2.869,2.869,0,1,0-5.737,0v.167a2.838,2.838,0,0,0-1.912,2.7,2.877,2.877,0,0,0,2.869,2.869A2.991,2.991,0,0,0,9.946,15.4v5.14l-.263.335a.511.511,0,0,1-.406.191.527.527,0,0,1-.382-.215l-.478-.741a.491.491,0,0,0-.813,0l-1.96,2.8a2.978,2.978,0,0,0,.072,3.466.634.634,0,0,1,.12.143l.072.072a.52.52,0,0,0,.382.167H24.074a3.673,3.673,0,0,0,1.793-.956A2.907,2.907,0,0,0,26.058,22.186ZM18.48,9.8a3.145,3.145,0,0,1,2.869-3.347A3.145,3.145,0,0,1,24.218,9.8a3.238,3.238,0,0,1-2.391,3.3V11.859l.885-1.315a.49.49,0,0,0-.12-.669.474.474,0,0,0-.669.143l-.574.837-.55-.837a.491.491,0,0,0-.669-.143.5.5,0,0,0-.143.669l.884,1.315V13.1A3.238,3.238,0,0,1,18.48,9.8ZM8.44,14.823a1.915,1.915,0,0,1-.335-3.8.5.5,0,0,0,.382-.574,2.662,2.662,0,0,1-.048-.406,1.912,1.912,0,1,1,3.825,0,2.355,2.355,0,0,1-.048.406.5.5,0,0,0,.382.574,1.915,1.915,0,1,1-1.769,3.156v-.693l1.387-.6a.485.485,0,0,0,.263-.622.455.455,0,0,0-.622-.239l-1.028.406V11a.478.478,0,0,0-.956,0V13.15h0v1A1.862,1.862,0,0,1,8.44,14.823ZM23.285,25.365,23,25.82H8.679a1.521,1.521,0,0,1-.143-1.936l.191.167A1.438,1.438,0,0,0,10.52,24l1.243-1.076c.12.143.287.287.454.478a1.923,1.923,0,0,0,2.893-.167l.5-.645.526.693a1.974,1.974,0,0,0,1.339.765,1.9,1.9,0,0,0,1.458-.478L19.7,22.9l1.363,1.2a1.4,1.4,0,0,0,1.745.1l.717-.5A2.158,2.158,0,0,1,23.285,25.365Zm1.865-.191a2.458,2.458,0,0,1-1,.574,3.072,3.072,0,0,0,0-3.012.528.528,0,0,0-.311-.239.554.554,0,0,0-.382.072l-1.219.837a.464.464,0,0,1-.574-.024L19.986,21.9a.447.447,0,0,0-.622,0l-1.076.956a1,1,0,0,1-.741.239.968.968,0,0,1-.669-.382l-.908-1.2a.478.478,0,0,0-.765,0l-.884,1.147a.908.908,0,0,1-.693.359.939.939,0,0,1-.741-.287c-.406-.43-.765-.789-.765-.789a.454.454,0,0,0-.645-.024L9.9,23.286a.5.5,0,0,1-.6.024l-.574-.478a.482.482,0,0,0-.645.072l-.191.239a2.456,2.456,0,0,0-.359,2.677H6.5a.083.083,0,0,1-.024-.048,1.972,1.972,0,0,1-.048-2.319l1.53-2.223.072.12a1.426,1.426,0,0,0,2.319.143l1.387-1.745.167.263a1.907,1.907,0,0,0,1.721.861,1.929,1.929,0,0,0,1.6-1.076l.359-.741.406.837a1.942,1.942,0,0,0,1.53,1.1,1.915,1.915,0,0,0,1.721-.741l.43-.526,1.1,1.554a1.385,1.385,0,0,0,1.147.6,1.406,1.406,0,0,0,1.171-.574l.645-.861,1.554,2.271A2.04,2.04,0,0,1,25.15,25.174Z" transform="translate(-4.901 -5.35)" fill="#20214e" stroke="#20214e" stroke-width="0.3"/>
</svg>
