<svg xmlns="http://www.w3.org/2000/svg" width="414.482" height="305.595" viewBox="0 0 414.482 305.595">
  <g id="Group_19234" data-name="Group 19234" transform="translate(-88.55 -67.739)">
    <g id="Group_19233" data-name="Group 19233" transform="translate(43.706 67.739)">
      <g id="Group_19181" data-name="Group 19181" transform="translate(101.297 35.115)" opacity="0.8">
        <path id="Path_33610" data-name="Path 33610" d="M817.046,535.369a67.533,67.533,0,0,1-1.084,12.08,67.085,67.085,0,0,1-127.32,15.071,65.911,65.911,0,0,1-3.415-9.645,67.542,67.542,0,0,1-.789-31.777c.01-.053.023-.1.033-.157a67.243,67.243,0,0,1,26.177-39.9q2.067-1.5,4.255-2.844a66.707,66.707,0,0,1,35.079-9.9q2.559,0,5.068.191A66.611,66.611,0,0,1,788.266,480.3h0a67.329,67.329,0,0,1,18.4,19.209q1.54,2.434,2.877,5a66.76,66.76,0,0,1,7.5,30.861Z" transform="translate(-682.915 -468.302)" fill="#d7e5ff"/>
        <g id="Group_19180" data-name="Group 19180" transform="translate(1.522 9.271)">
          <path id="Path_33611" data-name="Path 33611" d="M733.106,543.775c-2.676,4.239,1.117,11.6-6.912,9.591s-12.936-2.9-13.381,1.559,6.022,4.463,6.022,9.146-2.9,6.232-7.36,4.008-5.744-5.459-10.929-3.452-8.2.669-9.367-3.345a5.869,5.869,0,0,0-.833-1.756c.01-.053.023-.1.033-.157a67.243,67.243,0,0,1,26.177-39.9q2.067-1.5,4.255-2.844a8.822,8.822,0,0,1,6.721,3.506c4.683,5.8,7.8,2.9,6.691,9.591s.669,7.584,4.459,7.36,8.253-.224,8.7,2.676S735.782,539.536,733.106,543.775Z" transform="translate(-690.346 -516)" fill="#aec3ff"/>
          <path id="Path_33612" data-name="Path 33612" d="M780.744,786.569s-4.048,4.705-7.535,2-2.433-4.394-7.542-2.7-7.355-1.115-9.973,1.014-.493,2.4-2.305,6.907-5.553,5.236-2.66,9.741,8.274,2.187,11.108,4.569,1.91,4.715,5.448,5.685,6.919-2.476,6.988,1.8-1.3,8.446,3.1,12.42,3.575,4.871,8.1,6.807,9.928.191,9.242-2.527-6.515-3.265-6.63-6.333,2.985-2.811,1.742-6.758,2.227-6.075,1.055-8.626-7.855-3.424-7.077-5.995,6.824-.391,7.154-5.825-3.341-7.369-2.8-12.672S781.363,783.312,780.744,786.569Z" transform="translate(-737.515 -727.823)" fill="#aec3ff"/>
          <path id="Path_33613" data-name="Path 33613" d="M1136.85,685.978a67.522,67.522,0,0,1-1.084,12.08,66.7,66.7,0,0,1-10.585,25.729,7.655,7.655,0,0,1-5.363-.144c-8.363-3.345-2.174-12.378,1.171-16.894s-5.185-2.509-11.374-6.691.669-15.389-5.687-13.548-14.051,4.182-17.73-2.007,3.345-7.192.167-12.378,1.84-8.2,8.2-8.7,5.52-5.018,13.381-5.687,7.694,9.367,16.392,8.7,8.306,1.338,8.306,1.338a4.055,4.055,0,0,1,1.817.381A67.188,67.188,0,0,1,1136.85,685.978Z" transform="translate(-1004.241 -628.182)" fill="#aec3ff"/>
          <path id="Path_33614" data-name="Path 33614" d="M1143.287,551.072c-7.233,3.519-10.136-6.052-16.319-3.175-6.232,2.9-5.142-2.676-10.046-6.246s-14.72,2.9-14.275-2.676,7.8-4.014,9.367-8.474,8.7-3.345,8.7-3.345a4.836,4.836,0,0,1,1.3-.295s0,0,0,0a67.329,67.329,0,0,1,18.4,19.209Q1141.951,548.5,1143.287,551.072Z" transform="translate(-1018.182 -524.136)" fill="#aec3ff"/>
          <path id="Path_33615" data-name="Path 33615" d="M935.052,521.266s3.792-5.47-2.23-7.084-5.91.5-10.594,0-6.523,3.125-3.011,7.084,6.356,11.555,9.534,7.506S931.316,521.657,935.052,521.266Z" transform="translate(-870.881 -513.564)" fill="#aec3ff"/>
        </g>
      </g>
      <g id="Group_19183" data-name="Group 19183" transform="translate(137.524 107.989)">
        <path id="Path_33616" data-name="Path 33616" d="M1364.111,1144.052l-10.272,122.138s-1.076,7.4,4.431,7.417c9.055.021,45.069,0,45.069,0s-6.815-1.542-6.732-5.009c.1-4.088,12.006-125.7,12.006-125.7Z" transform="translate(-1252.569 -1077.589)" fill="#7599ea"/>
        <path id="Path_33617" data-name="Path 33617" d="M1418.221,1262.836c-1.781.005-36.647.064-45.465-.049-3.843-.048-4.517-3.417-4.549-5.6a10.959,10.959,0,0,1,.117-1.818l.267-3.175.681-8.091.6-7.149.773-9.186.651-7.754,7.3-86.787,44.5-1.155s-5.016,50.9-8.563,87.942c-.4,4.128-.773,8.086-1.121,11.78q-.17,1.77-.327,3.456c-.329,3.505-.63,6.724-.891,9.566-.138,1.5-.266,2.89-.38,4.165-.453,5-.718,8.187-.722,8.793a5.136,5.136,0,0,0,.087.989C1411.909,1262.66,1417.552,1262.836,1418.221,1262.836Z" transform="translate(-1264.06 -1068.985)" fill="#90aff4"/>
        <path id="Path_33618" data-name="Path 33618" d="M876.7,824.069l25.021,100.5,3.426,13.764L916.8,985.15h216.506l-42.953-161.081Z" transform="translate(-873.235 -824.069)" fill="#aec3ff"/>
        <path id="Path_33619" data-name="Path 33619" d="M863.24,824.068l-3.468,1.156,38.958,163.422,4.61-3.5Z" transform="translate(-859.772 -824.068)" fill="#90aff4"/>
        <path id="Path_33620" data-name="Path 33620" d="M1049.966,1613.958h215.173l5.942-3.5h-216.5Z" transform="translate(-1011.007 -1449.38)" fill="#7599ea"/>
        <rect id="Rectangle_5177" data-name="Rectangle 5177" width="46.588" height="2.214" transform="translate(161.109 196.065) rotate(180)" fill="#aec3ff"/>
        <path id="Path_33621" data-name="Path 33621" d="M1417.464,1627.525l-.24,1.693-43.814,8.851.6-7.148.287-3.4Z" transform="translate(-1268.198 -1462.948)" fill="#5888dd"/>
        <path id="Path_33622" data-name="Path 33622" d="M1418.226,1716.672c-1.781,0-36.647.064-45.466-.049-3.843-.048-4.517-3.417-4.548-5.6l43.607-8.2c-.453,5-.718,8.187-.722,8.793a5.136,5.136,0,0,0,.087.989C1411.915,1716.5,1417.558,1716.672,1418.226,1716.672Z" transform="translate(-1264.065 -1522.82)" fill="#5888dd" opacity="0.4"/>
        <path id="Path_33623" data-name="Path 33623" d="M876.7,824.068h213.653l34.665,129.459H908.93Z" transform="translate(-873.234 -824.068)" fill="#c2d5ff"/>
        <path id="Path_33624" data-name="Path 33624" d="M1149.3,974.838H949.251L942.1,946.361l-2.765-11.019-1.128-4.493-7.347-29.265-.381-1.523L926.6,884.59l-1.737-6.921-1.482-5.9L919.9,857.924h197.161l3.816,13.841,1.627,5.9,1.908,6.921,12.57,45.6v0l1.066,3.863.5,1.794,8.679,31.481Z" transform="translate(-907.587 -850.989)" fill="#739af0"/>
        <path id="Path_33625" data-name="Path 33625" d="M1120.885,871.764h-197.5l-3.474-13.842h197.161Z" transform="translate(-907.59 -850.987)" fill="#607cf4"/>
        <g id="Group_19182" data-name="Group 19182" transform="translate(20.421 11.46)">
          <path id="Path_33626" data-name="Path 33626" d="M959.519,881.744a1.307,1.307,0,0,1,1.3-1.73,2.364,2.364,0,0,1,2.162,1.73,1.307,1.307,0,0,1-1.3,1.73A2.364,2.364,0,0,1,959.519,881.744Z" transform="translate(-959.466 -880.014)" fill="#e9f3fe"/>
          <path id="Path_33627" data-name="Path 33627" d="M987.588,881.744a1.307,1.307,0,0,1,1.3-1.73,2.364,2.364,0,0,1,2.162,1.73,1.307,1.307,0,0,1-1.3,1.73A2.364,2.364,0,0,1,987.588,881.744Z" transform="translate(-981.785 -880.014)" fill="#e9f3fe"/>
          <path id="Path_33628" data-name="Path 33628" d="M1017.811,881.744a1.307,1.307,0,0,1,1.3-1.73,2.364,2.364,0,0,1,2.162,1.73,1.307,1.307,0,0,1-1.3,1.73A2.364,2.364,0,0,1,1017.811,881.744Z" transform="translate(-1005.818 -880.014)" fill="#e9f3fe"/>
        </g>
        <path id="Path_33629" data-name="Path 33629" d="M1115.213,1456.079l-73.227,32-7.945-32Z" transform="translate(-998.344 -1326.62)" fill="#90aff4" opacity="0.5"/>
      </g>
      <g id="Group_19188" data-name="Group 19188" transform="translate(184.913 60.674)">
        <g id="Group_19184" data-name="Group 19184">
          <path id="Path_33630" data-name="Path 33630" d="M1096.927,606.863a8.452,8.452,0,0,0-5.806,7.737v74.66a47.063,47.063,0,0,0,19.406,38.289l43.859,28.107a9.271,9.271,0,0,0,9.8,0l43.858-28.107a47.062,47.062,0,0,0,19.406-38.289V614.8a8.518,8.518,0,0,0-6.1-7.841c-53.278-18.24-74.635-18.727-124.432-.1Z" transform="translate(-1091.121 -593.083)" fill="#f99746"/>
          <path id="Path_33631" data-name="Path 33631" d="M1485.978,607.075c-25.935-8.879-44.3-13.538-62.072-13.845V757.176a9.132,9.132,0,0,0,4.9-1.4l43.858-28.107a47.062,47.062,0,0,0,19.406-38.289V614.915a8.518,8.518,0,0,0-6.095-7.839Z" transform="translate(-1355.74 -593.2)" fill="#f78248"/>
        </g>
        <g id="Group_19187" data-name="Group 19187" transform="translate(34.407 37.763)">
          <g id="Group_19185" data-name="Group 19185" transform="translate(12.026)">
            <path id="Path_33632" data-name="Path 33632" d="M1344,811.831h-9.975a16.243,16.243,0,0,1-16.224-16.224v-1.94a16.244,16.244,0,0,1,16.224-16.226H1344a16.244,16.244,0,0,1,16.226,16.226v1.94A16.243,16.243,0,0,1,1344,811.831Zm-9.975-27.9a9.748,9.748,0,0,0-9.737,9.739v1.94a9.748,9.748,0,0,0,9.737,9.737H1344a9.748,9.748,0,0,0,9.739-9.737v-1.94a9.748,9.748,0,0,0-9.739-9.739Z" transform="translate(-1317.803 -777.441)" fill="#ffdaa4"/>
          </g>
          <path id="Rectangle_5178" data-name="Rectangle 5178" d="M7.787,0H57.545A9.975,9.975,0,0,1,67.52,9.975V25.994A32.706,32.706,0,0,1,34.814,58.7h0A34.814,34.814,0,0,1,0,23.886V7.787A7.787,7.787,0,0,1,7.787,0Z" transform="translate(0 21.008)" fill="#ffdaa4"/>
          <g id="Group_19186" data-name="Group 19186" transform="translate(22.538 27.401)">
            <circle id="Ellipse_582" data-name="Ellipse 582" cx="8.804" cy="8.804" r="8.804" transform="translate(0 5.828) rotate(-19.33)" fill="#f78248"/>
            <path id="Path_33633" data-name="Path 33633" d="M1416.5,986.051h0a1.913,1.913,0,0,1,1.907,1.907v14.673a1.913,1.913,0,0,1-1.907,1.908h0a1.913,1.913,0,0,1-1.908-1.908V987.958A1.913,1.913,0,0,1,1416.5,986.051Z" transform="translate(-1405.28 -970.721)" fill="#f78248"/>
          </g>
        </g>
      </g>
      <g id="Group_19191" data-name="Group 19191" transform="translate(323.181 0)">
        <g id="Group_19189" data-name="Group 19189" transform="translate(28.41 25.871)">
          <path id="Path_33634" data-name="Path 33634" d="M1906.422,426.947a2.313,2.313,0,0,0-1.589,2.118V449.5a12.881,12.881,0,0,0,5.311,10.48l12,7.693a2.538,2.538,0,0,0,2.684,0l12-7.693a12.881,12.881,0,0,0,5.311-10.48v-20.38a2.332,2.332,0,0,0-1.668-2.146c-14.582-4.992-20.427-5.126-34.057-.026Z" transform="translate(-1904.833 -423.175)" fill="#aec3ff"/>
          <path id="Path_33635" data-name="Path 33635" d="M2012.9,427.005c-7.1-2.43-12.126-3.705-16.989-3.789v44.871a2.5,2.5,0,0,0,1.342-.384l12-7.693a12.881,12.881,0,0,0,5.312-10.48v-20.38a2.332,2.332,0,0,0-1.668-2.146Z" transform="translate(-1977.258 -423.208)" fill="#5888dd" opacity="0.4"/>
        </g>
        <g id="Group_19190" data-name="Group 19190">
          <path id="Path_33636" data-name="Path 33636" d="M1971.584,301.108l4.713.619-3.359,3.364.867,4.674-4.237-2.155-4.177,2.269.74-4.7-3.449-3.271,4.694-.748,2.046-4.291Z" transform="translate(-1922.423 -296.875)" fill="#f99746"/>
          <path id="Path_33637" data-name="Path 33637" d="M1971.584,697.588l4.713.62-3.359,3.364.867,4.674-4.237-2.155-4.177,2.269.74-4.7-3.449-3.271,4.694-.747,2.046-4.291Z" transform="translate(-1922.423 -612.141)" fill="#f99746"/>
          <path id="Path_33638" data-name="Path 33638" d="M1802.149,398.469l4.713.62-3.359,3.364.867,4.674-4.237-2.155-4.177,2.269.74-4.7-3.449-3.271,4.694-.747,2.046-4.291Z" transform="translate(-1787.694 -374.292)" fill="#f99746"/>
          <path id="Path_33639" data-name="Path 33639" d="M2143.368,398.469l4.713.62-3.358,3.364.867,4.674-4.237-2.155-4.177,2.269.74-4.7-3.449-3.271,4.694-.747,2.045-4.291Z" transform="translate(-2059.02 -374.292)" fill="#f99746"/>
          <path id="Path_33640" data-name="Path 33640" d="M1802.149,601.4l4.713.62-3.359,3.364.867,4.674-4.237-2.155-4.177,2.269.74-4.7-3.449-3.272,4.694-.747,2.046-4.291Z" transform="translate(-1787.694 -535.656)" fill="#f99746"/>
          <path id="Path_33641" data-name="Path 33641" d="M2143.368,601.4l4.713.62-3.358,3.364.867,4.674-4.237-2.155-4.177,2.269.74-4.7-3.449-3.272,4.694-.747,2.045-4.291Z" transform="translate(-2059.02 -535.656)" fill="#f99746"/>
          <path id="Path_33642" data-name="Path 33642" d="M1875.6,327.306l4.713.62-3.359,3.364.867,4.674-4.237-2.155-4.177,2.269.74-4.7-3.449-3.271,4.694-.747,2.046-4.291Z" transform="translate(-1846.102 -317.706)" fill="#f99746"/>
          <path id="Path_33643" data-name="Path 33643" d="M2072.572,327.306l4.713.62-3.358,3.364.867,4.674-4.237-2.155-4.177,2.269.74-4.7-3.449-3.271,4.694-.747,2.046-4.291Z" transform="translate(-2002.724 -317.706)" fill="#f99746"/>
          <path id="Path_33644" data-name="Path 33644" d="M1875.6,672.108l4.713.62-3.359,3.364.867,4.674-4.237-2.155-4.177,2.269.74-4.7-3.449-3.271,4.694-.747,2.046-4.291Z" transform="translate(-1846.102 -591.88)" fill="#f99746"/>
          <path id="Path_33645" data-name="Path 33645" d="M2072.572,672.108l4.713.62-3.358,3.364.867,4.674-4.237-2.155-4.177,2.269.74-4.7-3.449-3.271,4.694-.747,2.046-4.291Z" transform="translate(-2002.724 -591.88)" fill="#f99746"/>
          <path id="Path_33646" data-name="Path 33646" d="M1775.039,505.213l4.713.62-3.358,3.364.867,4.674-4.237-2.155-4.177,2.269.74-4.7-3.449-3.271,4.694-.747,2.046-4.291Z" transform="translate(-1766.138 -459.171)" fill="#f99746"/>
          <path id="Path_33647" data-name="Path 33647" d="M2176.6,505.213l4.713.62-3.358,3.364.867,4.674-4.237-2.155-4.177,2.269.74-4.7-3.449-3.271,4.694-.747,2.046-4.291Z" transform="translate(-2085.445 -459.171)" fill="#f99746"/>
        </g>
      </g>
      <g id="Group_19205" data-name="Group 19205" transform="translate(44.845 138.566)">
        <g id="Group_19199" data-name="Group 19199" transform="translate(17.255 20.875)">
          <g id="Group_19198" data-name="Group 19198">
            <g id="Group_19194" data-name="Group 19194" transform="translate(8.721)">
              <g id="Group_19192" data-name="Group 19192" transform="translate(4.39)">
                <path id="Path_33648" data-name="Path 33648" d="M570.573,1075.386a.445.445,0,1,1-.63,0A.445.445,0,0,1,570.573,1075.386Z" transform="translate(-566.894 -1075.257)" fill="#d5e5fb"/>
                <path id="Path_33649" data-name="Path 33649" d="M563.491,1082.534a.445.445,0,1,1-.63,0A.446.446,0,0,1,563.491,1082.534Z" transform="translate(-561.263 -1080.941)" fill="#d5e5fb"/>
                <path id="Path_33650" data-name="Path 33650" d="M555.687,1089.779a.445.445,0,1,1,0,.63A.446.446,0,0,1,555.687,1089.779Z" transform="translate(-555.558 -1086.699)" fill="#d5e5fb"/>
              </g>
              <g id="Group_19193" data-name="Group 19193" transform="translate(0 4.431)">
                <path id="Path_33651" data-name="Path 33651" d="M549.142,1097.018a.445.445,0,1,1-.63,0A.445.445,0,0,1,549.142,1097.018Z" transform="translate(-545.463 -1096.889)" fill="#d5e5fb"/>
                <path id="Path_33652" data-name="Path 33652" d="M542.061,1104.166a.445.445,0,1,1-.63,0A.445.445,0,0,1,542.061,1104.166Z" transform="translate(-539.833 -1102.573)" fill="#d5e5fb"/>
                <path id="Path_33653" data-name="Path 33653" d="M534.256,1111.411a.445.445,0,1,1,0,.63A.445.445,0,0,1,534.256,1111.411Z" transform="translate(-534.127 -1108.331)" fill="#d5e5fb"/>
              </g>
            </g>
            <g id="Group_19197" data-name="Group 19197" transform="translate(0 8.803)">
              <g id="Group_19195" data-name="Group 19195" transform="translate(4.39)">
                <path id="Path_33654" data-name="Path 33654" d="M528,1118.36a.445.445,0,1,1-.63,0A.445.445,0,0,1,528,1118.36Z" transform="translate(-524.32 -1118.231)" fill="#d5e5fb"/>
                <path id="Path_33655" data-name="Path 33655" d="M520.918,1125.508a.445.445,0,1,1-.63,0A.445.445,0,0,1,520.918,1125.508Z" transform="translate(-518.689 -1123.915)" fill="#d5e5fb"/>
                <path id="Path_33656" data-name="Path 33656" d="M513.113,1132.752a.445.445,0,1,1,0,.63A.445.445,0,0,1,513.113,1132.752Z" transform="translate(-512.984 -1129.673)" fill="#d5e5fb"/>
              </g>
              <g id="Group_19196" data-name="Group 19196" transform="translate(0 4.431)">
                <path id="Path_33657" data-name="Path 33657" d="M506.569,1139.991a.445.445,0,1,1-.63,0A.445.445,0,0,1,506.569,1139.991Z" transform="translate(-502.89 -1139.862)" fill="#d5e5fb"/>
                <path id="Path_33658" data-name="Path 33658" d="M499.487,1147.14a.445.445,0,1,1-.63,0A.445.445,0,0,1,499.487,1147.14Z" transform="translate(-497.259 -1145.546)" fill="#d5e5fb"/>
                <path id="Path_33659" data-name="Path 33659" d="M491.683,1154.384a.445.445,0,1,1,0,.63A.445.445,0,0,1,491.683,1154.384Z" transform="translate(-491.554 -1151.305)" fill="#d5e5fb"/>
              </g>
            </g>
          </g>
        </g>
        <g id="Group_19202" data-name="Group 19202" transform="translate(33.347 0)">
          <g id="Group_19200" data-name="Group 19200" transform="translate(0)">
            <circle id="Ellipse_583" data-name="Ellipse 583" cx="9.713" cy="9.713" r="9.713" transform="translate(0 19.167) rotate(-80.643)" fill="#c6dcf7"/>
          </g>
          <g id="Group_19201" data-name="Group 19201" transform="translate(5.707 4.148)">
            <path id="Path_33660" data-name="Path 33660" d="M609.392,996.714a3.117,3.117,0,1,1,3.117,3.117A3.117,3.117,0,0,1,609.392,996.714Z" transform="translate(-607.054 -993.597)" fill="#ebf3fa"/>
            <path id="Path_33661" data-name="Path 33661" d="M603.433,1024.035a5.455,5.455,0,0,0-5.456,5.455h10.911A5.455,5.455,0,0,0,603.433,1024.035Z" transform="translate(-597.977 -1017.8)" fill="#ebf3fa"/>
          </g>
        </g>
        <g id="Group_19204" data-name="Group 19204" transform="translate(0 38.665)">
          <path id="Path_33662" data-name="Path 33662" d="M416.661,1164.576l-.36-.891a2.528,2.528,0,0,0-2.344-1.581h-6.64v22.2h27.467v-17.987H419.241A2.782,2.782,0,0,1,416.661,1164.576Z" transform="translate(-407.317 -1162.103)" fill="#c6dcf7"/>
          <g id="Group_19203" data-name="Group 19203" transform="translate(8.159 6.738)">
            <path id="Path_33663" data-name="Path 33663" d="M456.833,1198.4h-.918a2.617,2.617,0,0,0,.041-.459v-.314a2.627,2.627,0,0,0-2.624-2.624h-1.613a2.627,2.627,0,0,0-2.624,2.624v.314a2.62,2.62,0,0,0,.041.459h-1.02a.965.965,0,0,0-.965.966v4.211a4.316,4.316,0,0,0,4.316,4.316h2.548a4.055,4.055,0,0,0,4.055-4.055v-4.2A1.237,1.237,0,0,0,456.833,1198.4Zm-3.914,4.238v1.957a.309.309,0,0,1-.617,0v-1.957a1.424,1.424,0,1,1,.617,0Zm1.988-4.7a1.564,1.564,0,0,1-.069.459h-4.625a1.564,1.564,0,0,1-.069-.459v-.314a1.577,1.577,0,0,1,1.575-1.575h1.613a1.577,1.577,0,0,1,1.575,1.575Z" transform="translate(-447.15 -1194.998)" fill="#ebf3fa"/>
          </g>
        </g>
      </g>
      <g id="Group_19207" data-name="Group 19207" transform="translate(126.912 235.78)">
        <path id="Path_33664" data-name="Path 33664" d="M836.748,1455.555l-1.109-2.746a7.788,7.788,0,0,0-7.221-4.872H807.965v68.386h84.609v-55.408H844.7A8.571,8.571,0,0,1,836.748,1455.555Z" transform="translate(-807.965 -1447.938)" fill="#f99746"/>
        <g id="Group_19206" data-name="Group 19206" transform="translate(26.362 21.265)">
          <path id="Path_33665" data-name="Path 33665" d="M964.789,1561.621h-2.667a7.641,7.641,0,0,0,.12-1.334v-.911a7.631,7.631,0,0,0-7.622-7.623h-4.685a7.629,7.629,0,0,0-7.62,7.623v.911a7.623,7.623,0,0,0,.118,1.334h-2.964a2.8,2.8,0,0,0-2.8,2.806v12.233A12.536,12.536,0,0,0,949.2,1589.2h7.4a11.777,11.777,0,0,0,11.779-11.779v-12.2A3.592,3.592,0,0,0,964.789,1561.621Zm-11.37,12.311v5.683a.9.9,0,0,1-1.793,0v-5.683a4.136,4.136,0,1,1,1.793,0Zm5.775-13.645a4.542,4.542,0,0,1-.2,1.334H945.56a4.545,4.545,0,0,1-.2-1.334v-.911a4.579,4.579,0,0,1,4.575-4.575h4.685a4.579,4.579,0,0,1,4.575,4.575Z" transform="translate(-936.664 -1551.753)" fill="#ffdaa4"/>
        </g>
      </g>
      <g id="Group_19208" data-name="Group 19208" transform="translate(327.056 135.682)">
        <path id="Path_33666" data-name="Path 33666" d="M1926.182,1087.079s12.595,13.058,13.189,17.973-6.033,12.587-6.033,12.587Z" transform="translate(-1897.275 -1060.898)" fill="#ed7d2b"/>
        <path id="Path_33667" data-name="Path 33667" d="M1832.28,1739.074s-.444,6.926-1.785,7.023c-.178.013-6.8,0-6.8,0l-8.45-.067a2.741,2.741,0,0,1,2.53-2.461c2.471-.425,6.609-2.152,8.112-5.413C1827.472,1734.723,1832.28,1739.074,1832.28,1739.074Z" transform="translate(-1809.064 -1577.561)" fill="#0e2644"/>
        <path id="Path_33668" data-name="Path 33668" d="M1924.161,1739.273s-.445,6.926-1.785,7.023c-.178.013-6.8,0-6.8,0l-8.45-.067a2.742,2.742,0,0,1,2.53-2.461c2.471-.425,6.609-2.152,8.112-5.413C1919.353,1734.922,1924.161,1739.273,1924.161,1739.273Z" transform="translate(-1882.124 -1577.72)" fill="#0e2644"/>
        <path id="Path_33669" data-name="Path 33669" d="M1853.5,1343.284s2.179,14.139,10.369,39.248,9.29,35.976,9.29,35.976l8.844-.229s.135-27.421-3.637-40.046-.721-45.488-.721-45.488Z" transform="translate(-1839.483 -1256.243)" fill="#163560"/>
        <path id="Path_33670" data-name="Path 33670" d="M1832.558,1336.224a343.1,343.1,0,0,0,3.269,47.459c3.629,26.16,2.355,37.259,2.355,37.259l8.826.313s5.331-26.151,3.848-39.244,7.321-44.9,7.321-44.9Z" transform="translate(-1822.821 -1259.009)" fill="#1c468a"/>
        <path id="Path_33671" data-name="Path 33671" d="M1871.886,1052.182l-4.709,3.073-6.794-1.281c.1-.548.549-2.821.962-4.88.025-.121.05-.243.073-.361.354-1.752.66-3.257.66-3.257l6.354-2.787,2.369-1.039c-.006.037-.188,1.945-.213,2.223A16.181,16.181,0,0,0,1871.886,1052.182Z" transform="translate(-1844.954 -1024.775)" fill="#ffb27d"/>
        <path id="Path_33672" data-name="Path 33672" d="M1858.336,1077.033c.132-.055,8.19-2.414,9.064-2.123s1.388,1.984,1.388,1.984l-13.178,2.949A6.541,6.541,0,0,1,1858.336,1077.033Z" transform="translate(-1841.159 -1051.202)" fill="#ed7d2b"/>
        <path id="Path_33673" data-name="Path 33673" d="M1855.711,1138.632c-1.378,6.224-24.1,6.913-29.939,1.248-.665-.646-.691-3.643-.431-7.684.509-7.895,2.112-19.769,2.187-25.837a48.013,48.013,0,0,1,.988-8.647,70.231,70.231,0,0,1,2.9-10.346s11.1-3.563,13.178-2.948C1854.593,1087.378,1857.09,1132.408,1855.711,1138.632Z" transform="translate(-1816.968 -1058.725)" fill="#f99746"/>
        <path id="Path_33674" data-name="Path 33674" d="M1825.935,1179.566c.509-7.895,2.112-19.769,2.187-25.837a48.018,48.018,0,0,1,.988-8.647l6.677-1.163S1842.254,1170.587,1825.935,1179.566Z" transform="translate(-1817.562 -1106.095)" fill="#ed7d2b"/>
        <path id="Path_33675" data-name="Path 33675" d="M1836.283,1260.24a1.571,1.571,0,0,1-.5,1.817,3.045,3.045,0,0,0-1.362,2.774c.217.865,2.31,2.28,3.037,2.054s2.208-1.361,2.05-1.817,1-4-.765-5.368A1.429,1.429,0,0,0,1836.283,1260.24Z" transform="translate(-1824.271 -1197.767)" fill="#ffb27d"/>
        <path id="Path_33676" data-name="Path 33676" d="M1804.61,1091.343s-6.512,1.2-11.715,8.836-8.628,13.307-7.678,16.064,9.638,12.33,11.139,12.333,3.927-1.083,4.068-3.54c0,0-6.112-9.2-4.9-10.577.518-.587,7.975-6.614,9.032-3.882C1806.3,1115.1,1804.61,1091.343,1804.61,1091.343Z" transform="translate(-1785.058 -1064.289)" fill="#f99746"/>
        <path id="Path_33677" data-name="Path 33677" d="M1873.845,1047.991c-1.4,2.358-6.6,4.389-8.766,5.135.025-.122.05-.243.073-.362.354-1.752.659-3.257.659-3.257l6.354-2.787C1873.568,1046.7,1874.422,1047.02,1873.845,1047.991Z" transform="translate(-1848.688 -1028.807)" fill="#fca56b"/>
        <path id="Path_33678" data-name="Path 33678" d="M1852.05,993.133s10.218,3.212,12.12-3.182,4.5-10.286-1.941-12.607-8.443-.26-9.6,1.72S1849.441,992.133,1852.05,993.133Z" transform="translate(-1837.319 -972.823)" fill="#ffb27d"/>
        <path id="Path_33679" data-name="Path 33679" d="M1858.077,964.891s.636,7.447,2.176,7.127,2.937-.557,2.707,1.687-2.371,4.831,2.373,5.238,11.593-11.816,10.294-14.136C1871.881,958.115,1852.658,956.724,1858.077,964.891Z" transform="translate(-1842.36 -959.266)" fill="#163560"/>
      </g>
      <g id="Group_19231" data-name="Group 19231" transform="translate(389.021 100.681)">
        <g id="Group_19230" data-name="Group 19230" transform="translate(10.828)">
          <g id="Group_19216" data-name="Group 19216" transform="translate(25.225 21.148)">
            <g id="Group_19215" data-name="Group 19215">
              <g id="Group_19211" data-name="Group 19211">
                <g id="Group_19209" data-name="Group 19209">
                  <path id="Path_33680" data-name="Path 33680" d="M2263.72,891.779a.485.485,0,1,0,.686,0A.485.485,0,0,0,2263.72,891.779Z" transform="translate(-2263.577 -891.638)" fill="#d5e5fb"/>
                  <path id="Path_33681" data-name="Path 33681" d="M2271.429,899.56a.485.485,0,1,0,.686,0A.485.485,0,0,0,2271.429,899.56Z" transform="translate(-2269.707 -897.826)" fill="#d5e5fb"/>
                  <path id="Path_33682" data-name="Path 33682" d="M2279.926,907.448a.485.485,0,1,0,0,.686A.485.485,0,0,0,2279.926,907.448Z" transform="translate(-2275.918 -904.095)" fill="#d5e5fb"/>
                </g>
                <g id="Group_19210" data-name="Group 19210" transform="translate(4.779 4.824)">
                  <path id="Path_33683" data-name="Path 33683" d="M2287.051,915.329a.485.485,0,1,0,.685,0A.485.485,0,0,0,2287.051,915.329Z" transform="translate(-2286.907 -915.189)" fill="#d5e5fb"/>
                  <path id="Path_33684" data-name="Path 33684" d="M2294.761,923.111a.485.485,0,1,0,.685,0A.485.485,0,0,0,2294.761,923.111Z" transform="translate(-2293.038 -921.376)" fill="#d5e5fb"/>
                  <path id="Path_33685" data-name="Path 33685" d="M2303.257,931a.485.485,0,1,0,0,.686A.485.485,0,0,0,2303.257,931Z" transform="translate(-2299.249 -927.646)" fill="#d5e5fb"/>
                </g>
              </g>
              <g id="Group_19214" data-name="Group 19214" transform="translate(9.494 9.583)">
                <g id="Group_19212" data-name="Group 19212">
                  <path id="Path_33686" data-name="Path 33686" d="M2310.069,938.564a.485.485,0,1,0,.686,0A.485.485,0,0,0,2310.069,938.564Z" transform="translate(-2309.925 -938.423)" fill="#d5e5fb"/>
                  <path id="Path_33687" data-name="Path 33687" d="M2317.778,946.346a.485.485,0,1,0,.686,0A.485.485,0,0,0,2317.778,946.346Z" transform="translate(-2316.056 -944.612)" fill="#d5e5fb"/>
                  <path id="Path_33688" data-name="Path 33688" d="M2326.275,954.233a.485.485,0,1,0,0,.686A.485.485,0,0,0,2326.275,954.233Z" transform="translate(-2322.267 -950.881)" fill="#d5e5fb"/>
                </g>
                <g id="Group_19213" data-name="Group 19213" transform="translate(4.779 4.824)">
                  <path id="Path_33689" data-name="Path 33689" d="M2333.4,962.114a.485.485,0,1,0,.686,0A.485.485,0,0,0,2333.4,962.114Z" transform="translate(-2333.257 -961.974)" fill="#d5e5fb"/>
                  <path id="Path_33690" data-name="Path 33690" d="M2341.11,969.9a.485.485,0,1,0,.686,0A.485.485,0,0,0,2341.11,969.9Z" transform="translate(-2339.387 -968.162)" fill="#d5e5fb"/>
                  <path id="Path_33691" data-name="Path 33691" d="M2349.607,977.783a.485.485,0,1,0,0,.686A.485.485,0,0,0,2349.607,977.783Z" transform="translate(-2345.598 -974.431)" fill="#d5e5fb"/>
                </g>
              </g>
            </g>
          </g>
          <g id="Group_19224" data-name="Group 19224" transform="translate(0 26.197)">
            <g id="Group_19223" data-name="Group 19223">
              <g id="Group_19219" data-name="Group 19219" transform="translate(3.026)">
                <g id="Group_19217" data-name="Group 19217" transform="translate(1.523)">
                  <path id="Path_33692" data-name="Path 33692" d="M2168.179,916.3a.485.485,0,1,0,.364.581A.484.484,0,0,0,2168.179,916.3Z" transform="translate(-2166.572 -916.285)" fill="#d5e5fb"/>
                  <path id="Path_33693" data-name="Path 33693" d="M2165.721,926.973a.485.485,0,1,0,.364.581A.485.485,0,0,0,2165.721,926.973Z" transform="translate(-2164.617 -924.774)" fill="#d5e5fb"/>
                  <path id="Path_33694" data-name="Path 33694" d="M2163.595,938.369a.485.485,0,1,0-.582.364A.485.485,0,0,0,2163.595,938.369Z" transform="translate(-2162.637 -933.373)" fill="#d5e5fb"/>
                </g>
                <g id="Group_19218" data-name="Group 19218" transform="translate(0 6.617)">
                  <path id="Path_33695" data-name="Path 33695" d="M2160.742,948.6a.485.485,0,1,0,.363.581A.485.485,0,0,0,2160.742,948.6Z" transform="translate(-2159.135 -948.59)" fill="#d5e5fb"/>
                  <path id="Path_33696" data-name="Path 33696" d="M2158.284,959.278a.485.485,0,1,0,.364.581A.484.484,0,0,0,2158.284,959.278Z" transform="translate(-2157.181 -957.079)" fill="#d5e5fb"/>
                  <path id="Path_33697" data-name="Path 33697" d="M2156.158,970.675a.485.485,0,1,0-.581.364A.485.485,0,0,0,2156.158,970.675Z" transform="translate(-2155.201 -965.679)" fill="#d5e5fb"/>
                </g>
              </g>
              <g id="Group_19222" data-name="Group 19222" transform="translate(0 13.146)">
                <g id="Group_19220" data-name="Group 19220" transform="translate(1.523)">
                  <path id="Path_33698" data-name="Path 33698" d="M2153.4,980.476a.485.485,0,1,0,.364.581A.485.485,0,0,0,2153.4,980.476Z" transform="translate(-2151.797 -980.463)" fill="#d5e5fb"/>
                  <path id="Path_33699" data-name="Path 33699" d="M2150.947,991.151a.485.485,0,1,0,.363.581A.485.485,0,0,0,2150.947,991.151Z" transform="translate(-2149.844 -988.952)" fill="#d5e5fb"/>
                  <path id="Path_33700" data-name="Path 33700" d="M2148.822,1002.548a.485.485,0,1,0-.581.364A.485.485,0,0,0,2148.822,1002.548Z" transform="translate(-2147.864 -997.552)" fill="#d5e5fb"/>
                </g>
                <g id="Group_19221" data-name="Group 19221" transform="translate(0 6.617)">
                  <path id="Path_33701" data-name="Path 33701" d="M2145.968,1012.782a.485.485,0,1,0,.364.581A.485.485,0,0,0,2145.968,1012.782Z" transform="translate(-2144.361 -1012.769)" fill="#d5e5fb"/>
                  <path id="Path_33702" data-name="Path 33702" d="M2143.511,1023.457a.485.485,0,1,0,.364.581A.485.485,0,0,0,2143.511,1023.457Z" transform="translate(-2142.408 -1021.258)" fill="#d5e5fb"/>
                  <path id="Path_33703" data-name="Path 33703" d="M2141.385,1034.853a.485.485,0,1,0-.582.364A.485.485,0,0,0,2141.385,1034.853Z" transform="translate(-2140.427 -1029.857)" fill="#d5e5fb"/>
                </g>
              </g>
            </g>
          </g>
          <g id="Group_19227" data-name="Group 19227" transform="translate(3.401)">
            <g id="Group_19225" data-name="Group 19225">
              <path id="Path_33704" data-name="Path 33704" d="M2178.179,798.967a10.574,10.574,0,1,0-10.574,10.574A10.574,10.574,0,0,0,2178.179,798.967Z" transform="translate(-2157.031 -788.393)" fill="#c6dcf7"/>
            </g>
            <g id="Group_19226" data-name="Group 19226" transform="translate(4.635 2.938)">
              <path id="Path_33705" data-name="Path 33705" d="M2198.873,806.13a3.394,3.394,0,1,0-3.394,3.394A3.394,3.394,0,0,0,2198.873,806.13Z" transform="translate(-2189.54 -802.736)" fill="#ebf3fa"/>
              <path id="Path_33706" data-name="Path 33706" d="M2185.6,835.873a5.939,5.939,0,0,1,5.939,5.939h-11.879A5.939,5.939,0,0,1,2185.6,835.873Z" transform="translate(-2179.658 -829.085)" fill="#ebf3fa"/>
            </g>
          </g>
          <g id="Group_19229" data-name="Group 19229" transform="translate(29.573 40.515)">
            <path id="Path_33707" data-name="Path 33707" d="M2294.976,988.878l-.392-.97a2.753,2.753,0,0,0-2.552-1.722H2284.8v24.17h29.9V990.773h-16.922A3.028,3.028,0,0,1,2294.976,988.878Z" transform="translate(-2284.803 -986.186)" fill="#c6dcf7"/>
            <g id="Group_19228" data-name="Group 19228" transform="translate(8.883 7.336)">
              <path id="Path_33708" data-name="Path 33708" d="M2338.71,1025.7h-1a2.863,2.863,0,0,0,.045-.5v-.342A2.86,2.86,0,0,0,2334.9,1022h-1.756a2.86,2.86,0,0,0-2.856,2.857v.342a2.863,2.863,0,0,0,.044.5h-1.111a1.051,1.051,0,0,0-1.051,1.052v4.585a4.7,4.7,0,0,0,4.7,4.7h2.774a4.415,4.415,0,0,0,4.415-4.415v-4.574A1.347,1.347,0,0,0,2338.71,1025.7Zm-4.261,4.615v2.13a.336.336,0,0,1-.672,0v-2.13a1.55,1.55,0,1,1,.672,0Zm2.165-5.115a1.693,1.693,0,0,1-.075.5H2331.5a1.709,1.709,0,0,1-.075-.5v-.342a1.716,1.716,0,0,1,1.715-1.714h1.756a1.716,1.716,0,0,1,1.715,1.714Z" transform="translate(-2328.169 -1022)" fill="#ebf3fa"/>
            </g>
          </g>
        </g>
        <path id="Path_33709" data-name="Path 33709" d="M2087.566,1072.494c0,5.4,9.146,15.258,9.146,15.258s9.143-9.858,9.143-15.258-4.094-9.775-9.143-9.775S2087.566,1067.1,2087.566,1072.494Zm3.84-.991a5.306,5.306,0,1,1,5.306,5.306A5.306,5.306,0,0,1,2091.406,1071.5Z" transform="translate(-2087.566 -1006.527)" fill="#c6dcf7"/>
      </g>
      <rect id="Rectangle_5179" data-name="Rectangle 5179" width="414.48" height="1.541" rx="0.771" transform="translate(44.844 304.054)" fill="#233862" opacity="0.5"/>
      <g id="Group_19232" data-name="Group 19232" transform="translate(164.45 137.871)">
        <path id="Path_33710" data-name="Path 33710" d="M1055.975,1085.2c-.226-.933.182-1.664,1.047-1.666a2.033,2.033,0,0,1,1.843,1.661c.226.933-.178,1.664-1.047,1.666A2.025,2.025,0,0,1,1055.975,1085.2Zm2.156,0c-.141-.584-.536-1.024-.964-1.024s-.6.428-.458,1.026.531,1.024.963,1.023S1058.274,1085.792,1058.13,1085.2Z" transform="translate(-1042.662 -1060.271)" fill="#f99746"/>
        <path id="Path_33711" data-name="Path 33711" d="M992.046,970.871l-.533.139-.289-.579.867-.277h.488l.784,3.24h-.706Z" transform="translate(-991.224 -970.112)" fill="#2f539b"/>
        <path id="Path_33712" data-name="Path 33712" d="M1007.375,971.637c-.226-.933.182-1.664,1.047-1.666a2.033,2.033,0,0,1,1.843,1.661c.226.933-.178,1.664-1.047,1.666A2.025,2.025,0,0,1,1007.375,971.637Zm2.156,0c-.141-.584-.536-1.024-.964-1.024s-.6.429-.458,1.026.531,1.024.964,1.023S1009.674,972.226,1009.531,971.633Z" transform="translate(-1004.018 -969.967)" fill="#2f539b"/>
        <path id="Path_33713" data-name="Path 33713" d="M1081.723,1190.14c-.226-.932.182-1.665,1.047-1.666a2.033,2.033,0,0,1,1.843,1.661c.226.933-.178,1.664-1.047,1.666A2.024,2.024,0,0,1,1081.723,1190.14Zm2.156,0c-.141-.584-.536-1.024-.964-1.023s-.6.428-.458,1.026.532,1.024.964,1.023S1084.022,1190.729,1083.879,1190.136Z" transform="translate(-1063.137 -1143.713)" fill="#2f539b"/>
        <path id="Path_33714" data-name="Path 33714" d="M1009.937,1044.764l-.534.139-.289-.579.867-.277h.488l.784,3.24h-.706Z" transform="translate(-1005.45 -1028.869)" fill="#2f539b"/>
        <path id="Path_33715" data-name="Path 33715" d="M1025.267,1045.529c-.226-.933.182-1.665,1.047-1.666a2.034,2.034,0,0,1,1.843,1.661c.226.933-.178,1.664-1.047,1.666A2.025,2.025,0,0,1,1025.267,1045.529Zm2.156,0c-.141-.584-.536-1.024-.964-1.024s-.6.429-.458,1.026.532,1.024.964,1.023S1027.566,1046.118,1027.422,1045.525Z" transform="translate(-1018.245 -1028.724)" fill="#2f539b"/>
        <path id="Path_33716" data-name="Path 33716" d="M1020.243,1007.591l-.533.139-.289-.579.867-.277h.488l.784,3.24h-.706Z" transform="translate(-1013.645 -999.31)" fill="#f99746"/>
        <path id="Path_33717" data-name="Path 33717" d="M1035.573,1008.357c-.226-.933.182-1.664,1.047-1.666a2.034,2.034,0,0,1,1.843,1.661c.226.933-.178,1.664-1.047,1.666A2.024,2.024,0,0,1,1035.573,1008.357Zm2.155,0c-.141-.584-.536-1.024-.964-1.024s-.6.428-.458,1.026.531,1.024.964,1.024S1037.872,1008.946,1037.728,1008.353Z" transform="translate(-1026.44 -999.166)" fill="#f99746"/>
        <path id="Path_33718" data-name="Path 33718" d="M1019.552,1084.473l-.533.139-.289-.579.867-.277h.488l.784,3.24h-.706Z" transform="translate(-1013.096 -1060.444)" fill="#2f539b"/>
        <path id="Path_33719" data-name="Path 33719" d="M1034.881,1085.238c-.226-.933.183-1.665,1.047-1.666a2.034,2.034,0,0,1,1.843,1.661c.226.933-.178,1.664-1.047,1.666A2.025,2.025,0,0,1,1034.881,1085.238Zm2.156,0c-.141-.584-.536-1.024-.964-1.024s-.6.429-.458,1.026.531,1.024.964,1.023S1037.181,1085.827,1037.037,1085.234Z" transform="translate(-1025.89 -1060.299)" fill="#2f539b"/>
        <path id="Path_33720" data-name="Path 33720" d="M1067.212,971.619c-.226-.933.182-1.664,1.047-1.666a2.033,2.033,0,0,1,1.843,1.661c.226.933-.178,1.664-1.047,1.666A2.024,2.024,0,0,1,1067.212,971.619Zm2.156,0c-.141-.584-.536-1.024-.964-1.024s-.6.429-.458,1.026.531,1.024.964,1.023S1069.511,972.208,1069.368,971.615Z" transform="translate(-1051.598 -969.953)" fill="#f99746"/>
        <path id="Path_33721" data-name="Path 33721" d="M1030.79,970.889l-.533.139-.289-.579.867-.277h.488l.784,3.24h-.706Z" transform="translate(-1022.032 -970.126)" fill="#2f539b"/>
        <path id="Path_33722" data-name="Path 33722" d="M1046.119,971.655c-.226-.933.182-1.665,1.047-1.666a2.033,2.033,0,0,1,1.843,1.661c.226.933-.178,1.664-1.046,1.666A2.025,2.025,0,0,1,1046.119,971.655Zm2.156,0c-.141-.584-.536-1.024-.964-1.024s-.6.429-.458,1.026.532,1.024.964,1.023S1048.418,972.244,1048.274,971.651Z" transform="translate(-1034.826 -969.982)" fill="#2f539b"/>
        <path id="Path_33723" data-name="Path 33723" d="M1074.345,1161.908c-.226-.933.182-1.665,1.047-1.666a2.034,2.034,0,0,1,1.843,1.661c.226.933-.178,1.664-1.047,1.666A2.025,2.025,0,0,1,1074.345,1161.908Zm2.156,0c-.141-.583-.536-1.024-.964-1.024s-.6.429-.458,1.026.532,1.024.964,1.024S1076.644,1162.5,1076.5,1161.9Z" transform="translate(-1057.27 -1121.264)" fill="#f99746"/>
        <path id="Path_33724" data-name="Path 33724" d="M1028.307,1121.468l-.533.139-.289-.579.867-.277h.488l.784,3.24h-.706Z" transform="translate(-1020.057 -1089.861)" fill="#2f539b"/>
        <path id="Path_33725" data-name="Path 33725" d="M1043.637,1122.234c-.226-.933.182-1.664,1.047-1.666a2.033,2.033,0,0,1,1.843,1.661c.226.932-.178,1.664-1.047,1.666A2.025,2.025,0,0,1,1043.637,1122.234Zm2.155,0c-.141-.584-.536-1.024-.964-1.024s-.6.428-.458,1.026.531,1.024.963,1.023S1045.936,1122.823,1045.792,1122.23Z" transform="translate(-1032.852 -1089.717)" fill="#2f539b"/>
        <path id="Path_33726" data-name="Path 33726" d="M1064.73,1122.2c-.226-.933.182-1.664,1.047-1.666a2.034,2.034,0,0,1,1.843,1.661c.226.932-.178,1.665-1.047,1.666A2.024,2.024,0,0,1,1064.73,1122.2Zm2.156,0c-.141-.583-.536-1.024-.964-1.024s-.6.429-.458,1.026.532,1.024.964,1.024S1067.029,1122.788,1066.885,1122.195Z" transform="translate(-1049.624 -1089.689)" fill="#2f539b"/>
        <path id="Path_33727" data-name="Path 33727" d="M1084.487,1121.373l-.533.139-.289-.579.867-.277h.488l.784,3.24h-.706Z" transform="translate(-1064.73 -1089.786)" fill="#2f539b"/>
        <path id="Path_33728" data-name="Path 33728" d="M1037.922,1161.177l-.533.139-.289-.579.867-.277h.488l.784,3.24h-.706Z" transform="translate(-1027.703 -1121.436)" fill="#2f539b"/>
        <path id="Path_33729" data-name="Path 33729" d="M1053.252,1161.943c-.226-.933.182-1.665,1.047-1.666a2.034,2.034,0,0,1,1.843,1.661c.226.933-.178,1.664-1.047,1.666A2.025,2.025,0,0,1,1053.252,1161.943Zm2.156,0c-.141-.584-.536-1.024-.964-1.024s-.6.428-.458,1.026.532,1.024.964,1.023S1055.551,1162.532,1055.407,1161.939Z" transform="translate(-1040.497 -1121.292)" fill="#2f539b"/>
        <path id="Path_33730" data-name="Path 33730" d="M1093,1249.954c-.226-.933.183-1.665,1.047-1.666a2.033,2.033,0,0,1,1.843,1.661c.226.933-.178,1.664-1.047,1.666A2.025,2.025,0,0,1,1093,1249.954Zm2.156,0c-.141-.584-.536-1.024-.964-1.024s-.6.429-.458,1.026.532,1.024.964,1.023S1095.3,1250.543,1095.152,1249.95Z" transform="translate(-1072.1 -1191.275)" fill="#2f539b"/>
        <path id="Path_33731" data-name="Path 33731" d="M1112.753,1249.129l-.534.139-.289-.579.867-.277h.488l.784,3.24h-.706Z" transform="translate(-1087.206 -1191.373)" fill="#2f539b"/>
        <path id="Path_33732" data-name="Path 33732" d="M1056.574,1249.224l-.533.139-.289-.579.867-.277h.488l.785,3.239h-.706Z" transform="translate(-1042.534 -1191.448)" fill="#2f539b"/>
        <path id="Path_33733" data-name="Path 33733" d="M1071.9,1249.989c-.226-.933.182-1.664,1.046-1.666a2.033,2.033,0,0,1,1.843,1.661c.226.933-.178,1.664-1.047,1.666A2.024,2.024,0,0,1,1071.9,1249.989Zm2.155,0c-.141-.583-.536-1.024-.963-1.024s-.6.429-.458,1.026.531,1.024.963,1.024S1074.2,1250.578,1074.059,1249.985Z" transform="translate(-1055.329 -1191.303)" fill="#2f539b"/>
        <path id="Path_33734" data-name="Path 33734" d="M1128.083,1249.894c-.226-.933.183-1.664,1.047-1.666a2.034,2.034,0,0,1,1.843,1.661c.226.933-.178,1.664-1.047,1.666A2.025,2.025,0,0,1,1128.083,1249.894Zm2.156,0c-.141-.583-.536-1.024-.964-1.023s-.6.429-.458,1.026.532,1.024.964,1.024S1130.382,1250.483,1130.239,1249.89Z" transform="translate(-1100.001 -1191.227)" fill="#f99746"/>
        <path id="Path_33735" data-name="Path 33735" d="M1149.176,1249.859c-.226-.933.182-1.664,1.047-1.666a2.034,2.034,0,0,1,1.843,1.661c.226.933-.178,1.664-1.047,1.666A2.025,2.025,0,0,1,1149.176,1249.859Zm2.156,0c-.141-.584-.536-1.024-.964-1.024s-.6.429-.458,1.026.532,1.024.964,1.023S1151.475,1250.448,1151.331,1249.855Z" transform="translate(-1116.773 -1191.199)" fill="#f99746"/>
        <path id="Path_33736" data-name="Path 33736" d="M1066.934,1278.276c-.226-.933.183-1.665,1.047-1.666a2.033,2.033,0,0,1,1.843,1.661c.226.933-.178,1.665-1.047,1.666A2.025,2.025,0,0,1,1066.934,1278.276Zm2.156,0c-.141-.583-.536-1.024-.963-1.024s-.6.429-.458,1.026.532,1.025.964,1.024S1069.233,1278.865,1069.09,1278.272Z" transform="translate(-1051.377 -1213.795)" fill="#2f539b"/>
        <path id="Path_33737" data-name="Path 33737" d="M1086.691,1277.451l-.533.139-.289-.579.867-.277h.488l.784,3.24h-.706Z" transform="translate(-1066.482 -1213.893)" fill="#2f539b"/>
        <path id="Path_33738" data-name="Path 33738" d="M1102.022,1278.217c-.226-.933.182-1.664,1.047-1.666a2.033,2.033,0,0,1,1.843,1.661c.226.933-.178,1.664-1.047,1.666A2.024,2.024,0,0,1,1102.022,1278.217Zm2.155,0c-.141-.584-.536-1.024-.964-1.024s-.6.429-.458,1.026.532,1.024.964,1.023S1104.321,1278.806,1104.177,1278.213Z" transform="translate(-1079.277 -1213.749)" fill="#2f539b"/>
        <path id="Path_33739" data-name="Path 33739" d="M1123.114,1278.182c-.226-.933.182-1.665,1.047-1.666a2.033,2.033,0,0,1,1.843,1.661c.226.933-.178,1.665-1.047,1.666A2.025,2.025,0,0,1,1123.114,1278.182Zm2.155,0c-.141-.584-.536-1.025-.964-1.024s-.6.428-.458,1.026.531,1.024.964,1.023S1125.413,1278.771,1125.269,1278.178Z" transform="translate(-1096.049 -1213.721)" fill="#2f539b"/>
        <path id="Path_33740" data-name="Path 33740" d="M1731.112,1249.954c-.226-.933.182-1.665,1.047-1.666a2.034,2.034,0,0,1,1.843,1.661c.226.933-.178,1.664-1.047,1.666A2.024,2.024,0,0,1,1731.112,1249.954Zm2.156,0c-.141-.584-.536-1.024-.964-1.024s-.6.429-.458,1.026.531,1.024.964,1.023S1733.411,1250.543,1733.267,1249.95Z" transform="translate(-1579.507 -1191.275)" fill="#2f539b"/>
        <path id="Path_33741" data-name="Path 33741" d="M1750.869,1249.129l-.533.139-.289-.579.867-.277h.488l.784,3.24h-.706Z" transform="translate(-1594.612 -1191.373)" fill="#2f539b"/>
        <path id="Path_33742" data-name="Path 33742" d="M1694.689,1249.224l-.534.139-.289-.579.867-.277h.488l.785,3.239h-.706Z" transform="translate(-1549.94 -1191.448)" fill="#2f539b"/>
        <path id="Path_33743" data-name="Path 33743" d="M1710.019,1249.989c-.226-.933.182-1.664,1.047-1.666a2.033,2.033,0,0,1,1.843,1.661c.226.933-.178,1.664-1.047,1.666A2.024,2.024,0,0,1,1710.019,1249.989Zm2.156,0c-.141-.583-.536-1.024-.964-1.024s-.6.429-.458,1.026.531,1.024.964,1.024S1712.318,1250.578,1712.174,1249.985Z" transform="translate(-1562.735 -1191.303)" fill="#2f539b"/>
        <path id="Path_33744" data-name="Path 33744" d="M1766.2,1249.894c-.226-.933.182-1.664,1.047-1.666a2.033,2.033,0,0,1,1.843,1.661c.226.933-.178,1.664-1.047,1.666A2.025,2.025,0,0,1,1766.2,1249.894Zm2.156,0c-.141-.583-.536-1.024-.964-1.023s-.6.429-.458,1.026.531,1.024.964,1.024S1768.5,1250.483,1768.355,1249.89Z" transform="translate(-1607.407 -1191.227)" fill="#f99746"/>
        <path id="Path_33745" data-name="Path 33745" d="M1787.291,1249.859c-.226-.933.183-1.664,1.047-1.666a2.034,2.034,0,0,1,1.843,1.661c.226.933-.178,1.664-1.047,1.666A2.025,2.025,0,0,1,1787.291,1249.859Zm2.156,0c-.141-.584-.536-1.024-.964-1.024s-.6.429-.458,1.026.531,1.024.963,1.023S1789.59,1250.448,1789.447,1249.855Z" transform="translate(-1624.178 -1191.199)" fill="#f99746"/>
        <path id="Path_33746" data-name="Path 33746" d="M1646.757,1278.276c-.226-.933.182-1.665,1.046-1.666a2.033,2.033,0,0,1,1.843,1.661c.226.933-.178,1.665-1.047,1.666A2.025,2.025,0,0,1,1646.757,1278.276Zm2.156,0c-.141-.583-.536-1.024-.964-1.024s-.6.429-.458,1.026.531,1.025.963,1.024S1649.056,1278.865,1648.913,1278.272Z" transform="translate(-1512.431 -1213.795)" fill="#2f539b"/>
        <path id="Path_33747" data-name="Path 33747" d="M1666.513,1277.451l-.533.139-.289-.579.867-.277h.488l.785,3.24h-.706Z" transform="translate(-1527.536 -1213.893)" fill="#2f539b"/>
        <path id="Path_33748" data-name="Path 33748" d="M1681.844,1278.217c-.226-.933.182-1.664,1.047-1.666a2.033,2.033,0,0,1,1.843,1.661c.226.933-.178,1.664-1.047,1.666A2.024,2.024,0,0,1,1681.844,1278.217Zm2.155,0c-.141-.584-.536-1.024-.964-1.024s-.6.429-.458,1.026.531,1.024.964,1.023S1684.143,1278.806,1684,1278.213Z" transform="translate(-1540.331 -1213.749)" fill="#2f539b"/>
        <path id="Path_33749" data-name="Path 33749" d="M1702.936,1278.182c-.226-.933.182-1.665,1.047-1.666a2.033,2.033,0,0,1,1.843,1.661c.226.933-.178,1.665-1.047,1.666A2.025,2.025,0,0,1,1702.936,1278.182Zm2.156,0c-.141-.584-.536-1.025-.964-1.024s-.6.428-.458,1.026.531,1.024.964,1.023S1705.235,1278.771,1705.091,1278.178Z" transform="translate(-1557.102 -1213.721)" fill="#2f539b"/>
        <path id="Path_33750" data-name="Path 33750" d="M1119.784,1352.4c-.226-.933.183-1.664,1.047-1.666a2.034,2.034,0,0,1,1.843,1.661c.226.933-.178,1.664-1.047,1.666A2.026,2.026,0,0,1,1119.784,1352.4Zm2.156,0c-.141-.584-.536-1.024-.964-1.024s-.6.429-.458,1.026.532,1.024.964,1.024S1122.084,1352.991,1121.94,1352.4Z" transform="translate(-1093.402 -1272.738)" fill="#f99746"/>
        <path id="Path_33751" data-name="Path 33751" d="M1139.542,1351.577l-.533.139-.289-.579.867-.278h.488l.785,3.24h-.706Z" transform="translate(-1108.507 -1272.836)" fill="#f99746"/>
        <path id="Path_33752" data-name="Path 33752" d="M1073.748,1311.963l-.533.139-.289-.579.867-.277h.488l.785,3.24h-.706Z" transform="translate(-1056.19 -1241.336)" fill="#2f539b"/>
        <path id="Path_33753" data-name="Path 33753" d="M1089.077,1312.73c-.226-.933.183-1.664,1.047-1.666a2.033,2.033,0,0,1,1.843,1.661c.226.933-.178,1.665-1.047,1.666A2.025,2.025,0,0,1,1089.077,1312.73Zm2.156,0c-.141-.584-.536-1.024-.964-1.024s-.6.428-.458,1.026.531,1.024.964,1.023S1091.376,1313.319,1091.233,1312.726Z" transform="translate(-1068.984 -1241.192)" fill="#2f539b"/>
        <path id="Path_33754" data-name="Path 33754" d="M1110.17,1312.693c-.226-.933.183-1.664,1.047-1.666a2.034,2.034,0,0,1,1.843,1.661c.226.933-.178,1.664-1.047,1.666A2.025,2.025,0,0,1,1110.17,1312.693Zm2.156,0c-.142-.584-.536-1.024-.964-1.024s-.6.429-.458,1.026.531,1.024.964,1.024S1112.469,1313.282,1112.326,1312.689Z" transform="translate(-1085.757 -1241.163)" fill="#2f539b"/>
        <path id="Path_33755" data-name="Path 33755" d="M1129.927,1311.868l-.533.139-.289-.579.867-.277h.488l.784,3.24h-.706Z" transform="translate(-1100.862 -1241.26)" fill="#2f539b"/>
        <path id="Path_33756" data-name="Path 33756" d="M1691.2,1311.963l-.533.139-.289-.579.867-.277h.488l.784,3.24h-.706Z" transform="translate(-1547.162 -1241.336)" fill="#2f539b"/>
        <path id="Path_33757" data-name="Path 33757" d="M1706.524,1312.73c-.226-.933.182-1.664,1.047-1.666a2.033,2.033,0,0,1,1.843,1.661c.226.933-.178,1.665-1.047,1.666A2.024,2.024,0,0,1,1706.524,1312.73Zm2.155,0c-.141-.584-.536-1.024-.964-1.024s-.6.428-.458,1.026.531,1.024.964,1.023S1708.823,1313.319,1708.68,1312.726Z" transform="translate(-1559.956 -1241.192)" fill="#2f539b"/>
        <path id="Path_33758" data-name="Path 33758" d="M1727.617,1312.693c-.226-.933.182-1.664,1.047-1.666a2.033,2.033,0,0,1,1.843,1.661c.226.933-.178,1.664-1.047,1.666A2.025,2.025,0,0,1,1727.617,1312.693Zm2.156,0c-.141-.584-.536-1.024-.964-1.024s-.6.429-.458,1.026.531,1.024.964,1.024S1729.916,1313.282,1729.772,1312.689Z" transform="translate(-1576.728 -1241.163)" fill="#2f539b"/>
        <path id="Path_33759" data-name="Path 33759" d="M1747.374,1311.868l-.533.139-.289-.579.867-.277h.488l.785,3.24h-.706Z" transform="translate(-1591.833 -1241.26)" fill="#2f539b"/>
        <path id="Path_33760" data-name="Path 33760" d="M1083.363,1351.672l-.533.139-.289-.579.867-.277h.488l.784,3.24h-.706Z" transform="translate(-1063.836 -1272.911)" fill="#2f539b"/>
        <path id="Path_33761" data-name="Path 33761" d="M1098.692,1352.438c-.226-.933.182-1.665,1.047-1.666a2.034,2.034,0,0,1,1.843,1.661c.226.933-.178,1.665-1.047,1.666A2.024,2.024,0,0,1,1098.692,1352.438Zm2.156,0c-.141-.583-.536-1.024-.964-1.023s-.6.428-.458,1.026.531,1.024.964,1.024S1100.991,1353.027,1100.847,1352.434Z" transform="translate(-1076.63 -1272.766)" fill="#2f539b"/>
        <path id="Path_33762" data-name="Path 33762" d="M1154.872,1352.344c-.226-.933.182-1.664,1.047-1.666a2.033,2.033,0,0,1,1.843,1.661c.226.933-.178,1.664-1.047,1.666A2.025,2.025,0,0,1,1154.872,1352.344Zm2.156,0c-.141-.584-.536-1.024-.964-1.023s-.6.428-.458,1.026.531,1.024.964,1.023S1157.171,1352.933,1157.027,1352.34Z" transform="translate(-1121.302 -1272.692)" fill="#2f539b"/>
        <path id="Path_33763" data-name="Path 33763" d="M1175.964,1352.309c-.226-.933.183-1.664,1.047-1.666a2.033,2.033,0,0,1,1.843,1.661c.226.933-.178,1.664-1.047,1.666A2.025,2.025,0,0,1,1175.964,1352.309Zm2.156,0c-.141-.583-.536-1.024-.964-1.024s-.6.429-.458,1.026.531,1.024.964,1.024S1178.263,1352.9,1178.12,1352.305Z" transform="translate(-1138.074 -1272.664)" fill="#2f539b"/>
        <path id="Path_33764" data-name="Path 33764" d="M1127.918,1380.438c-.226-.933.182-1.665,1.047-1.666a2.033,2.033,0,0,1,1.843,1.661c.226.933-.178,1.664-1.047,1.666A2.024,2.024,0,0,1,1127.918,1380.438Zm2.156,0c-.141-.584-.536-1.024-.964-1.024s-.6.428-.458,1.026.531,1.024.964,1.024S1130.217,1381.027,1130.073,1380.434Z" transform="translate(-1099.869 -1295.031)" fill="#f99746"/>
        <path id="Path_33765" data-name="Path 33765" d="M1147.675,1379.614l-.533.139-.289-.579.867-.278h.488l.785,3.239h-.706Z" transform="translate(-1114.975 -1295.13)" fill="#f99746"/>
        <path id="Path_33766" data-name="Path 33766" d="M1106.825,1380.475c-.226-.933.182-1.665,1.047-1.666a2.032,2.032,0,0,1,1.843,1.661c.226.933-.178,1.664-1.047,1.666A2.025,2.025,0,0,1,1106.825,1380.475Zm2.156,0c-.141-.584-.536-1.024-.964-1.024s-.6.429-.458,1.026.531,1.024.964,1.024S1109.124,1381.063,1108.981,1380.471Z" transform="translate(-1083.097 -1295.06)" fill="#2f539b"/>
        <path id="Path_33767" data-name="Path 33767" d="M1163,1380.38c-.226-.933.182-1.665,1.047-1.666a2.033,2.033,0,0,1,1.843,1.661c.226.933-.178,1.665-1.047,1.666A2.025,2.025,0,0,1,1163,1380.38Zm2.156,0c-.141-.584-.536-1.024-.963-1.024s-.6.429-.458,1.026.531,1.024.964,1.024S1165.3,1380.969,1165.161,1380.376Z" transform="translate(-1127.769 -1294.985)" fill="#2f539b"/>
        <path id="Path_33768" data-name="Path 33768" d="M1184.1,1380.344c-.226-.933.183-1.664,1.047-1.666a2.033,2.033,0,0,1,1.843,1.661c.226.933-.178,1.664-1.047,1.666A2.025,2.025,0,0,1,1184.1,1380.344Zm2.156,0c-.141-.584-.536-1.024-.964-1.024s-.6.429-.458,1.026.532,1.024.964,1.023S1186.4,1380.933,1186.252,1380.34Z" transform="translate(-1144.54 -1294.956)" fill="#2f539b"/>
        <path id="Path_33769" data-name="Path 33769" d="M1256.673,1380.438c-.226-.933.183-1.665,1.047-1.666a2.033,2.033,0,0,1,1.843,1.661c.226.933-.178,1.664-1.047,1.666A2.024,2.024,0,0,1,1256.673,1380.438Zm2.156,0c-.141-.584-.536-1.024-.964-1.024s-.6.428-.458,1.026.531,1.024.964,1.024S1258.972,1381.027,1258.829,1380.434Z" transform="translate(-1202.251 -1295.031)" fill="#f99746"/>
        <path id="Path_33770" data-name="Path 33770" d="M1276.43,1379.614l-.533.139-.289-.579.867-.278h.488l.784,3.239h-.706Z" transform="translate(-1217.356 -1295.13)" fill="#f99746"/>
        <path id="Path_33771" data-name="Path 33771" d="M1235.58,1380.475c-.226-.933.183-1.665,1.047-1.666a2.033,2.033,0,0,1,1.843,1.661c.226.933-.178,1.664-1.047,1.666A2.025,2.025,0,0,1,1235.58,1380.475Zm2.156,0c-.141-.584-.536-1.024-.964-1.024s-.6.429-.458,1.026.532,1.024.964,1.024S1237.879,1381.063,1237.736,1380.471Z" transform="translate(-1185.478 -1295.06)" fill="#2f539b"/>
        <path id="Path_33772" data-name="Path 33772" d="M1291.76,1380.38c-.226-.933.183-1.665,1.047-1.666a2.033,2.033,0,0,1,1.843,1.661c.226.933-.178,1.665-1.047,1.666A2.025,2.025,0,0,1,1291.76,1380.38Zm2.156,0c-.142-.584-.536-1.024-.964-1.024s-.6.429-.458,1.026.531,1.024.964,1.024S1294.059,1380.969,1293.916,1380.376Z" transform="translate(-1230.151 -1294.985)" fill="#2f539b"/>
        <path id="Path_33773" data-name="Path 33773" d="M1312.853,1380.344c-.226-.933.182-1.664,1.046-1.666a2.033,2.033,0,0,1,1.843,1.661c.226.933-.178,1.664-1.047,1.666A2.025,2.025,0,0,1,1312.853,1380.344Zm2.155,0c-.141-.584-.536-1.024-.964-1.024s-.6.429-.458,1.026.531,1.024.964,1.023S1315.152,1380.933,1315.008,1380.34Z" transform="translate(-1246.923 -1294.956)" fill="#2f539b"/>
        <path id="Path_33774" data-name="Path 33774" d="M1549.806,1380.438c-.226-.933.183-1.665,1.047-1.666a2.033,2.033,0,0,1,1.843,1.661c.226.933-.178,1.664-1.047,1.666A2.024,2.024,0,0,1,1549.806,1380.438Zm2.155,0c-.141-.584-.536-1.024-.964-1.024s-.6.428-.458,1.026.531,1.024.964,1.024S1552.1,1381.027,1551.961,1380.434Z" transform="translate(-1435.339 -1295.031)" fill="#f99746"/>
        <path id="Path_33775" data-name="Path 33775" d="M1569.562,1379.614l-.534.139-.289-.579.867-.278h.488l.785,3.239h-.706Z" transform="translate(-1450.444 -1295.13)" fill="#f99746"/>
        <path id="Path_33776" data-name="Path 33776" d="M1528.713,1380.475c-.226-.933.183-1.665,1.047-1.666a2.033,2.033,0,0,1,1.843,1.661c.226.933-.178,1.664-1.047,1.666A2.025,2.025,0,0,1,1528.713,1380.475Zm2.156,0c-.141-.584-.536-1.024-.964-1.024s-.6.429-.458,1.026.532,1.024.964,1.024S1531.012,1381.063,1530.869,1380.471Z" transform="translate(-1418.567 -1295.06)" fill="#2f539b"/>
        <path id="Path_33777" data-name="Path 33777" d="M1584.893,1380.38c-.226-.933.182-1.665,1.047-1.666a2.033,2.033,0,0,1,1.843,1.661c.226.933-.178,1.665-1.047,1.666A2.025,2.025,0,0,1,1584.893,1380.38Zm2.156,0c-.141-.584-.536-1.024-.964-1.024s-.6.429-.458,1.026.531,1.024.964,1.024S1587.192,1380.969,1587.048,1380.376Z" transform="translate(-1463.239 -1294.985)" fill="#2f539b"/>
        <path id="Path_33778" data-name="Path 33778" d="M1605.984,1380.344c-.226-.933.182-1.664,1.047-1.666a2.033,2.033,0,0,1,1.843,1.661c.226.933-.178,1.664-1.047,1.666A2.026,2.026,0,0,1,1605.984,1380.344Zm2.156,0c-.141-.584-.536-1.024-.964-1.024s-.6.429-.458,1.026.531,1.024.964,1.023S1608.284,1380.933,1608.14,1380.34Z" transform="translate(-1480.01 -1294.956)" fill="#2f539b"/>
        <path id="Path_33779" data-name="Path 33779" d="M1678.561,1380.438c-.226-.933.182-1.665,1.047-1.666a2.034,2.034,0,0,1,1.843,1.661c.226.933-.178,1.664-1.047,1.666A2.024,2.024,0,0,1,1678.561,1380.438Zm2.156,0c-.141-.584-.536-1.024-.964-1.024s-.6.428-.458,1.026.532,1.024.964,1.024S1680.86,1381.027,1680.716,1380.434Z" transform="translate(-1537.72 -1295.031)" fill="#f99746"/>
        <path id="Path_33780" data-name="Path 33780" d="M1698.318,1379.614l-.534.139-.289-.579.867-.278h.488l.785,3.239h-.706Z" transform="translate(-1552.826 -1295.13)" fill="#f99746"/>
        <path id="Path_33781" data-name="Path 33781" d="M1657.468,1380.475c-.226-.933.183-1.665,1.047-1.666a2.033,2.033,0,0,1,1.843,1.661c.226.933-.178,1.664-1.047,1.666A2.025,2.025,0,0,1,1657.468,1380.475Zm2.156,0c-.141-.584-.536-1.024-.964-1.024s-.6.429-.458,1.026.532,1.024.964,1.024S1659.767,1381.063,1659.624,1380.471Z" transform="translate(-1520.948 -1295.06)" fill="#2f539b"/>
        <path id="Path_33782" data-name="Path 33782" d="M1713.648,1380.38c-.226-.933.182-1.665,1.047-1.666a2.034,2.034,0,0,1,1.843,1.661c.226.933-.178,1.665-1.047,1.666A2.025,2.025,0,0,1,1713.648,1380.38Zm2.156,0c-.141-.584-.536-1.024-.964-1.024s-.6.429-.458,1.026.532,1.024.964,1.024S1715.947,1380.969,1715.8,1380.376Z" transform="translate(-1565.62 -1294.985)" fill="#2f539b"/>
        <path id="Path_33783" data-name="Path 33783" d="M1734.741,1380.344c-.226-.933.182-1.664,1.047-1.666a2.033,2.033,0,0,1,1.843,1.661c.226.933-.178,1.664-1.047,1.666A2.025,2.025,0,0,1,1734.741,1380.344Zm2.155,0c-.141-.584-.536-1.024-.964-1.024s-.6.429-.458,1.026.532,1.024.964,1.023S1737.04,1380.933,1736.9,1380.34Z" transform="translate(-1582.393 -1294.956)" fill="#2f539b"/>
        <path id="Path_33784" data-name="Path 33784" d="M1197.057,1352.272c-.226-.933.182-1.664,1.047-1.666a2.034,2.034,0,0,1,1.843,1.661c.226.933-.178,1.664-1.047,1.666A2.024,2.024,0,0,1,1197.057,1352.272Zm2.156,0c-.141-.584-.536-1.024-.964-1.024s-.6.428-.458,1.026.532,1.024.964,1.023S1199.356,1352.861,1199.212,1352.269Z" transform="translate(-1154.846 -1272.634)" fill="#2f539b"/>
        <path id="Path_33785" data-name="Path 33785" d="M1218.15,1352.237c-.226-.933.183-1.664,1.047-1.666a2.034,2.034,0,0,1,1.843,1.661c.226.933-.178,1.664-1.047,1.666A2.025,2.025,0,0,1,1218.15,1352.237Zm2.156,0c-.141-.583-.536-1.024-.964-1.023s-.6.428-.458,1.026.532,1.024.964,1.023S1220.449,1352.826,1220.305,1352.233Z" transform="translate(-1171.618 -1272.607)" fill="#2f539b"/>
        <path id="Path_33786" data-name="Path 33786" d="M1603.732,1352.272c-.226-.933.182-1.664,1.047-1.666a2.034,2.034,0,0,1,1.843,1.661c.226.933-.178,1.664-1.047,1.666A2.024,2.024,0,0,1,1603.732,1352.272Zm2.156,0c-.141-.584-.536-1.024-.964-1.024s-.6.428-.458,1.026.531,1.024.964,1.023S1606.031,1352.861,1605.888,1352.269Z" transform="translate(-1478.219 -1272.634)" fill="#2f539b"/>
        <path id="Path_33787" data-name="Path 33787" d="M1624.826,1352.237c-.226-.933.182-1.664,1.046-1.666a2.033,2.033,0,0,1,1.843,1.661c.226.933-.178,1.664-1.047,1.666A2.025,2.025,0,0,1,1624.826,1352.237Zm2.155,0c-.141-.583-.536-1.024-.964-1.023s-.6.428-.458,1.026.531,1.024.964,1.023S1627.124,1352.826,1626.981,1352.233Z" transform="translate(-1494.992 -1272.607)" fill="#2f539b"/>
      </g>
    </g>
  </g>
</svg>
