<svg xmlns="http://www.w3.org/2000/svg" width="144.699" height="139.296" viewBox="0 0 144.699 139.296">
  <g id="Group_166" data-name="Group 166" transform="translate(0 55.665) rotate(-30)" opacity="0.04">
    <g id="Polygon_1" data-name="Polygon 1" fill="none" opacity="0.42">
      <path d="M83.5,0l27.833,48.284L83.5,96.569H27.833L0,48.284,27.833,0Z" stroke="none"/>
      <path d="M 28.98827362060547 1.999992370605469 L 2.308479309082031 48.28425216674805 L 28.98825836181641 94.56849670410156 L 82.34231567382812 94.56849670410156 L 109.0220794677734 48.28425216674805 L 82.34231567382812 1.999992370605469 L 28.98827362060547 1.999992370605469 M 27.83264923095703 -7.62939453125e-06 L 83.4979248046875 -7.62939453125e-06 L 111.3305587768555 48.28425216674805 L 83.4979248046875 96.56849670410156 L 27.83263397216797 96.56849670410156 L -7.62939453125e-06 48.28425216674805 L 27.83264923095703 -7.62939453125e-06 Z" stroke="none" fill="#ed3b24"/>
    </g>
    <path id="Polygon_2" data-name="Polygon 2" d="M69.658,0,92.878,40.288,69.658,80.576H23.219L0,40.288,23.22,0Z" transform="translate(9.318 7.78)" fill="#fff"/>
    <g id="Polygon_3" data-name="Polygon 3" transform="translate(15.469 12.701)" fill="none" opacity="0.64">
      <path d="M60.432,0,80.576,35.367,60.432,70.735H20.144L0,35.367,20.144,0Z" stroke="none"/>
      <path d="M 21.30660247802734 1.999992370605469 L 2.301651000976562 35.3674430847168 L 21.30659103393555 68.73489379882812 L 59.26967620849609 68.73489379882812 L 78.27460479736328 35.3674430847168 L 59.26967620849609 1.999992370605469 L 21.30660247802734 1.999992370605469 M 20.14407730102539 -7.62939453125e-06 L 60.43220520019531 -7.62939453125e-06 L 80.57626342773438 35.3674430847168 L 60.43220520019531 70.73489379882812 L 20.14406585693359 70.73489379882812 L -7.62939453125e-06 35.3674430847168 L 20.14407730102539 -7.62939453125e-06 Z" stroke="none" fill="#ed3b24"/>
    </g>
  </g>
</svg>
