<svg xmlns="http://www.w3.org/2000/svg" width="148.397" height="142.856" viewBox="0 0 148.397 142.856">
  <g id="Group_167" data-name="Group 167" transform="translate(0 57.088) rotate(-30)" opacity="0.04">
    <g id="Polygon_1" data-name="Polygon 1" fill="none" opacity="0.42">
      <path d="M85.632,0l28.544,49.518L85.632,99.036H28.544L0,49.518,28.544,0Z" stroke="none"/>
      <path d="M 29.69953918457031 2.000007629394531 L 2.3084716796875 49.5181884765625 L 29.69952392578125 97.03636932373047 L 84.47617340087891 97.03636932373047 L 111.8672256469727 49.5181884765625 L 84.47617340087891 2.000007629394531 L 29.69953918457031 2.000007629394531 M 28.54393005371094 7.62939453125e-06 L 85.63178253173828 7.62939453125e-06 L 114.1756973266602 49.5181884765625 L 85.63178253173828 99.03636932373047 L 28.54391479492188 99.03636932373047 L 0 49.5181884765625 L 28.54393005371094 7.62939453125e-06 Z" stroke="none" fill="#ed3b24"/>
    </g>
    <path id="Polygon_2" data-name="Polygon 2" d="M71.439,0,95.252,41.318,71.439,82.635H23.813L0,41.318,23.813,0Z" transform="translate(9.556 7.979)" fill="#fff"/>
    <g id="Polygon_3" data-name="Polygon 3" transform="translate(15.864 13.026)" fill="none" opacity="0.64">
      <path d="M61.977,0,82.635,36.271,61.977,72.543H20.659L0,36.271,20.659,0Z" stroke="none"/>
      <path d="M 21.82138442993164 2 L 2.301651000976562 36.27128601074219 L 21.82138442993164 70.54257202148438 L 60.81406784057617 70.54257202148438 L 80.33380126953125 36.27128601074219 L 60.81406784057617 2 L 21.82138442993164 2 M 20.65886306762695 0 L 61.97658920288086 0 L 82.63545227050781 36.27128601074219 L 61.97658920288086 72.54257202148438 L 20.65886306762695 72.54257202148438 L 0 36.27128601074219 L 20.65886306762695 0 Z" stroke="none" fill="#ed3b24"/>
    </g>
  </g>
</svg>
