<svg xmlns="http://www.w3.org/2000/svg" width="89.012" height="104.16" viewBox="0 0 89.012 104.16">
  <g id="Group_180" data-name="Group 180" transform="translate(-606.056 -728.849) rotate(30)">
    <text id="HGEO" transform="translate(957.364 384.666)" fill="#20214e" font-size="24" font-family="Roboto-Medium, Roboto" font-weight="500"><tspan x="-31" y="0">HGEO</tspan></text>
    <g id="Group_172" data-name="Group 172" transform="translate(-498.222 -140.926)">
      <path id="Path_9" data-name="Path 9" d="M2539.55,94.993a19.677,19.677,0,0,1-2.364,3.314l.025.025-.836.84a19.706,19.706,0,0,1-33.682-13.892c0-.388.011-.783.035-1.174,0-.053.006-.108.01-.164v-.015c0-.036,0-.071.007-.108V83.8c.006-.081.013-.162.021-.244.006-.067.011-.138.019-.209.011-.1.021-.211.033-.318.007-.062.014-.13.024-.2.009-.086.022-.184.036-.281.008-.054.015-.107.024-.16.011-.089.027-.187.044-.286.008-.052.018-.11.027-.167s.016-.1.026-.146.024-.135.036-.205l.038-.2c.016-.077.031-.154.049-.232.113-.537.251-1.077.41-1.6l.005-.014c.02-.069.041-.139.064-.208s.037-.119.057-.179c.111-.344.236-.691.367-1.028.018-.046.037-.1.057-.145s.042-.106.064-.16.055-.136.087-.209c.022-.055.049-.115.075-.176l.012-.027c.037-.082.072-.164.109-.245.027-.061.054-.12.083-.18a19.552,19.552,0,0,1,1.79-3.081l.112-.154c.078-.108.157-.213.235-.318.038-.049.077-.1.117-.153.087-.111.173-.222.261-.331.051-.063.1-.128.157-.191s.1-.122.156-.186.106-.126.161-.188.123-.141.185-.211l-2.314-2.315a22.975,22.975,0,1,0,36.563,27.523Z" transform="translate(-1066.839 385.008)" fill="#262e3a"/>
      <path id="Path_10" data-name="Path 10" d="M2525.544,97.61a17.213,17.213,0,0,0,12.253,5.075q.217,0,.435-.006l.214-.006h.01l.319-.015.254-.015.116-.009.058,0c.077-.006.156-.013.235-.021l.2-.019.131-.014.088-.01.172-.022c.213-.026.425-.057.63-.092l.172-.03.019,0,.135-.024.023,0,.176-.034c.156-.031.309-.062.46-.1.1-.023.2-.048.3-.072l.013,0,.077-.019.211-.054.17-.045.132-.037.1-.03.023-.007.128-.038c.071-.021.134-.04.2-.06l.141-.044c.146-.048.29-.1.433-.147l.115-.042.028-.009c.051-.018.1-.034.14-.052.072-.026.136-.05.2-.076s.1-.038.147-.057l.249-.1.241-.1c.076-.032.15-.064.221-.1l.115-.052.034-.015.178-.084c.364-.173.723-.36,1.071-.557l.109-.063.24-.14.4-.244c.176-.111.356-.231.552-.365l.161-.114.022-.016c.041-.028.081-.057.12-.086l.011-.008.088-.064.011-.008c.05-.035.1-.072.148-.109l.161-.122.1-.078.036-.028.164-.13c.057-.045.111-.09.166-.135l.014-.012c.1-.085.208-.173.311-.263l.094-.082-2.317-2.317a14.059,14.059,0,0,1-19-20.694,14.2,14.2,0,0,1,4.4-2.956l-2.457-2.458a17.333,17.333,0,0,0-4.293,27.649Z" transform="translate(-1082.236 384.931)" fill="#ed3b24"/>
      <path id="Path_11" data-name="Path 11" d="M2542.4,48.629a22.982,22.982,0,0,0-42.51-12.1l2.385,2.385a19.739,19.739,0,0,1,2.364-3.314l-.025-.025.836-.84a19.706,19.706,0,0,1,33.682,13.891c0,.39-.012.785-.036,1.175,0,.052-.006.108-.01.164,0,.039-.006.079-.008.121v.019c-.006.082-.013.164-.02.244s-.012.14-.019.211c-.01.1-.021.21-.033.317-.007.061-.014.129-.024.2-.01.086-.022.184-.036.281-.008.054-.016.107-.024.159-.012.09-.027.189-.044.287-.008.052-.018.109-.027.167s-.017.1-.026.146-.023.135-.037.205-.025.129-.039.2-.03.154-.047.232c-.114.537-.251,1.078-.411,1.6-.022.073-.044.147-.068.222-.018.058-.037.118-.057.179-.113.346-.236.692-.368,1.028-.018.046-.037.095-.056.143s-.042.107-.065.161-.057.138-.087.209c-.022.055-.049.115-.075.176l-.012.027c-.037.082-.072.164-.109.244-.027.061-.055.121-.083.18a19.466,19.466,0,0,1-1.79,3.081l-.11.154c-.08.109-.158.215-.236.318-.038.05-.077.1-.117.154q-.129.167-.26.331c-.051.063-.1.128-.157.191s-.094.115-.145.174l-.01.01c-.055.063-.108.127-.162.189s-.122.141-.185.211l2.314,2.315A22.859,22.859,0,0,0,2542.4,48.629Z" transform="translate(-1067.179 417.346)" fill="#ed3b24"/>
      <path id="Path_12" data-name="Path 12" d="M2547.034,76.965l2.458,2.458a17.33,17.33,0,0,0-7.959-32.724c-.145,0-.289,0-.435.006-.072,0-.144,0-.213.006h-.011l-.319.016-.253.015-.116.008-.059,0-.234.02-.2.02-.131.014-.068.007-.022,0-.168.02c-.214.027-.424.058-.63.093l-.172.03-.019,0-.13.024-.028,0-.171.033c-.162.031-.313.063-.465.1-.1.023-.2.048-.3.072l-.013,0c-.026,0-.051.012-.077.018l-.211.054c-.058.015-.114.03-.169.046l-.133.037-.1.03-.023.007c-.043.012-.086.024-.128.038-.071.02-.134.04-.2.06l-.142.044c-.146.048-.289.1-.433.147l-.112.039-.033.012-.136.05c-.075.027-.139.052-.2.077l-.147.058c-.089.035-.168.068-.249.1l-.241.1c-.076.032-.148.064-.22.1l-.115.052-.035.015-.178.084c-.364.173-.725.36-1.071.557-.039.021-.074.041-.109.063-.076.044-.152.088-.227.133l-.25.152-.159.1c-.176.111-.357.231-.55.365l-.148.1-.032.023-.126.09-.017.012-.082.06-.01.008-.148.109c-.056.042-.108.082-.16.122s-.069.053-.1.077l-.039.03c-.054.043-.109.086-.164.131s-.121.1-.18.147c-.105.086-.208.173-.311.263l-.1.082,2.317,2.317a14.059,14.059,0,0,1,19,20.694A14.186,14.186,0,0,1,2547.034,76.965Z" transform="translate(-1089.287 401.95)" fill="#262e3a"/>
    </g>
  </g>
</svg>
