<svg xmlns="http://www.w3.org/2000/svg" width="148.338" height="142.798" viewBox="0 0 148.338 142.798">
  <g id="Group_19102" data-name="Group 19102" transform="translate(0 57.065) rotate(-30)" opacity="0.04">
    <g id="Polygon_1" data-name="Polygon 1" fill="none" opacity="0.42">
      <path d="M85.6,0,114.13,49.5,85.6,99H28.532L0,49.5,28.532,0Z" stroke="none"/>
      <path d="M 29.68804931640625 1.999992370605469 L 2.3084716796875 49.49826049804688 L 29.68803405761719 96.99652862548828 L 84.44170379638672 96.99652862548828 L 111.8212661743164 49.49826049804688 L 84.44170379638672 1.999992370605469 L 29.68804931640625 1.999992370605469 M 28.53244018554688 -7.62939453125e-06 L 85.59730529785156 -7.62939453125e-06 L 114.1297454833984 49.49826049804688 L 85.59730529785156 98.99652862548828 L 28.53242492675781 98.99652862548828 L -7.62939453125e-06 49.49826049804688 L 28.53244018554688 -7.62939453125e-06 Z" stroke="none" fill="#ed3b24"/>
    </g>
    <path id="Polygon_2" data-name="Polygon 2" d="M71.41,0l23.8,41.3L71.41,82.6H23.8L0,41.3,23.8,0Z" transform="translate(9.552 7.976)" fill="#fff"/>
    <g id="Polygon_3" data-name="Polygon 3" transform="translate(15.858 13.02)" fill="none" opacity="0.64">
      <path d="M61.952,0,82.6,36.257,61.952,72.513h-41.3L0,36.257,20.651,0Z" stroke="none"/>
      <path d="M 21.81307220458984 2 L 2.301651000976562 36.25668716430664 L 21.81307220458984 70.51337432861328 L 60.78913116455078 70.51337432861328 L 80.30055236816406 36.25668716430664 L 60.78913116455078 2 L 21.81307220458984 2 M 20.65055084228516 0 L 61.95165252685547 0 L 82.60220336914062 36.25668716430664 L 61.95165252685547 72.51337432861328 L 20.65055084228516 72.51337432861328 L 0 36.25668716430664 L 20.65055084228516 0 Z" stroke="none" fill="#ed3b24"/>
    </g>
  </g>
</svg>
