<svg xmlns="http://www.w3.org/2000/svg" width="162.913" height="156.83" viewBox="0 0 162.913 156.83">
  <g id="Group_19103" data-name="Group 19103" transform="translate(0 62.672) rotate(-30)" opacity="0.04">
    <g id="Polygon_1" data-name="Polygon 1" fill="none" opacity="0.42">
      <path d="M94.008,0l31.336,54.362L94.008,108.724H31.336L0,54.362,31.336,0Z" stroke="none"/>
      <path d="M 32.49168395996094 2 L 2.308494567871094 54.36198425292969 L 32.49166107177734 106.7239685058594 L 92.85253143310547 106.7239685058594 L 123.0356979370117 54.36198425292969 L 92.85253143310547 2 L 32.49168395996094 2 M 31.3360595703125 0 L 94.00814819335938 0 L 125.3441848754883 54.36198425292969 L 94.00814819335938 108.7239685058594 L 31.33604431152344 108.7239685058594 L 7.62939453125e-06 54.36198425292969 L 31.3360595703125 0 Z" stroke="none" fill="#ed3b24"/>
    </g>
    <path id="Polygon_2" data-name="Polygon 2" d="M78.427,0l26.142,45.359L78.427,90.719H26.142L0,45.359,26.142,0Z" transform="translate(10.491 8.76)" fill="#fff"/>
    <g id="Polygon_3" data-name="Polygon 3" transform="translate(17.416 14.3)" fill="none" opacity="0.64">
      <path d="M68.039,0l22.68,39.819L68.039,79.639H22.68L0,39.819,22.68,0Z" stroke="none"/>
      <path d="M 23.84221649169922 1.999992370605469 L 2.301651000976562 39.81928634643555 L 23.84220123291016 77.63856506347656 L 66.87651824951172 77.63856506347656 L 88.41706848144531 39.81928634643555 L 66.87651824951172 1.999992370605469 L 23.84221649169922 1.999992370605469 M 22.6796875 -7.62939453125e-06 L 68.03904724121094 -7.62939453125e-06 L 90.71872711181641 39.81928634643555 L 68.03904724121094 79.63856506347656 L 22.67967224121094 79.63856506347656 L -7.62939453125e-06 39.81928634643555 L 22.6796875 -7.62939453125e-06 Z" stroke="none" fill="#ed3b24"/>
    </g>
  </g>
</svg>
