<svg xmlns="http://www.w3.org/2000/svg" width="136.971" height="131.856" viewBox="0 0 136.971 131.856">
  <g id="Group_19101" data-name="Group 19101" transform="translate(0 52.692) rotate(-30)" opacity="0.04">
    <g id="Polygon_1" data-name="Polygon 1" fill="none" opacity="0.42">
      <path d="M79.038,0l26.346,45.705L79.038,91.411H26.346L0,45.705,26.346,0Z" stroke="none"/>
      <path d="M 27.50177764892578 2.000007629394531 L 2.308486938476562 45.70546722412109 L 27.50176239013672 89.41092681884766 L 77.88280487060547 89.41092681884766 L 103.0760955810547 45.70546722412109 L 77.88280487060547 2.000007629394531 L 27.50177764892578 2.000007629394531 M 26.34615325927734 7.62939453125e-06 L 79.03842926025391 7.62939453125e-06 L 105.3845825195312 45.70546722412109 L 79.03842926025391 91.41092681884766 L 26.34613800048828 91.41092681884766 L 0 45.70546722412109 L 26.34615325927734 7.62939453125e-06 Z" stroke="none" fill="#ed3b24"/>
    </g>
    <path id="Polygon_2" data-name="Polygon 2" d="M65.938,0,87.918,38.136,65.938,76.273H21.979L0,38.136,21.979,0Z" transform="translate(8.821 7.365)" fill="#fff"/>
    <g id="Polygon_3" data-name="Polygon 3" transform="translate(14.643 12.023)" fill="none" opacity="0.64">
      <path d="M57.2,0,76.273,33.479,57.2,66.957H19.068L0,33.479,19.068,0Z" stroke="none"/>
      <path d="M 20.23073577880859 1.999992370605469 L 2.301658630371094 33.47852325439453 L 20.2307243347168 64.95703887939453 L 56.04208374023438 64.95703887939453 L 73.97116088867188 33.47852325439453 L 56.04208374023438 1.999992370605469 L 20.23073577880859 1.999992370605469 M 19.06821060180664 -7.62939453125e-06 L 57.20460891723633 -7.62939453125e-06 L 76.27281951904297 33.47852325439453 L 57.20460891723633 66.95703887939453 L 19.06819915771484 66.95703887939453 L 0 33.47852325439453 L 19.06821060180664 -7.62939453125e-06 Z" stroke="none" fill="#ed3b24"/>
    </g>
  </g>
</svg>
