<svg xmlns="http://www.w3.org/2000/svg" width="141.961" height="136.66" viewBox="0 0 141.961 136.66">
  <g id="Group_18818" data-name="Group 18818" transform="translate(0 54.612) rotate(-30)" opacity="0.04">
    <g id="Polygon_1" data-name="Polygon 1" fill="none" opacity="0.42">
      <path d="M81.918,0l27.306,47.37L81.918,94.741H27.306L0,47.37,27.306,0Z" stroke="none"/>
      <path d="M 28.46148681640625 1.999992370605469 L 2.308486938476562 47.37037658691406 L 28.46147155761719 92.74074554443359 L 80.76193237304688 92.74074554443359 L 106.9149322509766 47.37037658691406 L 80.76193237304688 1.999992370605469 L 28.46148681640625 1.999992370605469 M 27.30586242675781 -7.62939453125e-06 L 81.91755676269531 -7.62939453125e-06 L 109.2234191894531 47.37037658691406 L 81.91755676269531 94.74074554443359 L 27.30584716796875 94.74074554443359 L 0 47.37037658691406 L 27.30586242675781 -7.62939453125e-06 Z" stroke="none" fill="#ed3b24"/>
    </g>
    <path id="Polygon_2" data-name="Polygon 2" d="M68.34,0,91.12,39.526,68.34,79.051H22.78L0,39.526,22.78,0Z" transform="translate(9.142 7.633)" fill="#fff"/>
    <g id="Polygon_3" data-name="Polygon 3" transform="translate(15.176 12.461)" fill="none" opacity="0.64">
      <path d="M59.288,0,79.051,34.7,59.288,69.4H19.763L0,34.7,19.763,0Z" stroke="none"/>
      <path d="M 20.92533111572266 2 L 2.301658630371094 34.69804763793945 L 20.92533111572266 67.39609527587891 L 58.12587738037109 67.39609527587891 L 76.74954223632812 34.69804763793945 L 58.12587738037109 2 L 20.92533111572266 2 M 19.7628059387207 0 L 59.28840637207031 0 L 79.05120086669922 34.69804763793945 L 59.28840637207031 69.39609527587891 L 19.7628059387207 69.39609527587891 L 7.62939453125e-06 34.69804763793945 L 19.7628059387207 0 Z" stroke="none" fill="#ed3b24"/>
    </g>
  </g>
</svg>
