<svg xmlns="http://www.w3.org/2000/svg" width="143.437" height="136.591" viewBox="0 0 143.437 136.591">
  <g id="Group_19173" data-name="Group 19173" transform="matrix(0.899, -0.438, 0.438, 0.899, 0, 49.161)" opacity="0.04">
    <g id="Polygon_1" data-name="Polygon 1" fill="none" opacity="0.42">
      <path d="M84.108,0l28.036,48.637L84.108,97.274H28.036L0,48.637,28.036,0Z" stroke="none"/>
      <path d="M 29.19171905517578 2.000007629394531 L 2.308464050292969 48.63722229003906 L 29.19171905517578 95.27443695068359 L 82.95269775390625 95.27443695068359 L 109.8359375 48.63722229003906 L 82.95269775390625 2.000007629394531 L 29.19171905517578 2.000007629394531 M 28.03610992431641 7.62939453125e-06 L 84.10830688476562 7.62939453125e-06 L 112.1444091796875 48.63722229003906 L 84.10830688476562 97.27443695068359 L 28.03610992431641 97.27443695068359 L -7.62939453125e-06 48.63722229003906 L 28.03610992431641 7.62939453125e-06 Z" stroke="none" fill="#ed3b24"/>
    </g>
    <path id="Polygon_2" data-name="Polygon 2" d="M70.168,0,93.557,40.583,70.168,81.165H23.389L0,40.583,23.389,0Z" transform="translate(9.386 7.837)" fill="#fff"/>
    <g id="Polygon_3" data-name="Polygon 3" transform="translate(15.582 12.794)" fill="none" opacity="0.64">
      <path d="M60.874,0,81.165,35.626,60.874,71.252H20.291L0,35.626,20.291,0Z" stroke="none"/>
      <path d="M 21.45386123657227 2 L 2.301651000976562 35.62599182128906 L 21.45384979248047 69.25198364257812 L 59.71145629882812 69.25198364257812 L 78.86363983154297 35.62599182128906 L 59.71145629882812 2 L 21.45386123657227 2 M 20.29133605957031 0 L 60.87398529052734 0 L 81.16529846191406 35.62599182128906 L 60.87398529052734 71.25198364257812 L 20.29132461547852 71.25198364257812 L -7.62939453125e-06 35.62599182128906 L 20.29133605957031 0 Z" stroke="none" fill="#ed3b24"/>
    </g>
  </g>
</svg>
