<svg xmlns="http://www.w3.org/2000/svg" width="202.495" height="24.118" viewBox="0 0 202.495 24.118">
  <g id="Group_72" data-name="Group 72" transform="translate(-840 -13326.994)">
    <path id="facebook-square-brands" d="M21.528,32H2.583A2.583,2.583,0,0,0,0,34.583V53.528a2.583,2.583,0,0,0,2.583,2.583H9.97v-8.2H6.579V44.056H9.97V41.115c0-3.345,1.991-5.193,5.041-5.193a20.541,20.541,0,0,1,2.988.26v3.283H16.317a1.929,1.929,0,0,0-2.175,2.084v2.505h3.7l-.592,3.858h-3.11v8.2h7.387a2.583,2.583,0,0,0,2.583-2.583V34.583A2.583,2.583,0,0,0,21.528,32Z" transform="translate(840 13295)" fill="#20214e"/>
    <path id="twitter-brands" d="M24.734,53.662c.017.245.017.49.017.735,0,7.469-5.685,16.075-16.075,16.075A15.966,15.966,0,0,1,0,67.935a11.688,11.688,0,0,0,1.364.07,11.315,11.315,0,0,0,7.014-2.414A5.66,5.66,0,0,1,3.1,61.673a7.126,7.126,0,0,0,1.067.087,5.975,5.975,0,0,0,1.487-.192,5.651,5.651,0,0,1-4.53-5.545v-.07a5.69,5.69,0,0,0,2.554.717,5.658,5.658,0,0,1-1.749-7.557,16.06,16.06,0,0,0,11.65,5.912,6.378,6.378,0,0,1-.14-1.294,5.655,5.655,0,0,1,9.778-3.866A11.124,11.124,0,0,0,26.8,48.5a5.635,5.635,0,0,1-2.484,3.114,11.326,11.326,0,0,0,3.253-.875,12.145,12.145,0,0,1-2.834,2.921Z" transform="translate(898.324 13279.775)" fill="#20214e"/>
    <path id="instagram-brands_1_" data-name="instagram-brands(1)" d="M11.983,37.7a6.182,6.182,0,1,0,6.18,6.182A6.171,6.171,0,0,0,11.983,37.7Zm0,10.2A4.019,4.019,0,1,1,16,43.881,4.026,4.026,0,0,1,11.983,47.9Zm7.875-10.454A1.442,1.442,0,1,1,18.417,36,1.438,1.438,0,0,1,19.858,37.446Zm4.093,1.463A7.136,7.136,0,0,0,22,33.857a7.18,7.18,0,0,0-5.051-1.948c-1.99-.113-7.956-.113-9.946,0a7.17,7.17,0,0,0-5.051,1.942A7.16,7.16,0,0,0,.01,38.9C-.1,40.895-.1,46.861.01,48.852A7.136,7.136,0,0,0,1.957,53.9a7.189,7.189,0,0,0,5.051,1.948c1.99.113,7.956.113,9.946,0A7.133,7.133,0,0,0,22,53.9a7.183,7.183,0,0,0,1.947-5.052C24.065,46.861,24.065,40.9,23.952,38.909ZM21.38,50.988a4.068,4.068,0,0,1-2.291,2.292c-1.587.629-5.352.484-7.106.484s-5.524.14-7.106-.484a4.068,4.068,0,0,1-2.291-2.292C1.957,49.4,2.1,45.635,2.1,43.881s-.14-5.525.484-7.107a4.068,4.068,0,0,1,2.291-2.292C6.464,33.852,10.23,34,11.983,34s5.524-.14,7.106.484a4.068,4.068,0,0,1,2.291,2.292c.629,1.587.484,5.353.484,7.107S22.01,49.406,21.38,50.988Z" transform="translate(960.154 13295.175)" fill="#20214e"/>
    <path id="Path_33790" data-name="Path 33790" d="M86.189,64H66.061A1.967,1.967,0,0,0,64,65.878V86.051a2.122,2.122,0,0,0,2.061,2.067H86.183a2.014,2.014,0,0,0,1.935-2.067V65.878A1.849,1.849,0,0,0,86.189,64ZM71.476,84.1H68.021V73.361h3.455ZM69.868,71.727h-.025a1.879,1.879,0,1,1,.025,0ZM84.1,84.1H80.648V78.229c0-1.407-.5-2.368-1.753-2.368a1.89,1.89,0,0,0-1.772,1.275,2.326,2.326,0,0,0-.119.848V84.1H73.549V73.361H77v1.5a3.5,3.5,0,0,1,3.116-1.746c2.268,0,3.983,1.5,3.983,4.718Z" transform="translate(954.377 13262.994)" fill="#20214e"/>
  </g>
</svg>
