<svg xmlns="http://www.w3.org/2000/svg" width="137.234" height="132.109" viewBox="0 0 137.234 132.109">
  <g id="Group_168" data-name="Group 168" transform="translate(0 52.793) rotate(-30)" opacity="0.04">
    <g id="Polygon_1" data-name="Polygon 1" fill="none" opacity="0.42">
      <path d="M79.19,0l26.4,45.793L79.19,91.586H26.4L0,45.793,26.4,0Z" stroke="none"/>
      <path d="M 27.55229949951172 1.999992370605469 L 2.308486938476562 45.79312515258789 L 27.55227661132812 89.58624267578125 L 78.03440093994141 89.58624267578125 L 103.2781982421875 45.79311752319336 L 78.03440093994141 1.999992370605469 L 27.55229949951172 1.999992370605469 M 26.39667510986328 -7.62939453125e-06 L 79.19001770019531 -7.62939453125e-06 L 105.5866775512695 45.79311752319336 L 79.19001770019531 91.58624267578125 L 26.39665985107422 91.58624267578125 L 0 45.79311752319336 L 26.39667510986328 -7.62939453125e-06 Z" stroke="none" fill="#ed3b24"/>
    </g>
    <path id="Polygon_2" data-name="Polygon 2" d="M66.065,0,88.086,38.21,66.065,76.419H22.022L0,38.21,22.022,0Z" transform="translate(8.837 7.379)" fill="#fff"/>
    <g id="Polygon_3" data-name="Polygon 3" transform="translate(14.671 12.046)" fill="none" opacity="0.64">
      <path d="M57.314,0l19.1,33.543-19.1,33.543H19.1L0,33.543,19.1,0Z" stroke="none"/>
      <path d="M 20.26729965209961 2 L 2.301651000976562 33.54272842407227 L 20.26729965209961 65.08545684814453 L 56.15179824829102 65.08545684814453 L 74.11744689941406 33.54272842407227 L 56.15179824829102 2 L 20.26729965209961 2 M 19.10477066040039 0 L 57.31432342529297 0 L 76.41910552978516 33.54272842407227 L 57.31432342529297 67.08545684814453 L 19.10477066040039 67.08545684814453 L -7.62939453125e-06 33.54272842407227 L 19.10477066040039 0 Z" stroke="none" fill="#ed3b24"/>
    </g>
  </g>
</svg>
