<svg id="Group_169" data-name="Group 169" xmlns="http://www.w3.org/2000/svg" width="49.364" height="49.388" viewBox="0 0 49.364 49.388">
  <path id="Path_1" data-name="Path 1" d="M1424.756,140.633a6.5,6.5,0,0,0-1.366-7.171l-10.5-10.5a35.813,35.813,0,0,0,8.649,14.456Z" transform="translate(-1408.152 -96.443)" fill="none"/>
  <path id="Path_2" data-name="Path 2" d="M1513.613,53.46l10.5,10.5A35.824,35.824,0,0,0,1515.46,49.5l-3.212-3.212A6.5,6.5,0,0,0,1513.613,53.46Z" transform="translate(-1479.489 -41.091)" fill="none"/>
  <path id="Path_3" data-name="Path 3" d="M1421.525,55.152l10.5-10.5a35.821,35.821,0,0,0-14.456,8.65l-3.214,3.214a6.5,6.5,0,0,0,7.173-1.368Z" transform="translate(-1409.204 -39.912)" fill="none"/>
  <path id="Path_4" data-name="Path 4" d="M1501.783,145.448l-10.5,10.5a35.8,35.8,0,0,0,14.456-8.65l3.214-3.214a6.5,6.5,0,0,0-7.173,1.368Z" transform="translate(-1464.74 -111.3)" fill="none"/>
  <path id="Path_5" data-name="Path 5" d="M1413.634,44.526,1430.559,27.6l-6.726,1.841a38.854,38.854,0,0,0-17.53,9.866l-5.218,5.219a8.875,8.875,0,0,0,12.55,0Zm-5.646-3.533a35.814,35.814,0,0,1,14.455-8.65l-10.5,10.5a6.5,6.5,0,0,1-7.173,1.368Z" transform="translate(-1399.625 -27.6)" fill="#ed3b24"/>
  <path id="Path_6" data-name="Path 6" d="M1407.547,118.044l5.218,5.218a8.875,8.875,0,0,0,0-12.549l-16.925-16.925,1.84,6.727A38.852,38.852,0,0,0,1407.547,118.044Zm3.532-5.645a6.5,6.5,0,0,1,1.365,7.171l-3.212-3.212a35.81,35.81,0,0,1-8.649-14.456Z" transform="translate(-1395.839 -75.38)" fill="#262e3a"/>
  <path id="Path_7" data-name="Path 7" d="M1485.309,134.975a8.847,8.847,0,0,0-6.275,2.6L1462.109,154.5l6.727-1.84a38.855,38.855,0,0,0,17.53-9.867l5.218-5.218a8.85,8.85,0,0,0-6.275-2.6Zm-.63,6.131a35.8,35.8,0,0,1-14.456,8.65l10.5-10.5a6.5,6.5,0,0,1,7.173-1.368Z" transform="translate(-1443.679 -105.112)" fill="#ed3b24"/>
  <path id="Path_8" data-name="Path 8" d="M1505.73,45.561l16.925,16.925-1.84-6.727a38.86,38.86,0,0,0-9.868-17.53l-5.218-5.218A8.874,8.874,0,0,0,1505.73,45.561Zm.321-8.857,3.212,3.212a35.829,35.829,0,0,1,8.649,14.456l-10.5-10.5A6.5,6.5,0,0,1,1506.05,36.7Z" transform="translate(-1473.291 -31.507)" fill="#262e3a"/>
</svg>
