<svg xmlns:xlink="http://www.w3.org/1999/xlink" xmlns="http://www.w3.org/2000/svg" width="712.709" height="627.871" viewBox="0 0 712.709 627.871">
  <defs>
    <filter id="Polygon_3" x="238.919" y="90.389" width="240.418" height="233.089" filterUnits="userSpaceOnUse">
      <feOffset dx="-3" dy="7" input="SourceAlpha"/>
      <feGaussianBlur stdDeviation="4.5" result="blur"/>
      <feFlood flood-opacity="0.549"/>
      <feComposite operator="in" in2="blur"/>
      <feComposite in="SourceGraphic"/>
    </filter>
    <filter id="Polygon_3-2" x="364.769" y="267.815" width="240.418" height="233.089" filterUnits="userSpaceOnUse">
      <feOffset dx="-3" dy="7" input="SourceAlpha"/>
      <feGaussianBlur stdDeviation="4.5" result="blur-2"/>
      <feFlood flood-opacity="0.549"/>
      <feComposite operator="in" in2="blur-2"/>
      <feComposite in="SourceGraphic"/>
    </filter>
    <filter id="Polygon_3-3" x="114.5" y="270" width="234.384" height="227.092" filterUnits="userSpaceOnUse">
      <feOffset dx="-3" dy="7" input="SourceAlpha"/>
      <feGaussianBlur stdDeviation="4.5" result="blur-3"/>
      <feFlood flood-opacity="0.549"/>
      <feComposite operator="in" in2="blur-3"/>
      <feComposite in="SourceGraphic"/>
    </filter>
  </defs>
  <g id="Group_19263" data-name="Group 19263" transform="translate(-716 -148.501)">
    <g id="Group_19262" data-name="Group 19262">
      <g id="Group_19103" data-name="Group 19103" transform="translate(999.543 636.109) rotate(-30)" opacity="0.04">
        <g id="Polygon_1" data-name="Polygon 1" fill="none" opacity="0.42">
          <path d="M94.008,0l31.336,54.362L94.008,108.724H31.336L0,54.362,31.336,0Z" stroke="none"/>
          <path d="M 32.49168395996094 2 L 2.308494567871094 54.36198425292969 L 32.49166107177734 106.7239685058594 L 92.85253143310547 106.7239685058594 L 123.0356979370117 54.36198425292969 L 92.85253143310547 2 L 32.49168395996094 2 M 31.3360595703125 0 L 94.00814819335938 0 L 125.3441848754883 54.36198425292969 L 94.00814819335938 108.7239685058594 L 31.33604431152344 108.7239685058594 L 7.62939453125e-06 54.36198425292969 L 31.3360595703125 0 Z" stroke="none" fill="#ed3b24"/>
        </g>
        <path id="Polygon_2" data-name="Polygon 2" d="M78.427,0l26.142,45.359L78.427,90.719H26.142L0,45.359,26.142,0Z" transform="translate(10.491 8.76)" fill="#fff"/>
        <g id="Polygon_3-4" data-name="Polygon 3" transform="translate(17.416 14.3)" fill="none" opacity="0.64">
          <path d="M68.039,0l22.68,39.819L68.039,79.639H22.68L0,39.819,22.68,0Z" stroke="none"/>
          <path d="M 23.84221649169922 1.999992370605469 L 2.301651000976562 39.81928634643555 L 23.84220123291016 77.63856506347656 L 66.87651824951172 77.63856506347656 L 88.41706848144531 39.81928634643555 L 66.87651824951172 1.999992370605469 L 23.84221649169922 1.999992370605469 M 22.6796875 -7.62939453125e-06 L 68.03904724121094 -7.62939453125e-06 L 90.71872711181641 39.81928634643555 L 68.03904724121094 79.63856506347656 L 22.67967224121094 79.63856506347656 L -7.62939453125e-06 39.81928634643555 L 22.6796875 -7.62939453125e-06 Z" stroke="none" fill="#ed3b24"/>
        </g>
      </g>
      <g id="Group_167" data-name="Group 167" transform="translate(898.936 690.604) rotate(-30)" opacity="0.04">
        <g id="Polygon_1-2" data-name="Polygon 1" fill="none" opacity="0.42">
          <path d="M85.632,0l28.544,49.518L85.632,99.036H28.544L0,49.518,28.544,0Z" stroke="none"/>
          <path d="M 29.69953918457031 2.000007629394531 L 2.3084716796875 49.5181884765625 L 29.69952392578125 97.03636932373047 L 84.47617340087891 97.03636932373047 L 111.8672256469727 49.5181884765625 L 84.47617340087891 2.000007629394531 L 29.69953918457031 2.000007629394531 M 28.54393005371094 7.62939453125e-06 L 85.63178253173828 7.62939453125e-06 L 114.1756973266602 49.5181884765625 L 85.63178253173828 99.03636932373047 L 28.54391479492188 99.03636932373047 L 0 49.5181884765625 L 28.54393005371094 7.62939453125e-06 Z" stroke="none" fill="#ed3b24"/>
        </g>
        <path id="Polygon_2-2" data-name="Polygon 2" d="M71.439,0,95.252,41.318,71.439,82.635H23.813L0,41.318,23.813,0Z" transform="translate(9.556 7.979)" fill="#fff"/>
        <g id="Polygon_3-5" data-name="Polygon 3" transform="translate(15.864 13.026)" fill="none" opacity="0.64">
          <path d="M61.977,0,82.635,36.271,61.977,72.543H20.659L0,36.271,20.659,0Z" stroke="none"/>
          <path d="M 21.82138442993164 2 L 2.301651000976562 36.27128601074219 L 21.82138442993164 70.54257202148438 L 60.81406784057617 70.54257202148438 L 80.33380126953125 36.27128601074219 L 60.81406784057617 2 L 21.82138442993164 2 M 20.65886306762695 0 L 61.97658920288086 0 L 82.63545227050781 36.27128601074219 L 61.97658920288086 72.54257202148438 L 20.65886306762695 72.54257202148438 L 0 36.27128601074219 L 20.65886306762695 0 Z" stroke="none" fill="#ed3b24"/>
        </g>
      </g>
      <g id="Group_19102" data-name="Group 19102" transform="translate(1118.727 684.441) rotate(-30)" opacity="0.04">
        <g id="Polygon_1-3" data-name="Polygon 1" fill="none" opacity="0.42">
          <path d="M85.6,0,114.13,49.5,85.6,99H28.532L0,49.5,28.532,0Z" stroke="none"/>
          <path d="M 29.68804931640625 1.999992370605469 L 2.3084716796875 49.49826049804688 L 29.68803405761719 96.99652862548828 L 84.44170379638672 96.99652862548828 L 111.8212661743164 49.49826049804688 L 84.44170379638672 1.999992370605469 L 29.68804931640625 1.999992370605469 M 28.53244018554688 -7.62939453125e-06 L 85.59730529785156 -7.62939453125e-06 L 114.1297454833984 49.49826049804688 L 85.59730529785156 98.99652862548828 L 28.53242492675781 98.99652862548828 L -7.62939453125e-06 49.49826049804688 L 28.53244018554688 -7.62939453125e-06 Z" stroke="none" fill="#ed3b24"/>
        </g>
        <path id="Polygon_2-3" data-name="Polygon 2" d="M71.41,0l23.8,41.3L71.41,82.6H23.8L0,41.3,23.8,0Z" transform="translate(9.552 7.976)" fill="#fff"/>
        <g id="Polygon_3-6" data-name="Polygon 3" transform="translate(15.858 13.02)" fill="none" opacity="0.64">
          <path d="M61.952,0,82.6,36.257,61.952,72.513h-41.3L0,36.257,20.651,0Z" stroke="none"/>
          <path d="M 21.81307220458984 2 L 2.301651000976562 36.25668716430664 L 21.81307220458984 70.51337432861328 L 60.78913116455078 70.51337432861328 L 80.30055236816406 36.25668716430664 L 60.78913116455078 2 L 21.81307220458984 2 M 20.65055084228516 0 L 61.95165252685547 0 L 82.60220336914062 36.25668716430664 L 61.95165252685547 72.51337432861328 L 20.65055084228516 72.51337432861328 L 0 36.25668716430664 L 20.65055084228516 0 Z" stroke="none" fill="#ed3b24"/>
        </g>
      </g>
      <g id="Group_18818" data-name="Group 18818" transform="translate(1286.748 559.953) rotate(-30)" opacity="0.04">
        <g id="Polygon_1-4" data-name="Polygon 1" fill="none" opacity="0.42">
          <path d="M81.918,0l27.306,47.37L81.918,94.741H27.306L0,47.37,27.306,0Z" stroke="none"/>
          <path d="M 28.46148681640625 1.999992370605469 L 2.308486938476562 47.37037658691406 L 28.46147155761719 92.74074554443359 L 80.76193237304688 92.74074554443359 L 106.9149322509766 47.37037658691406 L 80.76193237304688 1.999992370605469 L 28.46148681640625 1.999992370605469 M 27.30586242675781 -7.62939453125e-06 L 81.91755676269531 -7.62939453125e-06 L 109.2234191894531 47.37037658691406 L 81.91755676269531 94.74074554443359 L 27.30584716796875 94.74074554443359 L 0 47.37037658691406 L 27.30586242675781 -7.62939453125e-06 Z" stroke="none" fill="#ed3b24"/>
        </g>
        <path id="Polygon_2-4" data-name="Polygon 2" d="M68.34,0,91.12,39.526,68.34,79.051H22.78L0,39.526,22.78,0Z" transform="translate(9.142 7.633)" fill="#fff"/>
        <g id="Polygon_3-7" data-name="Polygon 3" transform="translate(15.176 12.461)" fill="none" opacity="0.64">
          <path d="M59.288,0,79.051,34.7,59.288,69.4H19.763L0,34.7,19.763,0Z" stroke="none"/>
          <path d="M 20.92533111572266 2 L 2.301658630371094 34.69804763793945 L 20.92533111572266 67.39609527587891 L 58.12587738037109 67.39609527587891 L 76.74954223632812 34.69804763793945 L 58.12587738037109 2 L 20.92533111572266 2 M 19.7628059387207 0 L 59.28840637207031 0 L 79.05120086669922 34.69804763793945 L 59.28840637207031 69.39609527587891 L 19.7628059387207 69.39609527587891 L 7.62939453125e-06 34.69804763793945 L 19.7628059387207 0 Z" stroke="none" fill="#ed3b24"/>
        </g>
      </g>
      <g id="Group_19172" data-name="Group 19172" transform="translate(785 671.613) rotate(-30)" opacity="0.04">
        <g id="Polygon_1-5" data-name="Polygon 1" fill="none" opacity="0.42">
          <path d="M81.918,0l27.306,47.37L81.918,94.741H27.306L0,47.37,27.306,0Z" stroke="none"/>
          <path d="M 28.46148681640625 1.999992370605469 L 2.308486938476562 47.37037658691406 L 28.46147155761719 92.74074554443359 L 80.76193237304688 92.74074554443359 L 106.9149322509766 47.37037658691406 L 80.76193237304688 1.999992370605469 L 28.46148681640625 1.999992370605469 M 27.30586242675781 -7.62939453125e-06 L 81.91755676269531 -7.62939453125e-06 L 109.2234191894531 47.37037658691406 L 81.91755676269531 94.74074554443359 L 27.30584716796875 94.74074554443359 L 0 47.37037658691406 L 27.30586242675781 -7.62939453125e-06 Z" stroke="none" fill="#ed3b24"/>
        </g>
        <path id="Polygon_2-5" data-name="Polygon 2" d="M68.34,0,91.12,39.526,68.34,79.051H22.78L0,39.526,22.78,0Z" transform="translate(9.142 7.633)" fill="#fff"/>
        <g id="Polygon_3-8" data-name="Polygon 3" transform="translate(15.176 12.461)" fill="none" opacity="0.64">
          <path d="M59.288,0,79.051,34.7,59.288,69.4H19.763L0,34.7,19.763,0Z" stroke="none"/>
          <path d="M 20.92533111572266 2 L 2.301658630371094 34.69804763793945 L 20.92533111572266 67.39609527587891 L 58.12587738037109 67.39609527587891 L 76.74954223632812 34.69804763793945 L 58.12587738037109 2 L 20.92533111572266 2 M 19.7628059387207 0 L 59.28840637207031 0 L 79.05120086669922 34.69804763793945 L 59.28840637207031 69.39609527587891 L 19.7628059387207 69.39609527587891 L 7.62939453125e-06 34.69804763793945 L 19.7628059387207 0 Z" stroke="none" fill="#ed3b24"/>
        </g>
      </g>
      <g id="Group_19174" data-name="Group 19174" transform="translate(1243.039 671.613) rotate(-30)" opacity="0.04">
        <g id="Polygon_1-6" data-name="Polygon 1" fill="none" opacity="0.42">
          <path d="M81.918,0l27.306,47.37L81.918,94.741H27.306L0,47.37,27.306,0Z" stroke="none"/>
          <path d="M 28.46148681640625 1.999992370605469 L 2.308486938476562 47.37037658691406 L 28.46147155761719 92.74074554443359 L 80.76193237304688 92.74074554443359 L 106.9149322509766 47.37037658691406 L 80.76193237304688 1.999992370605469 L 28.46148681640625 1.999992370605469 M 27.30586242675781 -7.62939453125e-06 L 81.91755676269531 -7.62939453125e-06 L 109.2234191894531 47.37037658691406 L 81.91755676269531 94.74074554443359 L 27.30584716796875 94.74074554443359 L 0 47.37037658691406 L 27.30586242675781 -7.62939453125e-06 Z" stroke="none" fill="#ed3b24"/>
        </g>
        <path id="Polygon_2-6" data-name="Polygon 2" d="M68.34,0,91.12,39.526,68.34,79.051H22.78L0,39.526,22.78,0Z" transform="translate(9.142 7.633)" fill="#fff"/>
        <g id="Polygon_3-9" data-name="Polygon 3" transform="translate(15.176 12.461)" fill="none" opacity="0.64">
          <path d="M59.288,0,79.051,34.7,59.288,69.4H19.763L0,34.7,19.763,0Z" stroke="none"/>
          <path d="M 20.92533111572266 2 L 2.301658630371094 34.69804763793945 L 20.92533111572266 67.39609527587891 L 58.12587738037109 67.39609527587891 L 76.74954223632812 34.69804763793945 L 58.12587738037109 2 L 20.92533111572266 2 M 19.7628059387207 0 L 59.28840637207031 0 L 79.05120086669922 34.69804763793945 L 59.28840637207031 69.39609527587891 L 19.7628059387207 69.39609527587891 L 7.62939453125e-06 34.69804763793945 L 19.7628059387207 0 Z" stroke="none" fill="#ed3b24"/>
        </g>
      </g>
      <g id="Group_164" data-name="Group 164" transform="translate(716 553.75) rotate(-30)" opacity="0.04">
        <g id="Polygon_1-7" data-name="Polygon 1" fill="none" opacity="0.42">
          <path d="M88.112,0l29.371,50.953L88.112,101.905H29.371L0,50.953,29.371,0Z" stroke="none"/>
          <path d="M 30.52643585205078 2 L 2.3084716796875 50.95270156860352 L 30.52642059326172 99.90540313720703 L 86.95687103271484 99.90540313720703 L 115.1748199462891 50.95270156860352 L 86.95687103271484 2 L 30.52643585205078 2 M 29.37082672119141 0 L 88.11248016357422 0 L 117.4832992553711 50.95270156860352 L 88.11248016357422 101.905403137207 L 29.37081146240234 101.905403137207 L -7.62939453125e-06 50.95270156860352 L 29.37082672119141 0 Z" stroke="none" fill="#ed3b24"/>
        </g>
        <path id="Polygon_2-7" data-name="Polygon 2" d="M73.508,0l24.5,42.515-24.5,42.515H24.5L0,42.515,24.5,0Z" transform="translate(9.833 8.21)" fill="#fff"/>
        <g id="Polygon_3-10" data-name="Polygon 3" transform="translate(16.324 13.403)" fill="none" opacity="0.64">
          <path d="M63.772,0,85.029,37.322,63.772,74.644H21.257L0,37.322,21.257,0Z" stroke="none"/>
          <path d="M 22.41986083984375 2 L 2.301651000976562 37.32204055786133 L 22.41986083984375 72.64408111572266 L 62.60948944091797 72.64408111572266 L 82.72769927978516 37.32204055786133 L 62.60948944091797 2 L 22.41986083984375 2 M 21.25733947753906 0 L 63.77201080322266 0 L 85.02935028076172 37.32204055786133 L 63.77201080322266 74.64408111572266 L 21.25733947753906 74.64408111572266 L 0 37.32204055786133 L 21.25733947753906 0 Z" stroke="none" fill="#ed3b24"/>
        </g>
      </g>
      <g id="Group_165" data-name="Group 165" transform="matrix(0.899, -0.438, 0.438, 0.899, 1270.225, 413.865)" opacity="0.04">
        <g id="Polygon_1-8" data-name="Polygon 1" fill="none" opacity="0.42">
          <path d="M84.108,0l28.036,48.637L84.108,97.274H28.036L0,48.637,28.036,0Z" stroke="none"/>
          <path d="M 29.19171905517578 2.000007629394531 L 2.308464050292969 48.63722229003906 L 29.19171905517578 95.27443695068359 L 82.95269775390625 95.27443695068359 L 109.8359375 48.63722229003906 L 82.95269775390625 2.000007629394531 L 29.19171905517578 2.000007629394531 M 28.03610992431641 7.62939453125e-06 L 84.10830688476562 7.62939453125e-06 L 112.1444091796875 48.63722229003906 L 84.10830688476562 97.27443695068359 L 28.03610992431641 97.27443695068359 L -7.62939453125e-06 48.63722229003906 L 28.03610992431641 7.62939453125e-06 Z" stroke="none" fill="#ed3b24"/>
        </g>
        <path id="Polygon_2-8" data-name="Polygon 2" d="M70.168,0,93.557,40.583,70.168,81.165H23.389L0,40.583,23.389,0Z" transform="translate(9.386 7.837)" fill="#fff"/>
        <g id="Polygon_3-11" data-name="Polygon 3" transform="translate(15.582 12.794)" fill="none" opacity="0.64">
          <path d="M60.874,0,81.165,35.626,60.874,71.252H20.291L0,35.626,20.291,0Z" stroke="none"/>
          <path d="M 21.45386123657227 2 L 2.301651000976562 35.62599182128906 L 21.45384979248047 69.25198364257812 L 59.71145629882812 69.25198364257812 L 78.86363983154297 35.62599182128906 L 59.71145629882812 2 L 21.45386123657227 2 M 20.29133605957031 0 L 60.87398529052734 0 L 81.16529846191406 35.62599182128906 L 60.87398529052734 71.25198364257812 L 20.29132461547852 71.25198364257812 L -7.62939453125e-06 35.62599182128906 L 20.29133605957031 0 Z" stroke="none" fill="#ed3b24"/>
        </g>
      </g>
      <g id="Group_19173" data-name="Group 19173" transform="matrix(0.899, -0.438, 0.438, 0.899, 741, 417.912)" opacity="0.04">
        <g id="Polygon_1-9" data-name="Polygon 1" fill="none" opacity="0.42">
          <path d="M84.108,0l28.036,48.637L84.108,97.274H28.036L0,48.637,28.036,0Z" stroke="none"/>
          <path d="M 29.19171905517578 2.000007629394531 L 2.308464050292969 48.63722229003906 L 29.19171905517578 95.27443695068359 L 82.95269775390625 95.27443695068359 L 109.8359375 48.63722229003906 L 82.95269775390625 2.000007629394531 L 29.19171905517578 2.000007629394531 M 28.03610992431641 7.62939453125e-06 L 84.10830688476562 7.62939453125e-06 L 112.1444091796875 48.63722229003906 L 84.10830688476562 97.27443695068359 L 28.03610992431641 97.27443695068359 L -7.62939453125e-06 48.63722229003906 L 28.03610992431641 7.62939453125e-06 Z" stroke="none" fill="#ed3b24"/>
        </g>
        <path id="Polygon_2-9" data-name="Polygon 2" d="M70.168,0,93.557,40.583,70.168,81.165H23.389L0,40.583,23.389,0Z" transform="translate(9.386 7.837)" fill="#fff"/>
        <g id="Polygon_3-12" data-name="Polygon 3" transform="translate(15.582 12.794)" fill="none" opacity="0.64">
          <path d="M60.874,0,81.165,35.626,60.874,71.252H20.291L0,35.626,20.291,0Z" stroke="none"/>
          <path d="M 21.45386123657227 2 L 2.301651000976562 35.62599182128906 L 21.45384979248047 69.25198364257812 L 59.71145629882812 69.25198364257812 L 78.86363983154297 35.62599182128906 L 59.71145629882812 2 L 21.45386123657227 2 M 20.29133605957031 0 L 60.87398529052734 0 L 81.16529846191406 35.62599182128906 L 60.87398529052734 71.25198364257812 L 20.29132461547852 71.25198364257812 L -7.62939453125e-06 35.62599182128906 L 20.29133605957031 0 Z" stroke="none" fill="#ed3b24"/>
        </g>
      </g>
      <g id="Group_166" data-name="Group 166" transform="translate(917.646 209.369) rotate(-30)" opacity="0.04">
        <g id="Polygon_1-10" data-name="Polygon 1" fill="none" opacity="0.42">
          <path d="M83.5,0l27.833,48.284L83.5,96.569H27.833L0,48.284,27.833,0Z" stroke="none"/>
          <path d="M 28.98827362060547 1.999992370605469 L 2.308479309082031 48.28425216674805 L 28.98825836181641 94.56849670410156 L 82.34231567382812 94.56849670410156 L 109.0220794677734 48.28425216674805 L 82.34231567382812 1.999992370605469 L 28.98827362060547 1.999992370605469 M 27.83264923095703 -7.62939453125e-06 L 83.4979248046875 -7.62939453125e-06 L 111.3305587768555 48.28425216674805 L 83.4979248046875 96.56849670410156 L 27.83263397216797 96.56849670410156 L -7.62939453125e-06 48.28425216674805 L 27.83264923095703 -7.62939453125e-06 Z" stroke="none" fill="#ed3b24"/>
        </g>
        <path id="Polygon_2-10" data-name="Polygon 2" d="M69.658,0,92.878,40.288,69.658,80.576H23.219L0,40.288,23.22,0Z" transform="translate(9.318 7.78)" fill="#fff"/>
        <g id="Polygon_3-13" data-name="Polygon 3" transform="translate(15.469 12.701)" fill="none" opacity="0.64">
          <path d="M60.432,0,80.576,35.367,60.432,70.735H20.144L0,35.367,20.144,0Z" stroke="none"/>
          <path d="M 21.30660247802734 1.999992370605469 L 2.301651000976562 35.3674430847168 L 21.30659103393555 68.73489379882812 L 59.26967620849609 68.73489379882812 L 78.27460479736328 35.3674430847168 L 59.26967620849609 1.999992370605469 L 21.30660247802734 1.999992370605469 M 20.14407730102539 -7.62939453125e-06 L 60.43220520019531 -7.62939453125e-06 L 80.57626342773438 35.3674430847168 L 60.43220520019531 70.73489379882812 L 20.14406585693359 70.73489379882812 L -7.62939453125e-06 35.3674430847168 L 20.14407730102539 -7.62939453125e-06 Z" stroke="none" fill="#ed3b24"/>
        </g>
      </g>
      <g id="Group_19104" data-name="Group 19104" transform="translate(1091 204.166) rotate(-30)" opacity="0.04">
        <g id="Polygon_1-11" data-name="Polygon 1" fill="none" opacity="0.42">
          <path d="M83.5,0l27.833,48.284L83.5,96.569H27.833L0,48.284,27.833,0Z" stroke="none"/>
          <path d="M 28.98827362060547 1.999992370605469 L 2.308479309082031 48.28425216674805 L 28.98825836181641 94.56849670410156 L 82.34231567382812 94.56849670410156 L 109.0220794677734 48.28425216674805 L 82.34231567382812 1.999992370605469 L 28.98827362060547 1.999992370605469 M 27.83264923095703 -7.62939453125e-06 L 83.4979248046875 -7.62939453125e-06 L 111.3305587768555 48.28425216674805 L 83.4979248046875 96.56849670410156 L 27.83263397216797 96.56849670410156 L -7.62939453125e-06 48.28425216674805 L 27.83264923095703 -7.62939453125e-06 Z" stroke="none" fill="#ed3b24"/>
        </g>
        <path id="Polygon_2-11" data-name="Polygon 2" d="M69.658,0,92.878,40.288,69.658,80.576H23.219L0,40.288,23.22,0Z" transform="translate(9.318 7.78)" fill="#fff"/>
        <g id="Polygon_3-14" data-name="Polygon 3" transform="translate(15.469 12.701)" fill="none" opacity="0.64">
          <path d="M60.432,0,80.576,35.367,60.432,70.735H20.144L0,35.367,20.144,0Z" stroke="none"/>
          <path d="M 21.30660247802734 1.999992370605469 L 2.301651000976562 35.3674430847168 L 21.30659103393555 68.73489379882812 L 59.26967620849609 68.73489379882812 L 78.27460479736328 35.3674430847168 L 59.26967620849609 1.999992370605469 L 21.30660247802734 1.999992370605469 M 20.14407730102539 -7.62939453125e-06 L 60.43220520019531 -7.62939453125e-06 L 80.57626342773438 35.3674430847168 L 60.43220520019531 70.73489379882812 L 20.14406585693359 70.73489379882812 L -7.62939453125e-06 35.3674430847168 L 20.14407730102539 -7.62939453125e-06 Z" stroke="none" fill="#ed3b24"/>
        </g>
      </g>
      <g id="Group_19101" data-name="Group 19101" transform="translate(836.164 343.152) rotate(-30)" opacity="0.04">
        <g id="Polygon_1-12" data-name="Polygon 1" fill="none" opacity="0.42">
          <path d="M79.038,0l26.346,45.705L79.038,91.411H26.346L0,45.705,26.346,0Z" stroke="none"/>
          <path d="M 27.50177764892578 2.000007629394531 L 2.308486938476562 45.70546722412109 L 27.50176239013672 89.41092681884766 L 77.88280487060547 89.41092681884766 L 103.0760955810547 45.70546722412109 L 77.88280487060547 2.000007629394531 L 27.50177764892578 2.000007629394531 M 26.34615325927734 7.62939453125e-06 L 79.03842926025391 7.62939453125e-06 L 105.3845825195312 45.70546722412109 L 79.03842926025391 91.41092681884766 L 26.34613800048828 91.41092681884766 L 0 45.70546722412109 L 26.34615325927734 7.62939453125e-06 Z" stroke="none" fill="#ed3b24"/>
        </g>
        <path id="Polygon_2-12" data-name="Polygon 2" d="M65.938,0,87.918,38.136,65.938,76.273H21.979L0,38.136,21.979,0Z" transform="translate(8.821 7.365)" fill="#fff"/>
        <g id="Polygon_3-15" data-name="Polygon 3" transform="translate(14.643 12.023)" fill="none" opacity="0.64">
          <path d="M57.2,0,76.273,33.479,57.2,66.957H19.068L0,33.479,19.068,0Z" stroke="none"/>
          <path d="M 20.23073577880859 1.999992370605469 L 2.301658630371094 33.47852325439453 L 20.2307243347168 64.95703887939453 L 56.04208374023438 64.95703887939453 L 73.97116088867188 33.47852325439453 L 56.04208374023438 1.999992370605469 L 20.23073577880859 1.999992370605469 M 19.06821060180664 -7.62939453125e-06 L 57.20460891723633 -7.62939453125e-06 L 76.27281951904297 33.47852325439453 L 57.20460891723633 66.95703887939453 L 19.06819915771484 66.95703887939453 L 0 33.47852325439453 L 19.06821060180664 -7.62939453125e-06 Z" stroke="none" fill="#ed3b24"/>
        </g>
      </g>
      <g id="Group_168" data-name="Group 168" transform="translate(1180.559 344.26) rotate(-30)" opacity="0.04">
        <g id="Polygon_1-13" data-name="Polygon 1" fill="none" opacity="0.42">
          <path d="M79.19,0l26.4,45.793L79.19,91.586H26.4L0,45.793,26.4,0Z" stroke="none"/>
          <path d="M 27.55229949951172 1.999992370605469 L 2.308486938476562 45.79312515258789 L 27.55227661132812 89.58624267578125 L 78.03440093994141 89.58624267578125 L 103.2781982421875 45.79311752319336 L 78.03440093994141 1.999992370605469 L 27.55229949951172 1.999992370605469 M 26.39667510986328 -7.62939453125e-06 L 79.19001770019531 -7.62939453125e-06 L 105.5866775512695 45.79311752319336 L 79.19001770019531 91.58624267578125 L 26.39665985107422 91.58624267578125 L 0 45.79311752319336 L 26.39667510986328 -7.62939453125e-06 Z" stroke="none" fill="#ed3b24"/>
        </g>
        <path id="Polygon_2-13" data-name="Polygon 2" d="M66.065,0,88.086,38.21,66.065,76.419H22.022L0,38.21,22.022,0Z" transform="translate(8.837 7.379)" fill="#fff"/>
        <g id="Polygon_3-16" data-name="Polygon 3" transform="translate(14.671 12.046)" fill="none" opacity="0.64">
          <path d="M57.314,0l19.1,33.543-19.1,33.543H19.1L0,33.543,19.1,0Z" stroke="none"/>
          <path d="M 20.26729965209961 2 L 2.301651000976562 33.54272842407227 L 20.26729965209961 65.08545684814453 L 56.15179824829102 65.08545684814453 L 74.11744689941406 33.54272842407227 L 56.15179824829102 2 L 20.26729965209961 2 M 19.10477066040039 0 L 57.31432342529297 0 L 76.41910552978516 33.54272842407227 L 57.31432342529297 67.08545684814453 L 19.10477066040039 67.08545684814453 L -7.62939453125e-06 33.54272842407227 L 19.10477066040039 0 Z" stroke="none" fill="#ed3b24"/>
        </g>
      </g>
    </g>
    <g id="Component_101_1" data-name="Component 101 – 1" transform="translate(934.346 210.758)">
      <g id="Group_159" data-name="Group 159" transform="translate(11.338 112.496) rotate(-30)">
        <g id="Polygon_1-14" data-name="Polygon 1" transform="translate(-8.718 -7.576)" fill="none" opacity="0.42">
          <path d="M165.44,0l55.147,96.965L165.44,193.929H55.147L0,96.965,55.147,0Z" stroke="none"/>
          <path d="M 56.30999755859375 1.999984741210938 L 2.300811767578125 96.9647216796875 L 56.30996704101562 191.9294281005859 L 164.2764739990234 191.9294281005859 L 218.2855987548828 96.9647216796875 L 164.2764739990234 1.999984741210938 L 56.30999755859375 1.999984741210938 M 55.14663696289062 -1.52587890625e-05 L 165.4398345947266 -1.52587890625e-05 L 220.58642578125 96.9647216796875 L 165.4398345947266 193.9294281005859 L 55.1466064453125 193.9294281005859 L -1.52587890625e-05 96.9647216796875 L 55.14663696289062 -1.52587890625e-05 Z" stroke="none" fill="#ed3b24"/>
        </g>
        <path id="Polygon_2-14" data-name="Polygon 2" d="M144.962,0l48.321,83.555L144.962,167.11H48.321L0,83.555,48.321,0Z" transform="translate(5.464 4.676)" fill="#fff"/>
        <g transform="matrix(0.87, 0.5, -0.5, 0.87, -111.54, -266.18)" filter="url(#Polygon_3)">
          <g id="Polygon_3-17" data-name="Polygon 3" transform="translate(255.42 178.67) rotate(-30)" fill="#fff">
            <path d="M122.671,0l40.89,71.769-40.89,71.769H40.89L0,71.769,40.89,0Z" stroke="none"/>
            <path d="M 42.05276489257812 2 L 2.30181884765625 71.7694091796875 L 42.05274200439453 141.538818359375 L 121.508903503418 141.538818359375 L 161.2598266601562 71.7694091796875 L 121.508903503418 2 L 42.05276489257812 2 M 40.89043426513672 0 L 122.6712341308594 0 L 163.5616455078125 71.7694091796875 L 122.6712341308594 143.538818359375 L 40.89041137695312 143.538818359375 L 0 71.7694091796875 L 40.89043426513672 0 Z" stroke="none" fill="rgba(32,33,78,0.45)"/>
          </g>
        </g>
        <g id="Group_180" data-name="Group 180" transform="translate(-552.377 -690.154) rotate(30)">
          <g id="Group_169" data-name="Group 169" transform="translate(931 302.366)">
            <path id="Path_1" data-name="Path 1" d="M1424.756,140.633a6.5,6.5,0,0,0-1.366-7.171l-10.5-10.5a35.813,35.813,0,0,0,8.649,14.456Z" transform="translate(-1408.152 -96.443)" fill="none"/>
            <path id="Path_2" data-name="Path 2" d="M1513.613,53.46l10.5,10.5A35.824,35.824,0,0,0,1515.46,49.5l-3.212-3.212A6.5,6.5,0,0,0,1513.613,53.46Z" transform="translate(-1479.489 -41.091)" fill="none"/>
            <path id="Path_3" data-name="Path 3" d="M1421.525,55.152l10.5-10.5a35.821,35.821,0,0,0-14.456,8.65l-3.214,3.214a6.5,6.5,0,0,0,7.173-1.368Z" transform="translate(-1409.204 -39.912)" fill="none"/>
            <path id="Path_4" data-name="Path 4" d="M1501.783,145.448l-10.5,10.5a35.8,35.8,0,0,0,14.456-8.65l3.214-3.214a6.5,6.5,0,0,0-7.173,1.368Z" transform="translate(-1464.74 -111.3)" fill="none"/>
            <path id="Path_5" data-name="Path 5" d="M1413.634,44.526,1430.559,27.6l-6.726,1.841a38.854,38.854,0,0,0-17.53,9.866l-5.218,5.219a8.875,8.875,0,0,0,12.55,0Zm-5.646-3.533a35.814,35.814,0,0,1,14.455-8.65l-10.5,10.5a6.5,6.5,0,0,1-7.173,1.368Z" transform="translate(-1399.625 -27.6)" fill="#ed3b24"/>
            <path id="Path_6" data-name="Path 6" d="M1407.547,118.044l5.218,5.218a8.875,8.875,0,0,0,0-12.549l-16.925-16.925,1.84,6.727A38.852,38.852,0,0,0,1407.547,118.044Zm3.532-5.645a6.5,6.5,0,0,1,1.365,7.171l-3.212-3.212a35.81,35.81,0,0,1-8.649-14.456Z" transform="translate(-1395.839 -75.38)" fill="#262e3a"/>
            <path id="Path_7" data-name="Path 7" d="M1485.309,134.975a8.847,8.847,0,0,0-6.275,2.6L1462.109,154.5l6.727-1.84a38.855,38.855,0,0,0,17.53-9.867l5.218-5.218a8.85,8.85,0,0,0-6.275-2.6Zm-.63,6.131a35.8,35.8,0,0,1-14.456,8.65l10.5-10.5a6.5,6.5,0,0,1,7.173-1.368Z" transform="translate(-1443.679 -105.112)" fill="#ed3b24"/>
            <path id="Path_8" data-name="Path 8" d="M1505.73,45.561l16.925,16.925-1.84-6.727a38.86,38.86,0,0,0-9.868-17.53l-5.218-5.218A8.874,8.874,0,0,0,1505.73,45.561Zm.321-8.857,3.212,3.212a35.829,35.829,0,0,1,8.649,14.456l-10.5-10.5A6.5,6.5,0,0,1,1506.05,36.7Z" transform="translate(-1473.291 -31.507)" fill="#262e3a"/>
          </g>
          <text id="GEO" transform="translate(957.364 385.666)" fill="#20214e" font-size="24" font-family="Roboto-Medium, Roboto" font-weight="500"><tspan x="-23" y="0">GEO</tspan></text>
        </g>
      </g>
    </g>
    <g id="Component_102_3" data-name="Component 102 – 3" transform="translate(1060.195 388.184)">
      <g id="Group_159-2" data-name="Group 159" transform="translate(11.338 112.496) rotate(-30)">
        <g id="Polygon_1-15" data-name="Polygon 1" transform="translate(-8.718 -7.576)" fill="none" opacity="0.42">
          <path d="M165.44,0l55.147,96.965L165.44,193.929H55.147L0,96.965,55.147,0Z" stroke="none"/>
          <path d="M 56.30999755859375 1.999984741210938 L 2.300811767578125 96.9647216796875 L 56.30996704101562 191.9294281005859 L 164.2764739990234 191.9294281005859 L 218.2855987548828 96.9647216796875 L 164.2764739990234 1.999984741210938 L 56.30999755859375 1.999984741210938 M 55.14663696289062 -1.52587890625e-05 L 165.4398345947266 -1.52587890625e-05 L 220.58642578125 96.9647216796875 L 165.4398345947266 193.9294281005859 L 55.1466064453125 193.9294281005859 L -1.52587890625e-05 96.9647216796875 L 55.14663696289062 -1.52587890625e-05 Z" stroke="none" fill="#ed3b24"/>
        </g>
        <path id="Polygon_2-15" data-name="Polygon 2" d="M144.962,0l48.321,83.555L144.962,167.11H48.321L0,83.555,48.321,0Z" transform="translate(5.464 4.676)" fill="#fff"/>
        <g transform="matrix(0.87, 0.5, -0.5, 0.87, -131.81, -482.76)" filter="url(#Polygon_3-2)">
          <g id="Polygon_3-18" data-name="Polygon 3" transform="translate(381.27 356.1) rotate(-30)" fill="#fff">
            <path d="M122.671,0l40.89,71.769-40.89,71.769H40.89L0,71.769,40.89,0Z" stroke="none"/>
            <path d="M 42.05276489257812 2 L 2.30181884765625 71.7694091796875 L 42.05274200439453 141.538818359375 L 121.508903503418 141.538818359375 L 161.2598266601562 71.7694091796875 L 121.508903503418 2 L 42.05276489257812 2 M 40.89043426513672 0 L 122.6712341308594 0 L 163.5616455078125 71.7694091796875 L 122.6712341308594 143.538818359375 L 40.89041137695312 143.538818359375 L 0 71.7694091796875 L 40.89043426513672 0 Z" stroke="none" fill="rgba(32,33,78,0.45)"/>
          </g>
        </g>
        <g id="Group_180-2" data-name="Group 180" transform="translate(-552.377 -690.154) rotate(30)">
          <text id="HGEO" transform="translate(957.364 384.666)" fill="#20214e" font-size="24" font-family="Roboto-Medium, Roboto" font-weight="500"><tspan x="-31" y="0">HGEO</tspan></text>
          <g id="Group_172" data-name="Group 172" transform="translate(-498.222 -140.926)">
            <path id="Path_9" data-name="Path 9" d="M2539.55,94.993a19.677,19.677,0,0,1-2.364,3.314l.025.025-.836.84a19.706,19.706,0,0,1-33.682-13.892c0-.388.011-.783.035-1.174,0-.053.006-.108.01-.164v-.015c0-.036,0-.071.007-.108V83.8c.006-.081.013-.162.021-.244.006-.067.011-.138.019-.209.011-.1.021-.211.033-.318.007-.062.014-.13.024-.2.009-.086.022-.184.036-.281.008-.054.015-.107.024-.16.011-.089.027-.187.044-.286.008-.052.018-.11.027-.167s.016-.1.026-.146.024-.135.036-.205l.038-.2c.016-.077.031-.154.049-.232.113-.537.251-1.077.41-1.6l.005-.014c.02-.069.041-.139.064-.208s.037-.119.057-.179c.111-.344.236-.691.367-1.028.018-.046.037-.1.057-.145s.042-.106.064-.16.055-.136.087-.209c.022-.055.049-.115.075-.176l.012-.027c.037-.082.072-.164.109-.245.027-.061.054-.12.083-.18a19.552,19.552,0,0,1,1.79-3.081l.112-.154c.078-.108.157-.213.235-.318.038-.049.077-.1.117-.153.087-.111.173-.222.261-.331.051-.063.1-.128.157-.191s.1-.122.156-.186.106-.126.161-.188.123-.141.185-.211l-2.314-2.315a22.975,22.975,0,1,0,36.563,27.523Z" transform="translate(-1066.839 385.008)" fill="#262e3a"/>
            <path id="Path_10" data-name="Path 10" d="M2525.544,97.61a17.213,17.213,0,0,0,12.253,5.075q.217,0,.435-.006l.214-.006h.01l.319-.015.254-.015.116-.009.058,0c.077-.006.156-.013.235-.021l.2-.019.131-.014.088-.01.172-.022c.213-.026.425-.057.63-.092l.172-.03.019,0,.135-.024.023,0,.176-.034c.156-.031.309-.062.46-.1.1-.023.2-.048.3-.072l.013,0,.077-.019.211-.054.17-.045.132-.037.1-.03.023-.007.128-.038c.071-.021.134-.04.2-.06l.141-.044c.146-.048.29-.1.433-.147l.115-.042.028-.009c.051-.018.1-.034.14-.052.072-.026.136-.05.2-.076s.1-.038.147-.057l.249-.1.241-.1c.076-.032.15-.064.221-.1l.115-.052.034-.015.178-.084c.364-.173.723-.36,1.071-.557l.109-.063.24-.14.4-.244c.176-.111.356-.231.552-.365l.161-.114.022-.016c.041-.028.081-.057.12-.086l.011-.008.088-.064.011-.008c.05-.035.1-.072.148-.109l.161-.122.1-.078.036-.028.164-.13c.057-.045.111-.09.166-.135l.014-.012c.1-.085.208-.173.311-.263l.094-.082-2.317-2.317a14.059,14.059,0,0,1-19-20.694,14.2,14.2,0,0,1,4.4-2.956l-2.457-2.458a17.333,17.333,0,0,0-4.293,27.649Z" transform="translate(-1082.236 384.931)" fill="#ed3b24"/>
            <path id="Path_11" data-name="Path 11" d="M2542.4,48.629a22.982,22.982,0,0,0-42.51-12.1l2.385,2.385a19.739,19.739,0,0,1,2.364-3.314l-.025-.025.836-.84a19.706,19.706,0,0,1,33.682,13.891c0,.39-.012.785-.036,1.175,0,.052-.006.108-.01.164,0,.039-.006.079-.008.121v.019c-.006.082-.013.164-.02.244s-.012.14-.019.211c-.01.1-.021.21-.033.317-.007.061-.014.129-.024.2-.01.086-.022.184-.036.281-.008.054-.016.107-.024.159-.012.09-.027.189-.044.287-.008.052-.018.109-.027.167s-.017.1-.026.146-.023.135-.037.205-.025.129-.039.2-.03.154-.047.232c-.114.537-.251,1.078-.411,1.6-.022.073-.044.147-.068.222-.018.058-.037.118-.057.179-.113.346-.236.692-.368,1.028-.018.046-.037.095-.056.143s-.042.107-.065.161-.057.138-.087.209c-.022.055-.049.115-.075.176l-.012.027c-.037.082-.072.164-.109.244-.027.061-.055.121-.083.18a19.466,19.466,0,0,1-1.79,3.081l-.11.154c-.08.109-.158.215-.236.318-.038.05-.077.1-.117.154q-.129.167-.26.331c-.051.063-.1.128-.157.191s-.094.115-.145.174l-.01.01c-.055.063-.108.127-.162.189s-.122.141-.185.211l2.314,2.315A22.859,22.859,0,0,0,2542.4,48.629Z" transform="translate(-1067.179 417.346)" fill="#ed3b24"/>
            <path id="Path_12" data-name="Path 12" d="M2547.034,76.965l2.458,2.458a17.33,17.33,0,0,0-7.959-32.724c-.145,0-.289,0-.435.006-.072,0-.144,0-.213.006h-.011l-.319.016-.253.015-.116.008-.059,0-.234.02-.2.02-.131.014-.068.007-.022,0-.168.02c-.214.027-.424.058-.63.093l-.172.03-.019,0-.13.024-.028,0-.171.033c-.162.031-.313.063-.465.1-.1.023-.2.048-.3.072l-.013,0c-.026,0-.051.012-.077.018l-.211.054c-.058.015-.114.03-.169.046l-.133.037-.1.03-.023.007c-.043.012-.086.024-.128.038-.071.02-.134.04-.2.06l-.142.044c-.146.048-.289.1-.433.147l-.112.039-.033.012-.136.05c-.075.027-.139.052-.2.077l-.147.058c-.089.035-.168.068-.249.1l-.241.1c-.076.032-.148.064-.22.1l-.115.052-.035.015-.178.084c-.364.173-.725.36-1.071.557-.039.021-.074.041-.109.063-.076.044-.152.088-.227.133l-.25.152-.159.1c-.176.111-.357.231-.55.365l-.148.1-.032.023-.126.09-.017.012-.082.06-.01.008-.148.109c-.056.042-.108.082-.16.122s-.069.053-.1.077l-.039.03c-.054.043-.109.086-.164.131s-.121.1-.18.147c-.105.086-.208.173-.311.263l-.1.082,2.317,2.317a14.059,14.059,0,0,1,19,20.694A14.186,14.186,0,0,1,2547.034,76.965Z" transform="translate(-1089.287 401.95)" fill="#262e3a"/>
          </g>
        </g>
      </g>
    </g>
    <g id="Component_102_1" data-name="Component 102 – 1" transform="translate(807.346 388.184)">
      <g id="Polygon_1-16" data-name="Polygon 1" transform="translate(0 109.941) rotate(-30)" fill="none" opacity="0.42">
        <path d="M164.912,0l54.971,95.424-54.971,95.424H54.971L0,95.424,54.971,0Z" stroke="none"/>
        <path d="M 56.12669372558594 2 L 2.308090209960938 95.42432403564453 L 56.12666320800781 188.8486480712891 L 163.7561798095703 188.8486480712891 L 217.5747833251953 95.42432403564453 L 163.7561798095703 2 L 56.12669372558594 2 M 54.97073364257812 0 L 164.9121398925781 0 L 219.8828735351562 95.42432403564453 L 164.9121398925781 190.8486480712891 L 54.970703125 190.8486480712891 L 0 95.42432403564453 L 54.97073364257812 0 Z" stroke="none" fill="#ed3b24"/>
      </g>
      <path id="Polygon_2-16" data-name="Polygon 2" d="M141.007,0l47,81.554-47,81.554H47L0,81.554,47,0Z" transform="translate(20.686 113.561) rotate(-30)" fill="#fff"/>
      <g transform="matrix(1, 0, 0, 1, -91.35, -239.68)" filter="url(#Polygon_3-3)">
        <g id="Polygon_3-19" data-name="Polygon 3" transform="translate(131 356.05) rotate(-30)" fill="#fff">
          <path d="M119.331,0l39.777,69.593-39.777,69.593H39.777L0,69.593,39.777,0Z" stroke="none"/>
          <path d="M 40.93739318847656 2 L 2.303634643554688 69.59294128417969 L 40.93737030029297 137.1858825683594 L 118.1700820922852 137.1858825683594 L 156.8038024902344 69.59294128417969 L 118.1700820922852 2 L 40.93739318847656 2 M 39.77687835693359 0 L 119.3305969238281 0 L 159.1074371337891 69.59294128417969 L 119.3305969238281 139.1858825683594 L 39.77685546875 139.1858825683594 L -1.52587890625e-05 69.59294128417969 L 39.77687835693359 0 Z" stroke="none" fill="rgba(32,33,78,0.45)"/>
        </g>
      </g>
      <g id="main" transform="translate(-1110.346 -376.795)">
        <g id="Group_173" data-name="Group 173" transform="translate(1233.315 477.61)">
          <rect id="Rectangle_1" data-name="Rectangle 1" width="7.892" height="7.892" transform="translate(4.311 21.172) rotate(-45.001)" fill="none"/>
          <rect id="Rectangle_2" data-name="Rectangle 2" width="7.892" height="7.892" transform="translate(15.591 9.891) rotate(-45)" fill="none"/>
          <rect id="Rectangle_3" data-name="Rectangle 3" width="7.892" height="7.892" transform="translate(15.591 32.453) rotate(-45.001)" fill="none"/>
          <rect id="Rectangle_4" data-name="Rectangle 4" width="7.892" height="7.892" transform="translate(26.872 21.172) rotate(-45.001)" fill="none"/>
          <rect id="Rectangle_5" data-name="Rectangle 5" width="7.892" height="3.048" transform="translate(24.717 19.017) rotate(-45.001)" fill="#ed3b24"/>
          <rect id="Rectangle_6" data-name="Rectangle 6" width="7.892" height="3.048" transform="translate(13.436 30.298) rotate(-44.999)" fill="#ed3b24"/>
          <rect id="Rectangle_7" data-name="Rectangle 7" width="7.892" height="3.048" transform="translate(21.172 15.472) rotate(-45.001)" fill="#ed3b24"/>
          <rect id="Rectangle_8" data-name="Rectangle 8" width="7.892" height="3.048" transform="translate(9.891 26.753) rotate(-45)" fill="#ed3b24"/>
          <rect id="Rectangle_9" data-name="Rectangle 9" width="3.048" height="7.892" transform="translate(9.891 15.592) rotate(-45)" fill="#ed3b24"/>
          <rect id="Rectangle_10" data-name="Rectangle 10" width="3.048" height="7.892" transform="translate(13.436 12.047) rotate(-45)" fill="#ed3b24"/>
          <rect id="Rectangle_11" data-name="Rectangle 11" width="3.048" height="7.892" transform="translate(24.717 23.328) rotate(-45)" fill="#ed3b24"/>
          <rect id="Rectangle_12" data-name="Rectangle 12" width="3.048" height="7.892" transform="translate(21.172 26.872) rotate(-45)" fill="#ed3b24"/>
          <path id="Path_16" data-name="Path 16" d="M1810.225,178.566l-2.155-2.155-5.581,5.581-5.581-5.581-2.155,2.155,7.736,7.736Z" transform="translate(-1781.317 -143.957)" fill="#262e3a"/>
          <path id="Path_17" data-name="Path 17" d="M1743.472,91.985l-2.155-2.155-7.736,7.736,7.736,7.736,2.155-2.155-5.581-5.581Z" transform="translate(-1733.581 -76.394)" fill="#262e3a"/>
          <path id="Path_18" data-name="Path 18" d="M1883.489,89.83l-2.155,2.155,5.581,5.581-5.581,5.581,2.155,2.155,7.736-7.736Z" transform="translate(-1848.881 -76.394)" fill="#262e3a"/>
          <path id="Path_19" data-name="Path 19" d="M1808.07,38.548l2.155-2.155-7.736-7.736-7.736,7.736,2.155,2.155,5.581-5.581Z" transform="translate(-1781.317 -28.657)" fill="#262e3a"/>
        </g>
        <text id="NGEO" transform="translate(1224 543.919)" fill="#20214e" font-size="22" font-family="Roboto-Medium, Roboto" font-weight="500"><tspan x="0" y="0">NGEO</tspan></text>
      </g>
    </g>
  </g>
</svg>
