<svg xmlns="http://www.w3.org/2000/svg" width="152.696" height="146.994" viewBox="0 0 152.696 146.994">
  <g id="Group_164" data-name="Group 164" transform="translate(0 58.742) rotate(-30)" opacity="0.04">
    <g id="Polygon_1" data-name="Polygon 1" fill="none" opacity="0.42">
      <path d="M88.112,0l29.371,50.953L88.112,101.905H29.371L0,50.953,29.371,0Z" stroke="none"/>
      <path d="M 30.52643585205078 2 L 2.3084716796875 50.95270156860352 L 30.52642059326172 99.90540313720703 L 86.95687103271484 99.90540313720703 L 115.1748199462891 50.95270156860352 L 86.95687103271484 2 L 30.52643585205078 2 M 29.37082672119141 0 L 88.11248016357422 0 L 117.4832992553711 50.95270156860352 L 88.11248016357422 101.905403137207 L 29.37081146240234 101.905403137207 L -7.62939453125e-06 50.95270156860352 L 29.37082672119141 0 Z" stroke="none" fill="#ed3b24"/>
    </g>
    <path id="Polygon_2" data-name="Polygon 2" d="M73.508,0l24.5,42.515-24.5,42.515H24.5L0,42.515,24.5,0Z" transform="translate(9.833 8.21)" fill="#fff"/>
    <g id="Polygon_3" data-name="Polygon 3" transform="translate(16.324 13.403)" fill="none" opacity="0.64">
      <path d="M63.772,0,85.029,37.322,63.772,74.644H21.257L0,37.322,21.257,0Z" stroke="none"/>
      <path d="M 22.41986083984375 2 L 2.301651000976562 37.32204055786133 L 22.41986083984375 72.64408111572266 L 62.60948944091797 72.64408111572266 L 82.72769927978516 37.32204055786133 L 62.60948944091797 2 L 22.41986083984375 2 M 21.25733947753906 0 L 63.77201080322266 0 L 85.02935028076172 37.32204055786133 L 63.77201080322266 74.64408111572266 L 21.25733947753906 74.64408111572266 L 0 37.32204055786133 L 21.25733947753906 0 Z" stroke="none" fill="#ed3b24"/>
    </g>
  </g>
</svg>
