<svg xmlns="http://www.w3.org/2000/svg" width="24.111" height="24.111" viewBox="0 0 24.111 24.111">
  <path id="instagram-brands_1_" data-name="instagram-brands(1)" d="M11.983,37.7a6.182,6.182,0,1,0,6.18,6.182A6.171,6.171,0,0,0,11.983,37.7Zm0,10.2A4.019,4.019,0,1,1,16,43.881,4.026,4.026,0,0,1,11.983,47.9Zm7.875-10.454A1.442,1.442,0,1,1,18.417,36,1.438,1.438,0,0,1,19.858,37.446Zm4.093,1.463A7.136,7.136,0,0,0,22,33.857a7.18,7.18,0,0,0-5.051-1.948c-1.99-.113-7.956-.113-9.946,0a7.17,7.17,0,0,0-5.051,1.942A7.16,7.16,0,0,0,.01,38.9C-.1,40.895-.1,46.861.01,48.852A7.136,7.136,0,0,0,1.957,53.9a7.189,7.189,0,0,0,5.051,1.948c1.99.113,7.956.113,9.946,0A7.133,7.133,0,0,0,22,53.9a7.183,7.183,0,0,0,1.947-5.052C24.065,46.861,24.065,40.9,23.952,38.909ZM21.38,50.988a4.068,4.068,0,0,1-2.291,2.292c-1.587.629-5.352.484-7.106.484s-5.524.14-7.106-.484a4.068,4.068,0,0,1-2.291-2.292C1.957,49.4,2.1,45.635,2.1,43.881s-.14-5.525.484-7.107a4.068,4.068,0,0,1,2.291-2.292C6.464,33.852,10.23,34,11.983,34s5.524-.14,7.106.484a4.068,4.068,0,0,1,2.291,2.292c.629,1.587.484,5.353.484,7.107S22.01,49.406,21.38,50.988Z" transform="translate(0.075 -31.825)" fill="#20214e"/>
</svg>
