<svg xmlns="http://www.w3.org/2000/svg" width="24.118" height="24.117" viewBox="0 0 24.118 24.117">
  <path id="Path_33790" data-name="Path 33790" d="M86.189,64H66.061A1.967,1.967,0,0,0,64,65.878V86.051a2.122,2.122,0,0,0,2.061,2.067H86.183a2.014,2.014,0,0,0,1.935-2.067V65.878A1.849,1.849,0,0,0,86.189,64ZM71.476,84.1H68.021V73.361h3.455ZM69.868,71.727h-.025a1.879,1.879,0,1,1,.025,0ZM84.1,84.1H80.648V78.229c0-1.407-.5-2.368-1.753-2.368a1.89,1.89,0,0,0-1.772,1.275,2.326,2.326,0,0,0-.119.848V84.1H73.549V73.361H77v1.5a3.5,3.5,0,0,1,3.116-1.746c2.268,0,3.983,1.5,3.983,4.718Z" transform="translate(-64 -64)" fill="#20214e"/>
</svg>
