<svg xmlns="http://www.w3.org/2000/svg" width="232.089" height="60.938" viewBox="0 0 232.089 60.938">
  <g id="Group_18873" data-name="Group 18873" transform="translate(-103.738 -174.296)">
    <path id="Path_33518" data-name="Path 33518" d="M319.062,264.567a16.726,16.726,0,0,0-16.768,16.879,16.17,16.17,0,0,0,3.868,10.58l9.712-1.212a9.537,9.537,0,0,1-6.72-9.369,9.911,9.911,0,1,1,19.82,0,9.568,9.568,0,0,1-4.437,8.29l9.686-1.208a16.1,16.1,0,0,0,1.611-7.082A16.688,16.688,0,0,0,319.062,264.567Z" transform="translate(-164.059 -74.587)" fill="#fff"/>
    <path id="Path_33519" data-name="Path 33519" d="M538.032,262.756v-5.335l-6.86.174v23.75l6.86-1.027v-6.971c0-7.111,5.275-9.21,9.786-8.892v-7.606C543.814,256.849,539.939,258.438,538.032,262.756Z" transform="translate(-353.172 -68.21)" fill="#fff"/>
    <circle id="Ellipse_487" data-name="Ellipse 487" cx="4.044" cy="4.044" r="4.044" transform="translate(199.113 176.367)" fill="#fff"/>
    <path id="Path_33520" data-name="Path 33520" d="M663.082,260.145v20.363l-6.86.853V260.318Z" transform="translate(-456.495 -70.933)" fill="#fff"/>
    <path id="Path_33521" data-name="Path 33521" d="M1049.93,259.145a16.58,16.58,0,0,0-16.772,16.705,17.164,17.164,0,0,0,.465,3.982l7.588.946a10.418,10.418,0,0,1-1.193-4.928,9.911,9.911,0,1,1,19.82,0,10.063,10.063,0,0,1-2.615,6.927l7.559.942a16.826,16.826,0,0,0,1.917-7.869A16.54,16.54,0,0,0,1049.93,259.145Z" transform="translate(-767.943 -70.107)" fill="#fff"/>
    <path id="Path_33522" data-name="Path 33522" d="M1279.868,254.381c-4.61,0-8.272,1.589-10.51,4.895v-4.067h-7.322V280.8l7.322.916V269.945c0-6.48,3.8-9.147,8.611-9.147,4.611,0,7.592,2.542,7.592,7.37v15.56l7.322.912V267.47C1292.883,259.209,1287.46,254.381,1279.868,254.381Z" transform="translate(-957.056 -66.171)" fill="#fff"/>
    <path id="Path_33523" data-name="Path 33523" d="M120.447,189.21c-4.319,0-7.751,1.588-9.845,4.895V175.3h-6.864v46.679l6.864-.174V204.948c0-6.48,3.558-9.321,8.065-9.321,4.322,0,7.115,2.715,7.115,7.544V220.3l6.86-.853V202.472C132.642,194.212,127.562,189.21,120.447,189.21Z" transform="translate(0 -0.826)" fill="#fff"/>
    <g id="Group_18872" data-name="Group 18872" transform="translate(272.064 221.597)">
      <g id="Group_18871" data-name="Group 18871" transform="translate(0)">
        <path id="Path_33524" data-name="Path 33524" d="M1086.638,471.019v5.929h-2.066v-5.8c0-1.339-.727-2.085-1.855-2.085-1.224,0-2.085.784-2.085,2.525v5.355h-2.066v-5.8c0-1.339-.669-2.085-1.8-2.085-1.167,0-2.123.784-2.123,2.525v5.355h-2.066v-9.563h2.066v1.148a3.073,3.073,0,0,1,2.735-1.4,2.967,2.967,0,0,1,2.716,1.511,3.278,3.278,0,0,1,2.926-1.511C1085.184,467.136,1086.638,468.628,1086.638,471.019Z" transform="translate(-1072.58 -463.559)" fill="#fff"/>
        <path id="Path_33525" data-name="Path 33525" d="M1166.75,467.384v9.563h-2.066v-1.377a3.929,3.929,0,0,1-3.347,1.626,5.038,5.038,0,0,1,0-10.06,3.963,3.963,0,0,1,3.347,1.606v-1.358Zm-2.066,4.782a3.022,3.022,0,1,0-3.022,3.06A2.955,2.955,0,0,0,1164.684,472.166Z" transform="translate(-1141.982 -463.559)" fill="#fff"/>
        <path id="Path_33526" data-name="Path 33526" d="M1227.416,467.576v2.238a2.526,2.526,0,0,0-2.945,2.678v4.82H1222.4v-9.563h2.066v1.607A3.009,3.009,0,0,1,1227.416,467.576Z" transform="translate(-1196.374 -463.923)" fill="#fff"/>
        <path id="Path_33527" data-name="Path 33527" d="M1259.435,459.938l-3.921-4.418v4.418h-2.066V446.549h2.066V454.6l3.711-4.227h2.525l-4.208,4.686,4.361,4.877Z" transform="translate(-1222.024 -446.549)" fill="#fff"/>
        <path id="Path_33528" data-name="Path 33528" d="M1305.678,475.3a2.92,2.92,0,0,0,2.467-1.186l1.7.995a4.831,4.831,0,0,1-4.189,2.085,5.032,5.032,0,1,1-.153-10.06,4.826,4.826,0,0,1,4.8,5.049,6.251,6.251,0,0,1-.077.861h-7.612A2.874,2.874,0,0,0,1305.678,475.3Zm2.544-3.94a2.661,2.661,0,0,0-2.735-2.352,2.78,2.78,0,0,0-2.888,2.352Z" transform="translate(-1260.865 -463.559)" fill="#fff"/>
        <path id="Path_33529" data-name="Path 33529" d="M1359.873,457.822v4.59c0,1.224.8,1.205,2.372,1.128V465.4c-3.175.382-4.437-.5-4.437-2.984v-4.59h-1.759v-1.989h1.759v-2.065l2.066-.612v2.677h2.372v1.989Z" transform="translate(-1306.798 -452.007)" fill="#fff"/>
        <path id="Path_33530" data-name="Path 33530" d="M1400.445,474.251c0,1.913-1.664,2.945-3.73,2.945a3.991,3.991,0,0,1-3.9-2.238l1.779-1.033a2.1,2.1,0,0,0,2.123,1.377c.918,0,1.626-.306,1.626-1.071,0-1.7-5.145-.746-5.145-4.17,0-1.8,1.549-2.926,3.5-2.926a3.851,3.851,0,0,1,3.538,1.989l-1.741.975a1.864,1.864,0,0,0-1.8-1.09c-.746,0-1.4.325-1.4,1.013C1395.3,471.765,1400.445,470.713,1400.445,474.251Z" transform="translate(-1337.177 -463.559)" fill="#fff"/>
      </g>
    </g>
    <path id="Path_33531" data-name="Path 33531" d="M783.251,221.656v7.274H736.977v-2.557l12.278-17.545,15.483-22.121H738.16V174.3h43.9v8.766l-18.527,26.587-8.553,12.118Z" transform="translate(-523.22)" fill="#fff"/>
    <rect id="Rectangle_5073" data-name="Rectangle 5073" width="22.015" height="6.209" transform="translate(213.756 228.931)" fill="#ee4023"/>
    <rect id="Rectangle_5074" data-name="Rectangle 5074" width="9.012" height="6.209" transform="translate(235.771 228.931)" fill="#faaf41"/>
    <rect id="Rectangle_5075" data-name="Rectangle 5075" width="15.248" height="6.209" transform="translate(244.783 228.931)" fill="#4b8cca"/>
  </g>
</svg>
