<svg xmlns="http://www.w3.org/2000/svg" width="59" height="72.309" viewBox="0 0 59 72.309">
  <g id="main" transform="translate(-1224 -477.61)">
    <g id="Group_173" data-name="Group 173" transform="translate(1233.315 477.61)">
      <rect id="Rectangle_1" data-name="Rectangle 1" width="7.892" height="7.892" transform="translate(4.311 21.172) rotate(-45.001)" fill="none"/>
      <rect id="Rectangle_2" data-name="Rectangle 2" width="7.892" height="7.892" transform="translate(15.591 9.891) rotate(-45)" fill="none"/>
      <rect id="Rectangle_3" data-name="Rectangle 3" width="7.892" height="7.892" transform="translate(15.591 32.453) rotate(-45.001)" fill="none"/>
      <rect id="Rectangle_4" data-name="Rectangle 4" width="7.892" height="7.892" transform="translate(26.872 21.172) rotate(-45.001)" fill="none"/>
      <rect id="Rectangle_5" data-name="Rectangle 5" width="7.892" height="3.048" transform="translate(24.717 19.017) rotate(-45.001)" fill="#ed3b24"/>
      <rect id="Rectangle_6" data-name="Rectangle 6" width="7.892" height="3.048" transform="translate(13.436 30.298) rotate(-44.999)" fill="#ed3b24"/>
      <rect id="Rectangle_7" data-name="Rectangle 7" width="7.892" height="3.048" transform="translate(21.172 15.472) rotate(-45.001)" fill="#ed3b24"/>
      <rect id="Rectangle_8" data-name="Rectangle 8" width="7.892" height="3.048" transform="translate(9.891 26.753) rotate(-45)" fill="#ed3b24"/>
      <rect id="Rectangle_9" data-name="Rectangle 9" width="3.048" height="7.892" transform="translate(9.891 15.592) rotate(-45)" fill="#ed3b24"/>
      <rect id="Rectangle_10" data-name="Rectangle 10" width="3.048" height="7.892" transform="translate(13.436 12.047) rotate(-45)" fill="#ed3b24"/>
      <rect id="Rectangle_11" data-name="Rectangle 11" width="3.048" height="7.892" transform="translate(24.717 23.328) rotate(-45)" fill="#ed3b24"/>
      <rect id="Rectangle_12" data-name="Rectangle 12" width="3.048" height="7.892" transform="translate(21.172 26.872) rotate(-45)" fill="#ed3b24"/>
      <path id="Path_16" data-name="Path 16" d="M1810.225,178.566l-2.155-2.155-5.581,5.581-5.581-5.581-2.155,2.155,7.736,7.736Z" transform="translate(-1781.317 -143.957)" fill="#262e3a"/>
      <path id="Path_17" data-name="Path 17" d="M1743.472,91.985l-2.155-2.155-7.736,7.736,7.736,7.736,2.155-2.155-5.581-5.581Z" transform="translate(-1733.581 -76.394)" fill="#262e3a"/>
      <path id="Path_18" data-name="Path 18" d="M1883.489,89.83l-2.155,2.155,5.581,5.581-5.581,5.581,2.155,2.155,7.736-7.736Z" transform="translate(-1848.881 -76.394)" fill="#262e3a"/>
      <path id="Path_19" data-name="Path 19" d="M1808.07,38.548l2.155-2.155-7.736-7.736-7.736,7.736,2.155,2.155,5.581-5.581Z" transform="translate(-1781.317 -28.657)" fill="#262e3a"/>
    </g>
    <text id="NGEO" transform="translate(1224 543.919)" fill="#20214e" font-size="22" font-family="Roboto-Medium, Roboto" font-weight="500"><tspan x="0" y="0">NGEO</tspan></text>
  </g>
</svg>
