<svg xmlns="http://www.w3.org/2000/svg" width="538.979" height="67.116" viewBox="0 0 538.979 67.116">
  <path id="Path_3680" data-name="Path 3680" d="M1071.1,87.278c-6.993-6.926-26.082-16.972-34.753-21.815s-19.254-7.323-28.835-4.5c-10.485,3.092-19.079,12.186-30.045,12.133-11.137-.05-19.426-9.353-27.52-16.738s-20.852-13.555-29.759-7.1c-4.99,3.615-7.077,10.3-12.5,13.274-4.477,2.454-10.009,1.728-15.11,2.386C880,66.551,870.63,76.408,860.821,84.183s-23.953,13.952-34.733,7.486c-5.176-3.1-8.447-8.6-13.653-11.656-9.914-5.816-23.642-1.186-33.709-6.75-5.681-3.14-9.4-9.159-15.459-11.541-9.171-3.6-19.6,2.8-24.907,10.872S730.9,90.323,726.018,98.64s-14.3,15.61-23.931,13.382c-16.73-3.871-18.086-31-34.907-34.484-8.647-1.791-18.189,3.864-26.175.2-5.8-2.663-8.719-9.5-14.669-11.845-8.888-3.5-17.576,4.592-25.248,10.161C581.706,90.117,552.2,89.19,533.813,73.936" transform="translate(-532.968 -45.927)" fill="none" stroke="#008f30" stroke-linecap="round" stroke-linejoin="round" stroke-width="1.2"/>
</svg>
