<svg xmlns="http://www.w3.org/2000/svg" width="18" height="12" viewBox="0 0 18 12">
  <g id="Group_15" data-name="Group 15" transform="translate(18) rotate(90)">
    <path id="Path_20" data-name="Path 20" d="M6,7a.908.908,0,0,1-.7-.3l-5-5A.967.967,0,0,1,.3.3.967.967,0,0,1,1.7.3l5,5a.967.967,0,0,1,0,1.4A.908.908,0,0,1,6,7Z" transform="translate(5)" fill="#ed3b24"/>
    <path id="Path_21" data-name="Path 21" d="M1,7a.908.908,0,0,1-.7-.3.967.967,0,0,1,0-1.4l5-5A.967.967,0,0,1,6.7.3a.967.967,0,0,1,0,1.4l-5,5A.908.908,0,0,1,1,7Z" transform="translate(0 0)" fill="#ed3b24"/>
    <path id="Path_22" data-name="Path 22" d="M1,18a.945.945,0,0,1-1-1V1A.945.945,0,0,1,1,0,.945.945,0,0,1,2,1V17A.945.945,0,0,1,1,18Z" transform="translate(5 0)" fill="#ed3b24"/>
  </g>
</svg>
