<svg xmlns="http://www.w3.org/2000/svg" width="27.567" height="22.39" viewBox="0 0 27.567 22.39">
  <path id="twitter-brands" d="M24.734,53.662c.017.245.017.49.017.735,0,7.469-5.685,16.075-16.075,16.075A15.966,15.966,0,0,1,0,67.935a11.688,11.688,0,0,0,1.364.07,11.315,11.315,0,0,0,7.014-2.414A5.66,5.66,0,0,1,3.1,61.673a7.126,7.126,0,0,0,1.067.087,5.975,5.975,0,0,0,1.487-.192,5.651,5.651,0,0,1-4.53-5.545v-.07a5.69,5.69,0,0,0,2.554.717,5.658,5.658,0,0,1-1.749-7.557,16.06,16.06,0,0,0,11.65,5.912,6.378,6.378,0,0,1-.14-1.294,5.655,5.655,0,0,1,9.778-3.866A11.124,11.124,0,0,0,26.8,48.5a5.635,5.635,0,0,1-2.484,3.114,11.326,11.326,0,0,0,3.253-.875,12.145,12.145,0,0,1-2.834,2.921Z" transform="translate(0 -48.082)" fill="#20214e"/>
</svg>
